devicons.ufo
<glyph name="uniE600" format="2">
  <advance width="1200"/>
  <unicode hex="E700"/>
  <note>
uniE600
</note>
  <outline>
    <contour>
      <point x="1168" y="834" type="line"/>
      <point x="455" y="1054" type="line"/>
      <point x="598" y="739" type="line"/>
      <point x="811" y="643" type="line"/>
      <point x="42" y="237" type="line"/>
      <point x="357" y="518" type="line"/>
      <point x="357" y="1320" type="line"/>
      <point x="32" y="1420" type="line"/>
      <point x="32" y="227" type="line"/>
      <point x="355" y="0" type="line"/>
      <point x="1168" y="484" type="line"/>
    </contour>
  </outline>
</glyph>
<glyph name="uniE601" format="2">
  <advance width="1200"/>
  <unicode hex="E701"/>
  <note>
uniE601
</note>
  <outline>
    <contour>
      <point x="567" y="1328" type="qcurve"/>
      <point x="567" y="1328" type="line"/>
      <point x="532" y="1316"/>
      <point x="490" y="1265"/>
      <point x="483" y="1231" type="qcurve" smooth="yes"/>
      <point x="482" y="1220"/>
      <point x="488" y="1146"/>
      <point x="500" y="1038" type="qcurve" smooth="yes"/>
      <point x="508" y="965"/>
      <point x="519" y="860"/>
      <point x="519" y="859" type="qcurve"/>
      <point x="518" y="857"/>
      <point x="429" y="919"/>
      <point x="366" y="966" type="qcurve" smooth="yes"/>
      <point x="304" y="1012"/>
      <point x="204" y="1082"/>
      <point x="197" y="1086" type="qcurve" smooth="yes"/>
      <point x="181" y="1094"/>
      <point x="129" y="1097"/>
      <point x="109" y="1091" type="qcurve" smooth="yes"/>
      <point x="80" y="1082"/>
      <point x="34" y="1037"/>
      <point x="26" y="1007" type="qcurve" smooth="yes"/>
      <point x="18" y="981"/>
      <point x="24" y="932"/>
      <point x="41" y="908" type="qcurve" smooth="yes"/>
      <point x="55" y="885"/>
      <point x="121" y="849"/>
      <point x="260" y="788" type="qcurve" smooth="yes"/>
      <point x="330" y="757"/>
      <point x="431" y="710"/>
      <point x="431" y="708" type="qcurve"/>
      <point x="431" y="708"/>
      <point x="335" y="664"/>
      <point x="266" y="635" type="qcurve" smooth="yes"/>
      <point x="199" y="605"/>
      <point x="93" y="558"/>
      <point x="86" y="555" type="qcurve" smooth="yes"/>
      <point x="70" y="545"/>
      <point x="37" y="509"/>
      <point x="29" y="492" type="qcurve" smooth="yes"/>
      <point x="24" y="481"/>
      <point x="21" y="463"/>
      <point x="21" y="447" type="qcurve" smooth="yes"/>
      <point x="21" y="427"/>
      <point x="24" y="411"/>
      <point x="31" y="396" type="qcurve" smooth="yes"/>
      <point x="41" y="376"/>
      <point x="68" y="345"/>
      <point x="86" y="336" type="qcurve" smooth="yes"/>
      <point x="116" y="321"/>
      <point x="171" y="321"/>
      <point x="202" y="337" type="qcurve" smooth="yes"/>
      <point x="211" y="340"/>
      <point x="310" y="411"/>
      <point x="371" y="455" type="qcurve" smooth="yes"/>
      <point x="451" y="514"/>
      <point x="518" y="561"/>
      <point x="519" y="558" type="qcurve"/>
      <point x="519" y="556"/>
      <point x="508" y="450"/>
      <point x="500" y="378" type="qcurve" smooth="yes"/>
      <point x="485" y="236"/>
      <point x="483" y="174"/>
      <point x="493" y="149" type="qcurve" smooth="yes"/>
      <point x="501" y="135"/>
      <point x="531" y="105"/>
      <point x="549" y="97" type="qcurve" smooth="yes"/>
      <point x="560" y="90"/>
      <point x="578" y="89"/>
      <point x="599" y="89" type="qcurve" smooth="yes"/>
      <point x="621" y="89"/>
      <point x="639" y="90"/>
      <point x="650" y="97" type="qcurve" smooth="yes"/>
      <point x="676" y="110"/>
      <point x="711" y="154"/>
      <point x="715" y="185" type="qcurve" smooth="yes"/>
      <point x="719" y="198"/>
      <point x="712" y="264"/>
      <point x="699" y="383" type="qcurve" smooth="yes"/>
      <point x="691" y="456"/>
      <point x="680" y="561"/>
      <point x="681" y="563" type="qcurve"/>
      <point x="681" y="563"/>
      <point x="760" y="506"/>
      <point x="815" y="465" type="qcurve" smooth="yes"/>
      <point x="951" y="367"/>
      <point x="1011" y="326"/>
      <point x="1036" y="322" type="qcurve" smooth="yes"/>
      <point x="1085" y="313"/>
      <point x="1175" y="385"/>
      <point x="1180" y="437" type="qcurve" smooth="yes"/>
      <point x="1181" y="458"/>
      <point x="1171" y="492"/>
      <point x="1160" y="512" type="qcurve" smooth="yes"/>
      <point x="1144" y="537"/>
      <point x="1080" y="571"/>
      <point x="939" y="631" type="qcurve" smooth="yes"/>
      <point x="869" y="662"/>
      <point x="768" y="707"/>
      <point x="766" y="708" type="qcurve"/>
      <point x="766" y="708"/>
      <point x="861" y="752"/>
      <point x="928" y="783" type="qcurve" smooth="yes"/>
      <point x="1077" y="849"/>
      <point x="1126" y="873"/>
      <point x="1142" y="888" type="qcurve" smooth="yes"/>
      <point x="1160" y="904"/>
      <point x="1178" y="940"/>
      <point x="1180" y="963" type="qcurve" smooth="yes"/>
      <point x="1181" y="1007"/>
      <point x="1132" y="1081"/>
      <point x="1091" y="1092" type="qcurve" smooth="yes"/>
      <point x="1072" y="1097"/>
      <point x="1019" y="1094"/>
      <point x="1003" y="1086" type="qcurve" smooth="yes"/>
      <point x="995" y="1082"/>
      <point x="895" y="1012"/>
      <point x="833" y="966" type="qcurve" smooth="yes"/>
      <point x="771" y="921"/>
      <point x="681" y="855"/>
      <point x="681" y="855" type="qcurve"/>
      <point x="680" y="855"/>
      <point x="691" y="961"/>
      <point x="699" y="1037" type="qcurve" smooth="yes"/>
      <point x="715" y="1182"/>
      <point x="717" y="1244"/>
      <point x="706" y="1269" type="qcurve" smooth="yes"/>
      <point x="697" y="1285"/>
      <point x="668" y="1313"/>
      <point x="652" y="1321" type="qcurve" smooth="yes"/>
      <point x="634" y="1329"/>
      <point x="581" y="1332"/>
    </contour>
  </outline>
</glyph>
<glyph name="uniE602" format="2">
  <advance width="1200"/>
  <unicode hex="E702"/>
  <note>
uniE602
</note>
  <outline>
    <contour>
      <point x="1158" y="761" type="qcurve"/>
      <point x="1158" y="761" type="line"/>
      <point x="651" y="1268" type="line" smooth="yes"/>
      <point x="631" y="1290"/>
      <point x="568" y="1290"/>
      <point x="545" y="1268" type="qcurve" smooth="yes"/>
      <point x="441" y="1163" type="line"/>
      <point x="574" y="1030" type="line"/>
      <point x="597" y="1038"/>
      <point x="647" y="1027"/>
      <point x="666" y="1007" type="qcurve" smooth="yes"/>
      <point x="684" y="990"/>
      <point x="695" y="940"/>
      <point x="687" y="916" type="qcurve"/>
      <point x="815" y="787" type="line"/>
      <point x="838" y="795"/>
      <point x="888" y="786"/>
      <point x="907" y="766" type="qcurve" smooth="yes"/>
      <point x="933" y="741"/>
      <point x="933" y="667"/>
      <point x="907" y="641" type="qcurve" smooth="yes"/>
      <point x="881" y="615"/>
      <point x="807" y="615"/>
      <point x="782" y="641" type="qcurve" smooth="yes"/>
      <point x="762" y="660"/>
      <point x="753" y="713"/>
      <point x="762" y="737" type="qcurve"/>
      <point x="642" y="858" type="line"/>
      <point x="642" y="541" type="line"/>
      <point x="648" y="538"/>
      <point x="659" y="530"/>
      <point x="666" y="525" type="qcurve"/>
      <point x="692" y="500"/>
      <point x="692" y="426"/>
      <point x="666" y="400" type="qcurve" smooth="yes"/>
      <point x="640" y="373"/>
      <point x="566" y="373"/>
      <point x="541" y="400" type="qcurve" smooth="yes"/>
      <point x="513" y="426"/>
      <point x="513" y="500"/>
      <point x="541" y="525" type="qcurve" smooth="yes"/>
      <point x="547" y="532"/>
      <point x="561" y="541"/>
      <point x="569" y="545" type="qcurve"/>
      <point x="569" y="863" type="line"/>
      <point x="561" y="866"/>
      <point x="547" y="875"/>
      <point x="541" y="882" type="qcurve" smooth="yes"/>
      <point x="520" y="901"/>
      <point x="510" y="956"/>
      <point x="521" y="980" type="qcurve"/>
      <point x="390" y="1112" type="line"/>
      <point x="42" y="763" type="line" smooth="yes"/>
      <point x="20" y="742"/>
      <point x="20" y="679"/>
      <point x="42" y="659" type="qcurve" smooth="yes"/>
      <point x="549" y="152" type="line" smooth="yes"/>
      <point x="569" y="130"/>
      <point x="632" y="130"/>
      <point x="655" y="152" type="qcurve" smooth="yes"/>
      <point x="1158" y="655" type="line" smooth="yes"/>
      <point x="1180" y="678"/>
      <point x="1180" y="739"/>
    </contour>
  </outline>
</glyph>
<glyph name="uniE603" format="2">
  <advance width="1200"/>
  <unicode hex="E703"/>
  <note>
uniE603
</note>
  <outline>
    <contour>
      <point x="600" y="1364" type="qcurve"/>
      <point x="600" y="1364" type="line"/>
      <point x="600" y="1364" type="line"/>
      <point x="479" y="1364"/>
      <point x="269" y="1335"/>
      <point x="111" y="1283"/>
      <point x="20" y="1213"/>
      <point x="20" y="1172" type="qcurve" smooth="yes"/>
      <point x="20" y="1162"/>
      <point x="43" y="1020"/>
      <point x="74" y="833"/>
      <point x="106" y="642"/>
      <point x="118" y="582" type="qcurve" smooth="yes"/>
      <point x="121" y="554"/>
      <point x="194" y="493"/>
      <point x="318" y="440"/>
      <point x="492" y="406"/>
      <point x="600" y="406" type="qcurve"/>
      <point x="600" y="406" type="line"/>
      <point x="600" y="406" type="line"/>
      <point x="708" y="406"/>
      <point x="882" y="440"/>
      <point x="1006" y="493"/>
      <point x="1079" y="554"/>
      <point x="1082" y="582" type="qcurve" smooth="yes"/>
      <point x="1094" y="642"/>
      <point x="1126" y="833"/>
      <point x="1157" y="1020"/>
      <point x="1180" y="1162"/>
      <point x="1180" y="1172" type="qcurve" smooth="yes"/>
      <point x="1180" y="1213"/>
      <point x="1089" y="1283"/>
      <point x="931" y="1335"/>
      <point x="721" y="1364"/>
    </contour>
    <contour>
      <point x="600" y="535" type="qcurve"/>
      <point x="600" y="535" type="line"/>
      <point x="523" y="535"/>
      <point x="416" y="642"/>
      <point x="416" y="719" type="qcurve" smooth="yes"/>
      <point x="416" y="796"/>
      <point x="523" y="903"/>
      <point x="600" y="903" type="qcurve" smooth="yes"/>
      <point x="677" y="903"/>
      <point x="784" y="796"/>
      <point x="784" y="719" type="qcurve" smooth="yes"/>
      <point x="784" y="642"/>
      <point x="677" y="535"/>
    </contour>
    <contour>
      <point x="600" y="1113" type="qcurve"/>
      <point x="600" y="1113" type="line"/>
      <point x="445" y="1113"/>
      <point x="229" y="1160"/>
      <point x="229" y="1193" type="qcurve" smooth="yes"/>
      <point x="229" y="1226"/>
      <point x="447" y="1271"/>
      <point x="600" y="1271" type="qcurve" smooth="yes"/>
      <point x="755" y="1271"/>
      <point x="971" y="1224"/>
      <point x="971" y="1191" type="qcurve" smooth="yes"/>
      <point x="971" y="1159"/>
      <point x="753" y="1113"/>
    </contour>
    <contour>
      <point x="1017" y="453" type="qcurve"/>
      <point x="1017" y="453" type="line"/>
      <point x="1011" y="453"/>
      <point x="1001" y="447"/>
      <point x="1001" y="447" type="qcurve"/>
      <point x="1001" y="447"/>
      <point x="794" y="333"/>
      <point x="600" y="333" type="qcurve" smooth="yes"/>
      <point x="406" y="333"/>
      <point x="199" y="447"/>
      <point x="199" y="447" type="qcurve"/>
      <point x="199" y="447"/>
      <point x="189" y="453"/>
      <point x="183" y="453" type="qcurve" smooth="yes"/>
      <point x="175" y="453"/>
      <point x="162" y="442"/>
      <point x="162" y="431" type="qcurve" smooth="yes"/>
      <point x="162" y="429"/>
      <point x="163" y="426"/>
      <point x="163" y="426" type="qcurve"/>
      <point x="180" y="336"/>
      <point x="202" y="219"/>
      <point x="204" y="209" type="qcurve" smooth="yes"/>
      <point x="219" y="144"/>
      <point x="445" y="56"/>
      <point x="600" y="56" type="qcurve"/>
      <point x="600" y="56" type="line"/>
      <point x="600" y="56" type="line"/>
      <point x="755" y="56"/>
      <point x="981" y="144"/>
      <point x="996" y="209" type="qcurve" smooth="yes"/>
      <point x="998" y="219"/>
      <point x="1020" y="336"/>
      <point x="1037" y="426" type="qcurve"/>
      <point x="1037" y="426"/>
      <point x="1038" y="429"/>
      <point x="1038" y="431" type="qcurve" smooth="yes"/>
      <point x="1038" y="442"/>
      <point x="1025" y="453"/>
    </contour>
    <contour>
      <point x="706" y="717" type="line"/>
      <point x="706" y="760"/>
      <point x="647" y="818"/>
      <point x="605" y="818" type="qcurve" smooth="yes"/>
      <point x="564" y="818"/>
      <point x="506" y="760"/>
      <point x="506" y="717" type="qcurve" smooth="yes"/>
      <point x="506" y="677"/>
      <point x="564" y="618"/>
      <point x="605" y="618" type="qcurve" smooth="yes"/>
      <point x="647" y="618"/>
      <point x="706" y="677"/>
      <point x="706" y="717" type="qcurve"/>
    </contour>
  </outline>
</glyph>
<glyph name="uniE604" format="2">
  <advance width="1200"/>
  <unicode hex="E704"/>
  <note>
uniE604
</note>
  <outline>
    <contour>
      <point x="38" y="1261" type="qcurve"/>
      <point x="38" y="1261" type="line"/>
      <point x="15" y="1238"/>
      <point x="28" y="1179"/>
      <point x="67" y="1122" type="qcurve" smooth="yes"/>
      <point x="86" y="1093"/>
      <point x="126" y="1014"/>
      <point x="134" y="987" type="qcurve" smooth="yes"/>
      <point x="142" y="959"/>
      <point x="173" y="895"/>
      <point x="186" y="877" type="qcurve" smooth="yes"/>
      <point x="207" y="847"/>
      <point x="210" y="810"/>
      <point x="195" y="753" type="qcurve" smooth="yes"/>
      <point x="187" y="718"/>
      <point x="181" y="639"/>
      <point x="186" y="613" type="qcurve" smooth="yes"/>
      <point x="192" y="566"/>
      <point x="250" y="460"/>
      <point x="274" y="452" type="qcurve" smooth="yes"/>
      <point x="294" y="445"/>
      <point x="339" y="500"/>
      <point x="339" y="532" type="qcurve" smooth="yes"/>
      <point x="339" y="560"/>
      <point x="345" y="563"/>
      <point x="357" y="544" type="qcurve" smooth="yes"/>
      <point x="378" y="510"/>
      <point x="474" y="405"/>
      <point x="479" y="410" type="qcurve" smooth="yes"/>
      <point x="481" y="412"/>
      <point x="456" y="461"/>
      <point x="436" y="494" type="qcurve" smooth="yes"/>
      <point x="416" y="526"/>
      <point x="376" y="600"/>
      <point x="366" y="619" type="qcurve"/>
      <point x="355" y="652"/>
      <point x="340" y="661"/>
      <point x="326" y="645" type="qcurve" smooth="yes"/>
      <point x="318" y="637"/>
      <point x="299" y="594"/>
      <point x="295" y="569" type="qcurve" smooth="yes"/>
      <point x="287" y="518"/>
      <point x="253" y="507"/>
      <point x="237" y="552" type="qcurve" smooth="yes"/>
      <point x="223" y="595"/>
      <point x="223" y="731"/>
      <point x="237" y="782" type="qcurve" smooth="yes"/>
      <point x="249" y="818"/>
      <point x="244" y="853"/>
      <point x="226" y="880" type="qcurve" smooth="yes"/>
      <point x="213" y="897"/>
      <point x="183" y="964"/>
      <point x="173" y="996" type="qcurve" smooth="yes"/>
      <point x="162" y="1027"/>
      <point x="123" y="1106"/>
      <point x="104" y="1130" type="qcurve" smooth="yes"/>
      <point x="62" y="1190"/>
      <point x="62" y="1237"/>
      <point x="107" y="1227" type="qcurve" smooth="yes"/>
      <point x="125" y="1224"/>
      <point x="175" y="1201"/>
      <point x="192" y="1190" type="qcurve" smooth="yes"/>
      <point x="208" y="1177"/>
      <point x="258" y="1161"/>
      <point x="276" y="1161" type="qcurve" smooth="yes"/>
      <point x="328" y="1161"/>
      <point x="490" y="1071"/>
      <point x="556" y="1003" type="qcurve" smooth="yes"/>
      <point x="608" y="951"/>
      <point x="677" y="842"/>
      <point x="734" y="731" type="qcurve" smooth="yes"/>
      <point x="798" y="597"/>
      <point x="842" y="539"/>
      <point x="882" y="524" type="qcurve" smooth="yes"/>
      <point x="930" y="508"/>
      <point x="1080" y="418"/>
      <point x="1080" y="403" type="qcurve" smooth="yes"/>
      <point x="1080" y="400"/>
      <point x="1037" y="389"/>
      <point x="1006" y="387" type="qcurve" smooth="yes"/>
      <point x="924" y="378"/>
      <point x="904" y="339"/>
      <point x="958" y="291" type="qcurve" smooth="yes"/>
      <point x="982" y="270"/>
      <point x="1064" y="210"/>
      <point x="1098" y="192" type="qcurve" smooth="yes"/>
      <point x="1180" y="146" type="line"/>
      <point x="1141" y="194" type="line" smooth="yes"/>
      <point x="1125" y="213"/>
      <point x="1067" y="266"/>
      <point x="1040" y="283" type="qcurve" smooth="yes"/>
      <point x="1014" y="299"/>
      <point x="977" y="329"/>
      <point x="977" y="333" type="qcurve" smooth="yes"/>
      <point x="977" y="337"/>
      <point x="1011" y="350"/>
      <point x="1033" y="354" type="qcurve" smooth="yes"/>
      <point x="1095" y="365"/>
      <point x="1138" y="379"/>
      <point x="1138" y="389" type="qcurve" smooth="yes"/>
      <point x="1138" y="407"/>
      <point x="974" y="529"/>
      <point x="921" y="553" type="qcurve" smooth="yes"/>
      <point x="877" y="573"/>
      <point x="835" y="631"/>
      <point x="777" y="750" type="qcurve" smooth="yes"/>
      <point x="726" y="859"/>
      <point x="660" y="958"/>
      <point x="593" y="1024" type="qcurve" smooth="yes"/>
      <point x="510" y="1108"/>
      <point x="381" y="1187"/>
      <point x="307" y="1198" type="qcurve" smooth="yes"/>
      <point x="281" y="1203"/>
      <point x="221" y="1225"/>
      <point x="205" y="1237" type="qcurve" smooth="yes"/>
      <point x="170" y="1264"/>
      <point x="54" y="1280"/>
    </contour>
  </outline>
</glyph>
<glyph name="uniE605" format="2">
  <advance width="1200"/>
  <unicode hex="E705"/>
  <note>
uniE605
</note>
  <outline>
    <contour>
      <point x="600" y="825" type="line"/>
      <point x="722" y="825"/>
      <point x="933" y="866"/>
      <point x="1089" y="937"/>
      <point x="1180" y="1031"/>
      <point x="1180" y="1086" type="qcurve" smooth="yes"/>
      <point x="1180" y="1141"/>
      <point x="1089" y="1237"/>
      <point x="933" y="1307"/>
      <point x="722" y="1347"/>
      <point x="600" y="1347" type="qcurve" smooth="yes"/>
      <point x="478" y="1347"/>
      <point x="267" y="1307"/>
      <point x="111" y="1237"/>
      <point x="20" y="1141"/>
      <point x="20" y="1086" type="qcurve" smooth="yes"/>
      <point x="20" y="1031"/>
      <point x="111" y="937"/>
      <point x="267" y="866"/>
      <point x="478" y="825"/>
      <point x="600" y="825" type="qcurve"/>
    </contour>
    <contour>
      <point x="600" y="1288" type="qcurve"/>
      <point x="600" y="1288" type="line"/>
      <point x="507" y="1288"/>
      <point x="322" y="1259"/>
      <point x="173" y="1206"/>
      <point x="78" y="1130"/>
      <point x="78" y="1086" type="qcurve" smooth="yes"/>
      <point x="78" y="1041"/>
      <point x="173" y="967"/>
      <point x="322" y="912"/>
      <point x="507" y="883"/>
      <point x="600" y="883" type="qcurve" smooth="yes"/>
      <point x="693" y="883"/>
      <point x="878" y="912"/>
      <point x="1027" y="967"/>
      <point x="1122" y="1041"/>
      <point x="1122" y="1086" type="qcurve" smooth="yes"/>
      <point x="1122" y="1130"/>
      <point x="1027" y="1206"/>
      <point x="878" y="1259"/>
      <point x="693" y="1288"/>
    </contour>
    <contour>
      <point x="600" y="593" type="line"/>
      <point x="722" y="593"/>
      <point x="933" y="634"/>
      <point x="1089" y="705"/>
      <point x="1180" y="799"/>
      <point x="1180" y="854" type="qcurve" smooth="yes"/>
      <point x="1180" y="1086" type="line" smooth="yes"/>
      <point x="1180" y="1098"/>
      <point x="1163" y="1115"/>
      <point x="1151" y="1115" type="qcurve" smooth="yes"/>
      <point x="1139" y="1115"/>
      <point x="1122" y="1098"/>
      <point x="1122" y="1086" type="qcurve" smooth="yes"/>
      <point x="1122" y="854" type="line" smooth="yes"/>
      <point x="1122" y="810"/>
      <point x="1027" y="736"/>
      <point x="878" y="681"/>
      <point x="693" y="652"/>
      <point x="600" y="652" type="qcurve" smooth="yes"/>
      <point x="507" y="652"/>
      <point x="322" y="681"/>
      <point x="173" y="736"/>
      <point x="78" y="810"/>
      <point x="78" y="854" type="qcurve" smooth="yes"/>
      <point x="78" y="1086" type="line" smooth="yes"/>
      <point x="78" y="1098"/>
      <point x="61" y="1115"/>
      <point x="49" y="1115" type="qcurve" smooth="yes"/>
      <point x="37" y="1115"/>
      <point x="20" y="1098"/>
      <point x="20" y="1086" type="qcurve" smooth="yes"/>
      <point x="20" y="854" type="line" smooth="yes"/>
      <point x="20" y="799"/>
      <point x="111" y="705"/>
      <point x="267" y="634"/>
      <point x="478" y="593"/>
      <point x="600" y="593" type="qcurve"/>
    </contour>
    <contour>
      <point x="600" y="332" type="line"/>
      <point x="722" y="332"/>
      <point x="933" y="374"/>
      <point x="1089" y="444"/>
      <point x="1180" y="538"/>
      <point x="1180" y="593" type="qcurve" smooth="yes"/>
      <point x="1180" y="854" type="line" smooth="yes"/>
      <point x="1180" y="866"/>
      <point x="1163" y="883"/>
      <point x="1151" y="883" type="qcurve" smooth="yes"/>
      <point x="1139" y="883"/>
      <point x="1122" y="866"/>
      <point x="1122" y="854" type="qcurve" smooth="yes"/>
      <point x="1122" y="593" type="line" smooth="yes"/>
      <point x="1122" y="549"/>
      <point x="1027" y="475"/>
      <point x="878" y="422"/>
      <point x="693" y="391"/>
      <point x="600" y="391" type="qcurve" smooth="yes"/>
      <point x="507" y="391"/>
      <point x="322" y="422"/>
      <point x="173" y="475"/>
      <point x="78" y="549"/>
      <point x="78" y="593" type="qcurve" smooth="yes"/>
      <point x="78" y="854" type="line" smooth="yes"/>
      <point x="78" y="866"/>
      <point x="61" y="883"/>
      <point x="49" y="883" type="qcurve" smooth="yes"/>
      <point x="37" y="883"/>
      <point x="20" y="866"/>
      <point x="20" y="854" type="qcurve" smooth="yes"/>
      <point x="20" y="593" type="line" smooth="yes"/>
      <point x="20" y="538"/>
      <point x="111" y="444"/>
      <point x="267" y="374"/>
      <point x="478" y="332"/>
      <point x="600" y="332" type="qcurve"/>
    </contour>
    <contour>
      <point x="600" y="73" type="line"/>
      <point x="722" y="73"/>
      <point x="933" y="113"/>
      <point x="1089" y="183"/>
      <point x="1180" y="278"/>
      <point x="1180" y="332" type="qcurve" smooth="yes"/>
      <point x="1180" y="593" type="line" smooth="yes"/>
      <point x="1180" y="605"/>
      <point x="1163" y="622"/>
      <point x="1151" y="622" type="qcurve" smooth="yes"/>
      <point x="1139" y="622"/>
      <point x="1122" y="605"/>
      <point x="1122" y="593" type="qcurve" smooth="yes"/>
      <point x="1122" y="332" type="line" smooth="yes"/>
      <point x="1122" y="288"/>
      <point x="1027" y="214"/>
      <point x="878" y="161"/>
      <point x="693" y="130"/>
      <point x="600" y="130" type="qcurve" smooth="yes"/>
      <point x="507" y="130"/>
      <point x="322" y="161"/>
      <point x="173" y="214"/>
      <point x="78" y="288"/>
      <point x="78" y="332" type="qcurve" smooth="yes"/>
      <point x="78" y="593" type="line" smooth="yes"/>
      <point x="78" y="605"/>
      <point x="61" y="622"/>
      <point x="49" y="622" type="qcurve" smooth="yes"/>
      <point x="37" y="622"/>
      <point x="20" y="605"/>
      <point x="20" y="593" type="qcurve" smooth="yes"/>
      <point x="20" y="332" type="line" smooth="yes"/>
      <point x="20" y="278"/>
      <point x="111" y="183"/>
      <point x="267" y="113"/>
      <point x="478" y="73"/>
      <point x="600" y="73" type="qcurve"/>
    </contour>
  </outline>
</glyph>
<glyph name="uniE606" format="2">
  <advance width="1200"/>
  <unicode hex="E706"/>
  <note>
uniE606
</note>
  <outline>
    <contour>
      <point x="600" y="34" type="line"/>
      <point x="720" y="34"/>
      <point x="930" y="64"/>
      <point x="1088" y="117"/>
      <point x="1180" y="186"/>
      <point x="1180" y="228" type="qcurve" smooth="yes"/>
      <point x="1180" y="286"/>
      <point x="1180" y="378"/>
      <point x="1180" y="421" type="qcurve" smooth="yes"/>
      <point x="1180" y="432"/>
      <point x="1167" y="457"/>
      <point x="1159" y="468" type="qcurve"/>
      <point x="1135" y="438"/>
      <point x="1030" y="383"/>
      <point x="883" y="346"/>
      <point x="701" y="323"/>
      <point x="600" y="323" type="qcurve" smooth="yes"/>
      <point x="499" y="323"/>
      <point x="317" y="346"/>
      <point x="170" y="383"/>
      <point x="65" y="438"/>
      <point x="41" y="468" type="qcurve"/>
      <point x="33" y="457"/>
      <point x="20" y="432"/>
      <point x="20" y="421" type="qcurve" smooth="yes"/>
      <point x="20" y="367"/>
      <point x="20" y="271"/>
      <point x="20" y="228" type="qcurve" smooth="yes"/>
      <point x="20" y="186"/>
      <point x="112" y="117"/>
      <point x="270" y="64"/>
      <point x="480" y="34"/>
      <point x="600" y="34" type="qcurve"/>
    </contour>
    <contour>
      <point x="600" y="421" type="line"/>
      <point x="720" y="421"/>
      <point x="930" y="451"/>
      <point x="1088" y="504"/>
      <point x="1180" y="573"/>
      <point x="1180" y="612" type="qcurve" smooth="yes"/>
      <point x="1180" y="672"/>
      <point x="1180" y="764"/>
      <point x="1180" y="806" type="qcurve" smooth="yes"/>
      <point x="1180" y="813"/>
      <point x="1174" y="828"/>
      <point x="1171" y="836" type="qcurve"/>
      <point x="1171" y="836" type="line"/>
      <point x="1169" y="841"/>
      <point x="1161" y="851"/>
      <point x="1159" y="855" type="qcurve"/>
      <point x="1135" y="823"/>
      <point x="1030" y="770"/>
      <point x="883" y="733"/>
      <point x="701" y="710"/>
      <point x="600" y="710" type="qcurve" smooth="yes"/>
      <point x="499" y="710"/>
      <point x="317" y="733"/>
      <point x="170" y="770"/>
      <point x="65" y="823"/>
      <point x="41" y="855" type="qcurve"/>
      <point x="39" y="851"/>
      <point x="31" y="841"/>
      <point x="29" y="836" type="qcurve"/>
      <point x="29" y="836" type="line"/>
      <point x="26" y="828"/>
      <point x="20" y="813"/>
      <point x="20" y="806" type="qcurve" smooth="yes"/>
      <point x="20" y="753"/>
      <point x="20" y="657"/>
      <point x="20" y="612" type="qcurve" smooth="yes"/>
      <point x="20" y="573"/>
      <point x="112" y="504"/>
      <point x="270" y="451"/>
      <point x="480" y="421"/>
      <point x="600" y="421" type="qcurve"/>
    </contour>
    <contour>
      <point x="600" y="806" type="line"/>
      <point x="720" y="806"/>
      <point x="930" y="836"/>
      <point x="1088" y="888"/>
      <point x="1180" y="960"/>
      <point x="1180" y="999" type="qcurve" smooth="yes"/>
      <point x="1180" y="1025"/>
      <point x="1180" y="1074"/>
      <point x="1180" y="1097" type="qcurve" smooth="yes"/>
      <point x="1180" y="1121"/>
      <point x="1180" y="1170"/>
      <point x="1180" y="1192" type="qcurve" smooth="yes"/>
      <point x="1180" y="1232"/>
      <point x="1088" y="1303"/>
      <point x="930" y="1356"/>
      <point x="720" y="1386"/>
      <point x="600" y="1386" type="qcurve" smooth="yes"/>
      <point x="480" y="1386"/>
      <point x="270" y="1356"/>
      <point x="112" y="1303"/>
      <point x="20" y="1232"/>
      <point x="20" y="1192" type="qcurve" smooth="yes"/>
      <point x="20" y="1166"/>
      <point x="20" y="1119"/>
      <point x="20" y="1097" type="qcurve" smooth="yes"/>
      <point x="20" y="1070"/>
      <point x="20" y="1022"/>
      <point x="20" y="999" type="qcurve" smooth="yes"/>
      <point x="20" y="960"/>
      <point x="112" y="888"/>
      <point x="270" y="836"/>
      <point x="480" y="806"/>
      <point x="600" y="806" type="qcurve"/>
    </contour>
    <contour>
      <point x="600" y="1288" type="line"/>
      <point x="760" y="1288"/>
      <point x="987" y="1232"/>
      <point x="987" y="1192" type="qcurve" smooth="yes"/>
      <point x="987" y="1153"/>
      <point x="760" y="1097"/>
      <point x="600" y="1097" type="qcurve" smooth="yes"/>
      <point x="440" y="1097"/>
      <point x="213" y="1153"/>
      <point x="213" y="1192" type="qcurve" smooth="yes"/>
      <point x="213" y="1232"/>
      <point x="440" y="1288"/>
      <point x="600" y="1288" type="qcurve"/>
    </contour>
  </outline>
</glyph>
<glyph name="uniE607" format="2">
  <advance width="1200"/>
  <unicode hex="E707"/>
  <note>
uniE607
</note>
  <outline>
    <contour>
      <point x="256" y="838" type="line"/>
      <point x="20" y="649" type="line"/>
      <point x="361" y="426" type="line"/>
      <point x="600" y="625" type="line"/>
    </contour>
    <contour>
      <point x="600" y="1050" type="line"/>
      <point x="361" y="1249" type="line"/>
      <point x="20" y="1027" type="line"/>
      <point x="256" y="838" type="line"/>
    </contour>
    <contour>
      <point x="944" y="838" type="line"/>
      <point x="1180" y="1027" type="line"/>
      <point x="839" y="1249" type="line"/>
      <point x="600" y="1050" type="line"/>
    </contour>
    <contour>
      <point x="944" y="838" type="line"/>
      <point x="600" y="625" type="line"/>
      <point x="839" y="426" type="line"/>
      <point x="1180" y="649" type="line"/>
    </contour>
    <contour>
      <point x="841" y="384" type="line"/>
      <point x="600" y="583" type="line"/>
      <point x="361" y="384" type="line"/>
      <point x="259" y="452" type="line"/>
      <point x="259" y="376" type="line"/>
      <point x="600" y="171" type="line"/>
      <point x="943" y="376" type="line"/>
      <point x="943" y="452" type="line"/>
    </contour>
  </outline>
</glyph>
<glyph name="uniE608" format="2">
  <advance width="1200"/>
  <unicode hex="E708"/>
  <note>
uniE608
</note>
  <outline>
    <contour>
      <point x="802" y="629" type="line"/>
      <point x="784" y="629"/>
      <point x="755" y="613"/>
      <point x="742" y="597" type="qcurve" smooth="yes"/>
      <point x="731" y="579"/>
      <point x="718" y="539"/>
      <point x="718" y="516" type="qcurve" smooth="yes"/>
      <point x="718" y="492"/>
      <point x="731" y="452"/>
      <point x="742" y="435" type="qcurve" smooth="yes"/>
      <point x="755" y="418"/>
      <point x="784" y="401"/>
      <point x="802" y="401" type="qcurve" smooth="yes"/>
      <point x="818" y="401"/>
      <point x="847" y="418"/>
      <point x="858" y="435" type="qcurve" smooth="yes"/>
      <point x="871" y="452"/>
      <point x="883" y="492"/>
      <point x="883" y="516" type="qcurve" smooth="yes"/>
      <point x="883" y="539"/>
      <point x="871" y="579"/>
      <point x="858" y="597" type="qcurve" smooth="yes"/>
      <point x="847" y="613"/>
      <point x="818" y="629"/>
      <point x="802" y="629" type="qcurve"/>
    </contour>
    <contour>
      <point x="1088" y="925" type="line"/>
      <point x="1093" y="926"/>
      <point x="1093" y="978"/>
      <point x="1088" y="1025" type="qcurve" smooth="yes"/>
      <point x="1085" y="1074"/>
      <point x="1064" y="1162"/>
      <point x="1046" y="1203" type="qcurve"/>
      <point x="1014" y="1195" type="line" smooth="yes"/>
      <point x="997" y="1191"/>
      <point x="946" y="1174"/>
      <point x="909" y="1158" type="qcurve" smooth="yes"/>
      <point x="873" y="1140"/>
      <point x="799" y="1098"/>
      <point x="758" y="1070" type="qcurve"/>
      <point x="732" y="1078"/>
      <point x="653" y="1086"/>
      <point x="600" y="1086" type="qcurve" smooth="yes"/>
      <point x="550" y="1086"/>
      <point x="469" y="1078"/>
      <point x="440" y="1070" type="qcurve"/>
      <point x="354" y="1130"/>
      <point x="211" y="1196"/>
      <point x="152" y="1203" type="qcurve"/>
      <point x="136" y="1162"/>
      <point x="115" y="1074"/>
      <point x="112" y="1025" type="qcurve" smooth="yes"/>
      <point x="107" y="978"/>
      <point x="107" y="926"/>
      <point x="112" y="925" type="qcurve"/>
      <point x="65" y="875"/>
      <point x="20" y="752"/>
      <point x="20" y="679" type="qcurve" smooth="yes"/>
      <point x="20" y="632"/>
      <point x="30" y="548"/>
      <point x="41" y="511" type="qcurve" smooth="yes"/>
      <point x="51" y="474"/>
      <point x="78" y="414"/>
      <point x="94" y="390" type="qcurve" smooth="yes"/>
      <point x="112" y="367"/>
      <point x="151" y="325"/>
      <point x="175" y="309" type="qcurve" smooth="yes"/>
      <point x="199" y="290"/>
      <point x="245" y="264"/>
      <point x="264" y="256" type="qcurve" smooth="yes"/>
      <point x="285" y="248"/>
      <point x="330" y="235"/>
      <point x="356" y="232" type="qcurve" smooth="yes"/>
      <point x="382" y="227"/>
      <point x="421" y="222"/>
      <point x="435" y="220" type="qcurve" smooth="yes"/>
      <point x="448" y="220"/>
      <point x="476" y="220"/>
      <point x="492" y="220" type="qcurve" smooth="yes"/>
      <point x="495" y="220"/>
      <point x="518" y="219"/>
      <point x="537" y="219" type="qcurve" smooth="yes"/>
      <point x="556" y="217"/>
      <point x="587" y="217"/>
      <point x="600" y="217" type="qcurve" smooth="yes"/>
      <point x="613" y="217"/>
      <point x="644" y="217"/>
      <point x="663" y="219" type="qcurve" smooth="yes"/>
      <point x="682" y="219"/>
      <point x="705" y="220"/>
      <point x="708" y="220" type="qcurve" smooth="yes"/>
      <point x="724" y="220"/>
      <point x="752" y="220"/>
      <point x="765" y="220" type="qcurve" smooth="yes"/>
      <point x="779" y="222"/>
      <point x="818" y="227"/>
      <point x="844" y="232" type="qcurve" smooth="yes"/>
      <point x="870" y="237"/>
      <point x="915" y="248"/>
      <point x="936" y="256" type="qcurve" smooth="yes"/>
      <point x="955" y="266"/>
      <point x="1001" y="290"/>
      <point x="1025" y="309" type="qcurve" smooth="yes"/>
      <point x="1049" y="325"/>
      <point x="1088" y="367"/>
      <point x="1106" y="390" type="qcurve" smooth="yes"/>
      <point x="1122" y="414"/>
      <point x="1149" y="474"/>
      <point x="1159" y="511" type="qcurve" smooth="yes"/>
      <point x="1170" y="548"/>
      <point x="1180" y="632"/>
      <point x="1180" y="679" type="qcurve" smooth="yes"/>
      <point x="1180" y="752"/>
      <point x="1133" y="875"/>
      <point x="1088" y="925" type="qcurve"/>
    </contour>
    <contour>
      <point x="597" y="275" type="line" smooth="yes"/>
      <point x="492" y="275"/>
      <point x="335" y="301"/>
      <point x="282" y="325" type="qcurve" smooth="yes"/>
      <point x="228" y="351"/>
      <point x="175" y="455"/>
      <point x="175" y="534" type="qcurve" smooth="yes"/>
      <point x="175" y="581"/>
      <point x="209" y="655"/>
      <point x="241" y="684" type="qcurve" smooth="yes"/>
      <point x="256" y="697"/>
      <point x="291" y="715"/>
      <point x="312" y="720" type="qcurve" smooth="yes"/>
      <point x="333" y="725"/>
      <point x="374" y="729"/>
      <point x="392" y="729" type="qcurve" smooth="yes"/>
      <point x="409" y="728"/>
      <point x="461" y="725"/>
      <point x="493" y="723" type="qcurve" smooth="yes"/>
      <point x="526" y="720"/>
      <point x="579" y="718"/>
      <point x="603" y="718" type="qcurve" smooth="yes"/>
      <point x="621" y="718"/>
      <point x="686" y="721"/>
      <point x="734" y="725" type="qcurve" smooth="yes"/>
      <point x="783" y="729"/>
      <point x="854" y="729"/>
      <point x="876" y="725" type="qcurve" smooth="yes"/>
      <point x="901" y="721"/>
      <point x="941" y="702"/>
      <point x="959" y="684" type="qcurve" smooth="yes"/>
      <point x="993" y="655"/>
      <point x="1027" y="579"/>
      <point x="1027" y="534" type="qcurve" smooth="yes"/>
      <point x="1027" y="455"/>
      <point x="973" y="351"/>
      <point x="920" y="325" type="qcurve" smooth="yes"/>
      <point x="865" y="301"/>
      <point x="708" y="275"/>
      <point x="603" y="275" type="qcurve" smooth="yes"/>
    </contour>
    <contour>
      <point x="401" y="629" type="line"/>
      <point x="384" y="629"/>
      <point x="353" y="613"/>
      <point x="342" y="597" type="qcurve" smooth="yes"/>
      <point x="329" y="579"/>
      <point x="317" y="539"/>
      <point x="317" y="516" type="qcurve" smooth="yes"/>
      <point x="317" y="492"/>
      <point x="329" y="452"/>
      <point x="342" y="435" type="qcurve" smooth="yes"/>
      <point x="353" y="418"/>
      <point x="384" y="401"/>
      <point x="401" y="401" type="qcurve" smooth="yes"/>
      <point x="417" y="401"/>
      <point x="445" y="418"/>
      <point x="458" y="435" type="qcurve" smooth="yes"/>
      <point x="469" y="452"/>
      <point x="482" y="492"/>
      <point x="482" y="516" type="qcurve" smooth="yes"/>
      <point x="482" y="539"/>
      <point x="469" y="579"/>
      <point x="458" y="597" type="qcurve" smooth="yes"/>
      <point x="445" y="613"/>
      <point x="417" y="629"/>
      <point x="401" y="629" type="qcurve"/>
    </contour>
  </outline>
</glyph>
<glyph name="uniE609" format="2">
  <advance width="1200"/>
  <unicode hex="E709"/>
  <note>
uniE609
</note>
  <outline>
    <contour>
      <point x="600" y="1276" type="qcurve"/>
      <point x="600" y="1276" type="line"/>
      <point x="480" y="1276"/>
      <point x="269" y="1185"/>
      <point x="110" y="1027"/>
      <point x="20" y="815"/>
      <point x="20" y="696" type="qcurve" smooth="yes"/>
      <point x="20" y="601"/>
      <point x="80" y="426"/>
      <point x="185" y="281"/>
      <point x="330" y="174"/>
      <point x="417" y="145" type="qcurve"/>
      <point x="438" y="142"/>
      <point x="456" y="163"/>
      <point x="456" y="174" type="qcurve" smooth="yes"/>
      <point x="456" y="184"/>
      <point x="456" y="245"/>
      <point x="456" y="281" type="qcurve"/>
      <point x="335" y="255"/>
      <point x="261" y="350"/>
      <point x="261" y="350" type="qcurve"/>
      <point x="240" y="400"/>
      <point x="196" y="434"/>
      <point x="196" y="434" type="qcurve"/>
      <point x="156" y="462"/>
      <point x="199" y="470"/>
      <point x="199" y="470" type="qcurve"/>
      <point x="243" y="466"/>
      <point x="288" y="410"/>
      <point x="288" y="410" type="qcurve"/>
      <point x="327" y="344"/>
      <point x="432" y="350"/>
      <point x="458" y="361" type="qcurve"/>
      <point x="461" y="391"/>
      <point x="482" y="429"/>
      <point x="493" y="439" type="qcurve"/>
      <point x="398" y="450"/>
      <point x="230" y="560"/>
      <point x="230" y="727" type="qcurve" smooth="yes"/>
      <point x="230" y="773"/>
      <point x="262" y="851"/>
      <point x="290" y="882" type="qcurve"/>
      <point x="285" y="893"/>
      <point x="272" y="975"/>
      <point x="295" y="1035" type="qcurve"/>
      <point x="295" y="1035"/>
      <point x="372" y="1032"/>
      <point x="455" y="975" type="qcurve"/>
      <point x="490" y="985"/>
      <point x="563" y="995"/>
      <point x="600" y="995" type="qcurve" smooth="yes"/>
      <point x="637" y="995"/>
      <point x="710" y="985"/>
      <point x="745" y="975" type="qcurve"/>
      <point x="828" y="1032"/>
      <point x="905" y="1035"/>
      <point x="905" y="1035" type="qcurve"/>
      <point x="928" y="975"/>
      <point x="915" y="893"/>
      <point x="910" y="882" type="qcurve"/>
      <point x="938" y="851"/>
      <point x="970" y="773"/>
      <point x="970" y="727" type="qcurve" smooth="yes"/>
      <point x="970" y="559"/>
      <point x="802" y="450"/>
      <point x="705" y="441" type="qcurve"/>
      <point x="721" y="426"/>
      <point x="744" y="373"/>
      <point x="744" y="332" type="qcurve" smooth="yes"/>
      <point x="744" y="274"/>
      <point x="744" y="187"/>
      <point x="744" y="174" type="qcurve" smooth="yes"/>
      <point x="744" y="161"/>
      <point x="762" y="142"/>
      <point x="784" y="145" type="qcurve"/>
      <point x="870" y="174"/>
      <point x="1015" y="282"/>
      <point x="1120" y="426"/>
      <point x="1180" y="601"/>
      <point x="1180" y="696" type="qcurve" smooth="yes"/>
      <point x="1180" y="815"/>
      <point x="1090" y="1027"/>
      <point x="931" y="1185"/>
      <point x="720" y="1276"/>
    </contour>
  </outline>
</glyph>
<glyph name="uniE60A" format="2">
  <advance width="1200"/>
  <unicode hex="E70A"/>
  <note>
uniE60A
</note>
  <outline>
    <contour>
      <point x="600" y="130" type="line"/>
      <point x="720" y="130"/>
      <point x="931" y="221"/>
      <point x="1089" y="379"/>
      <point x="1180" y="590"/>
      <point x="1180" y="710" type="qcurve" smooth="yes"/>
      <point x="1180" y="830"/>
      <point x="1089" y="1041"/>
      <point x="931" y="1199"/>
      <point x="720" y="1290"/>
      <point x="600" y="1290" type="qcurve" smooth="yes"/>
      <point x="480" y="1290"/>
      <point x="269" y="1199"/>
      <point x="111" y="1041"/>
      <point x="20" y="830"/>
      <point x="20" y="710" type="qcurve" smooth="yes"/>
      <point x="20" y="590"/>
      <point x="111" y="379"/>
      <point x="269" y="221"/>
      <point x="480" y="130"/>
      <point x="600" y="130" type="qcurve"/>
    </contour>
    <contour>
      <point x="600" y="1162" type="line"/>
      <point x="693" y="1162"/>
      <point x="858" y="1090"/>
      <point x="980" y="967"/>
      <point x="1052" y="803"/>
      <point x="1052" y="710" type="qcurve" smooth="yes"/>
      <point x="1052" y="616"/>
      <point x="980" y="452"/>
      <point x="858" y="330"/>
      <point x="693" y="258"/>
      <point x="600" y="258" type="qcurve" smooth="yes"/>
      <point x="507" y="258"/>
      <point x="342" y="330"/>
      <point x="220" y="452"/>
      <point x="148" y="616"/>
      <point x="148" y="710" type="qcurve" smooth="yes"/>
      <point x="148" y="803"/>
      <point x="220" y="967"/>
      <point x="342" y="1090"/>
      <point x="507" y="1162"/>
      <point x="600" y="1162" type="qcurve"/>
    </contour>
    <contour>
      <point x="701" y="669" type="line"/>
      <point x="693" y="669"/>
      <point x="676" y="661"/>
      <point x="671" y="653" type="qcurve" smooth="yes"/>
      <point x="665" y="645"/>
      <point x="658" y="626"/>
      <point x="658" y="613" type="qcurve" smooth="yes"/>
      <point x="658" y="601"/>
      <point x="665" y="580"/>
      <point x="671" y="572" type="qcurve" smooth="yes"/>
      <point x="676" y="564"/>
      <point x="693" y="556"/>
      <point x="701" y="556" type="qcurve" smooth="yes"/>
      <point x="709" y="556"/>
      <point x="723" y="564"/>
      <point x="730" y="572" type="qcurve" smooth="yes"/>
      <point x="735" y="580"/>
      <point x="741" y="601"/>
      <point x="741" y="613" type="qcurve" smooth="yes"/>
      <point x="741" y="624"/>
      <point x="735" y="645"/>
      <point x="730" y="653" type="qcurve" smooth="yes"/>
      <point x="723" y="661"/>
      <point x="709" y="669"/>
      <point x="701" y="669" type="qcurve"/>
    </contour>
    <contour>
      <point x="844" y="817" type="line"/>
      <point x="845" y="819"/>
      <point x="845" y="843"/>
      <point x="844" y="868" type="qcurve" smooth="yes"/>
      <point x="842" y="892"/>
      <point x="831" y="936"/>
      <point x="823" y="955" type="qcurve"/>
      <point x="806" y="952" type="line" smooth="yes"/>
      <point x="798" y="950"/>
      <point x="772" y="941"/>
      <point x="754" y="933" type="qcurve" smooth="yes"/>
      <point x="736" y="924"/>
      <point x="699" y="903"/>
      <point x="680" y="890" type="qcurve"/>
      <point x="667" y="894"/>
      <point x="626" y="898"/>
      <point x="600" y="898" type="qcurve" smooth="yes"/>
      <point x="574" y="898"/>
      <point x="535" y="894"/>
      <point x="520" y="890" type="qcurve"/>
      <point x="478" y="920"/>
      <point x="407" y="952"/>
      <point x="377" y="955" type="qcurve"/>
      <point x="369" y="936"/>
      <point x="358" y="892"/>
      <point x="356" y="868" type="qcurve" smooth="yes"/>
      <point x="355" y="843"/>
      <point x="355" y="819"/>
      <point x="356" y="817" type="qcurve"/>
      <point x="334" y="791"/>
      <point x="309" y="731"/>
      <point x="309" y="695" type="qcurve" smooth="yes"/>
      <point x="309" y="671"/>
      <point x="316" y="629"/>
      <point x="321" y="611" type="qcurve" smooth="yes"/>
      <point x="325" y="593"/>
      <point x="340" y="562"/>
      <point x="348" y="551" type="qcurve" smooth="yes"/>
      <point x="356" y="539"/>
      <point x="376" y="518"/>
      <point x="389" y="510" type="qcurve" smooth="yes"/>
      <point x="400" y="500"/>
      <point x="423" y="487"/>
      <point x="433" y="484" type="qcurve" smooth="yes"/>
      <point x="442" y="479"/>
      <point x="465" y="473"/>
      <point x="478" y="471" type="qcurve" smooth="yes"/>
      <point x="491" y="468"/>
      <point x="511" y="466"/>
      <point x="517" y="466" type="qcurve" smooth="yes"/>
      <point x="524" y="465"/>
      <point x="538" y="465"/>
      <point x="546" y="465" type="qcurve" smooth="yes"/>
      <point x="548" y="465"/>
      <point x="559" y="465"/>
      <point x="569" y="465" type="qcurve" smooth="yes"/>
      <point x="577" y="465"/>
      <point x="594" y="463"/>
      <point x="600" y="463" type="qcurve" smooth="yes"/>
      <point x="606" y="463"/>
      <point x="623" y="465"/>
      <point x="631" y="465" type="qcurve" smooth="yes"/>
      <point x="641" y="465"/>
      <point x="652" y="465"/>
      <point x="654" y="465" type="qcurve" smooth="yes"/>
      <point x="662" y="465"/>
      <point x="676" y="466"/>
      <point x="683" y="466" type="qcurve" smooth="yes"/>
      <point x="689" y="466"/>
      <point x="709" y="468"/>
      <point x="722" y="471" type="qcurve" smooth="yes"/>
      <point x="735" y="473"/>
      <point x="758" y="479"/>
      <point x="767" y="484" type="qcurve" smooth="yes"/>
      <point x="777" y="487"/>
      <point x="800" y="500"/>
      <point x="811" y="510" type="qcurve" smooth="yes"/>
      <point x="824" y="518"/>
      <point x="844" y="538"/>
      <point x="852" y="551" type="qcurve" smooth="yes"/>
      <point x="860" y="562"/>
      <point x="875" y="593"/>
      <point x="879" y="611" type="qcurve" smooth="yes"/>
      <point x="884" y="629"/>
      <point x="889" y="671"/>
      <point x="889" y="695" type="qcurve" smooth="yes"/>
      <point x="889" y="731"/>
      <point x="866" y="791"/>
      <point x="844" y="817" type="qcurve"/>
    </contour>
    <contour>
      <point x="598" y="492" type="qcurve" smooth="yes"/>
      <point x="602" y="492" type="line" smooth="yes"/>
      <point x="654" y="492"/>
      <point x="733" y="505"/>
      <point x="759" y="518" type="qcurve" smooth="yes"/>
      <point x="787" y="531"/>
      <point x="813" y="582"/>
      <point x="813" y="622" type="qcurve" smooth="yes"/>
      <point x="813" y="643"/>
      <point x="797" y="682"/>
      <point x="779" y="697" type="qcurve" smooth="yes"/>
      <point x="771" y="705"/>
      <point x="749" y="715"/>
      <point x="738" y="718" type="qcurve" smooth="yes"/>
      <point x="727" y="720"/>
      <point x="691" y="720"/>
      <point x="667" y="718" type="qcurve" smooth="yes"/>
      <point x="642" y="715"/>
      <point x="610" y="713"/>
      <point x="602" y="713" type="qcurve" smooth="yes"/>
      <point x="589" y="713"/>
      <point x="563" y="715"/>
      <point x="546" y="716" type="qcurve" smooth="yes"/>
      <point x="530" y="718"/>
      <point x="506" y="718"/>
      <point x="496" y="720" type="qcurve" smooth="yes"/>
      <point x="486" y="720"/>
      <point x="467" y="718"/>
      <point x="457" y="715" type="qcurve" smooth="yes"/>
      <point x="446" y="712"/>
      <point x="428" y="704"/>
      <point x="421" y="697" type="qcurve" smooth="yes"/>
      <point x="405" y="682"/>
      <point x="389" y="645"/>
      <point x="389" y="622" type="qcurve" smooth="yes"/>
      <point x="389" y="583"/>
      <point x="415" y="531"/>
      <point x="441" y="518" type="qcurve" smooth="yes"/>
      <point x="467" y="505"/>
      <point x="546" y="492"/>
    </contour>
    <contour>
      <point x="501" y="669" type="line"/>
      <point x="491" y="669"/>
      <point x="477" y="661"/>
      <point x="470" y="653" type="qcurve" smooth="yes"/>
      <point x="465" y="645"/>
      <point x="459" y="626"/>
      <point x="459" y="613" type="qcurve" smooth="yes"/>
      <point x="459" y="601"/>
      <point x="465" y="580"/>
      <point x="470" y="572" type="qcurve" smooth="yes"/>
      <point x="477" y="564"/>
      <point x="491" y="556"/>
      <point x="501" y="556" type="qcurve" smooth="yes"/>
      <point x="509" y="556"/>
      <point x="522" y="564"/>
      <point x="529" y="572" type="qcurve" smooth="yes"/>
      <point x="535" y="580"/>
      <point x="542" y="601"/>
      <point x="542" y="613" type="qcurve" smooth="yes"/>
      <point x="542" y="624"/>
      <point x="535" y="645"/>
      <point x="529" y="653" type="qcurve" smooth="yes"/>
      <point x="522" y="661"/>
      <point x="509" y="669"/>
      <point x="501" y="669" type="qcurve"/>
    </contour>
  </outline>
</glyph>
<glyph name="uniE60B" format="2">
  <advance width="1200"/>
  <unicode hex="E70B"/>
  <note>
uniE60B
</note>
  <outline>
    <contour>
      <point x="20" y="709" type="qcurve"/>
      <point x="20" y="709" type="line"/>
      <point x="20" y="624"/>
      <point x="68" y="465"/>
      <point x="153" y="331"/>
      <point x="273" y="223"/>
      <point x="347" y="188" type="qcurve"/>
      <point x="70" y="947" type="line"/>
      <point x="46" y="892"/>
      <point x="20" y="773"/>
    </contour>
    <contour>
      <point x="992" y="740" type="qcurve"/>
      <point x="992" y="740" type="line"/>
      <point x="992" y="793"/>
      <point x="960" y="870"/>
      <point x="944" y="899" type="qcurve" smooth="yes"/>
      <point x="922" y="935"/>
      <point x="886" y="1000"/>
      <point x="886" y="1035" type="qcurve" smooth="yes"/>
      <point x="886" y="1075"/>
      <point x="941" y="1138"/>
      <point x="984" y="1138" type="qcurve" smooth="yes"/>
      <point x="986" y="1138"/>
      <point x="991" y="1138"/>
      <point x="992" y="1138" type="qcurve"/>
      <point x="915" y="1208"/>
      <point x="713" y="1290"/>
      <point x="601" y="1290" type="qcurve" smooth="yes"/>
      <point x="524" y="1290"/>
      <point x="383" y="1253"/>
      <point x="259" y="1184"/>
      <point x="155" y="1088"/>
      <point x="115" y="1028" type="qcurve"/>
      <point x="126" y="1028"/>
      <point x="144" y="1028"/>
      <point x="153" y="1028" type="qcurve" smooth="yes"/>
      <point x="198" y="1028"/>
      <point x="307" y="1035"/>
      <point x="307" y="1035" type="qcurve"/>
      <point x="331" y="1037"/>
      <point x="334" y="990"/>
      <point x="310" y="987" type="qcurve"/>
      <point x="310" y="987"/>
      <point x="270" y="984"/>
      <point x="245" y="982" type="qcurve"/>
      <point x="456" y="353" type="line"/>
      <point x="583" y="735" type="line"/>
      <point x="492" y="982" type="line"/>
      <point x="469" y="984"/>
      <point x="431" y="987"/>
      <point x="431" y="987" type="qcurve"/>
      <point x="408" y="988"/>
      <point x="411" y="1037"/>
      <point x="436" y="1035" type="qcurve"/>
      <point x="436" y="1035"/>
      <point x="545" y="1028"/>
      <point x="588" y="1028" type="qcurve" smooth="yes"/>
      <point x="633" y="1028"/>
      <point x="742" y="1035"/>
      <point x="742" y="1035" type="qcurve"/>
      <point x="766" y="1037"/>
      <point x="769" y="990"/>
      <point x="747" y="987" type="qcurve"/>
      <point x="747" y="987"/>
      <point x="707" y="984"/>
      <point x="679" y="982" type="qcurve"/>
      <point x="890" y="358" type="line"/>
      <point x="947" y="552" type="line"/>
      <point x="970" y="608"/>
      <point x="992" y="701"/>
    </contour>
    <contour>
      <point x="610" y="659" type="line"/>
      <point x="610" y="659" type="line"/>
      <point x="436" y="152" type="line"/>
      <point x="476" y="141"/>
      <point x="557" y="130"/>
      <point x="601" y="130" type="qcurve" smooth="yes"/>
      <point x="651" y="130"/>
      <point x="747" y="146"/>
      <point x="793" y="162" type="qcurve"/>
      <point x="792" y="164"/>
      <point x="790" y="169"/>
      <point x="789" y="170" type="qcurve"/>
    </contour>
    <contour>
      <point x="1109" y="988" type="qcurve"/>
      <point x="1109" y="988" type="line"/>
      <point x="1111" y="974"/>
      <point x="1113" y="945"/>
      <point x="1113" y="929" type="qcurve" smooth="yes"/>
      <point x="1113" y="884"/>
      <point x="1093" y="783"/>
      <point x="1069" y="720" type="qcurve" smooth="yes"/>
      <point x="891" y="209" type="line"/>
      <point x="957" y="246"/>
      <point x="1063" y="351"/>
      <point x="1138" y="481"/>
      <point x="1180" y="629"/>
      <point x="1180" y="709" type="qcurve" smooth="yes"/>
      <point x="1180" y="786"/>
      <point x="1143" y="926"/>
    </contour>
  </outline>
</glyph>
<glyph name="uniE60C" format="2">
  <advance width="1200"/>
  <unicode hex="E70C"/>
  <note>
uniE60C
</note>
  <outline>
    <contour>
      <point x="667" y="1063" type="line"/>
      <point x="667" y="1063" type="line"/>
      <point x="574" y="969"/>
      <point x="435" y="835"/>
      <point x="431" y="835" type="qcurve" smooth="yes"/>
      <point x="428" y="835"/>
      <point x="338" y="901"/>
      <point x="279" y="948" type="qcurve" smooth="yes"/>
      <point x="136" y="1060" type="line"/>
      <point x="20" y="1001" type="line"/>
      <point x="20" y="419" type="line"/>
      <point x="136" y="361" type="line"/>
      <point x="269" y="464" type="line" smooth="yes"/>
      <point x="324" y="508"/>
      <point x="412" y="575"/>
      <point x="418" y="578" type="qcurve" smooth="yes"/>
      <point x="431" y="586"/>
      <point x="505" y="520"/>
      <point x="667" y="360" type="qcurve" smooth="yes"/>
      <point x="897" y="128" type="line"/>
      <point x="1039" y="186" type="line"/>
      <point x="1180" y="242" type="line"/>
      <point x="1180" y="1178" type="line"/>
      <point x="1072" y="1221" type="line" smooth="yes"/>
      <point x="1027" y="1239"/>
      <point x="944" y="1272"/>
      <point x="929" y="1277" type="qcurve" smooth="yes"/>
      <point x="896" y="1292" type="line"/>
    </contour>
    <contour>
      <point x="894" y="710" type="qcurve"/>
      <point x="894" y="710" type="line"/>
      <point x="894" y="614"/>
      <point x="891" y="477"/>
      <point x="888" y="477" type="qcurve" smooth="yes"/>
      <point x="884" y="477"/>
      <point x="791" y="549"/>
      <point x="684" y="636"/>
      <point x="595" y="710"/>
      <point x="597" y="713" type="qcurve"/>
      <point x="597" y="716"/>
      <point x="685" y="789"/>
      <point x="793" y="874"/>
      <point x="884" y="943"/>
      <point x="888" y="943" type="qcurve" smooth="yes"/>
      <point x="891" y="943"/>
      <point x="894" y="806"/>
    </contour>
    <contour>
      <point x="232" y="794" type="qcurve"/>
      <point x="232" y="794" type="line"/>
      <point x="316" y="710" type="line"/>
      <point x="232" y="626" type="line" smooth="yes"/>
      <point x="197" y="593"/>
      <point x="145" y="545"/>
      <point x="142" y="545" type="qcurve" smooth="yes"/>
      <point x="139" y="545"/>
      <point x="136" y="641"/>
      <point x="136" y="710" type="qcurve" smooth="yes"/>
      <point x="136" y="779"/>
      <point x="139" y="877"/>
      <point x="142" y="877" type="qcurve" smooth="yes"/>
      <point x="145" y="877"/>
      <point x="197" y="827"/>
    </contour>
  </outline>
</glyph>
<glyph name="uniE60D" format="2">
  <advance width="1200"/>
  <unicode hex="E70D"/>
  <note>
uniE60D
</note>
  <outline>
    <contour>
      <point x="301" y="452" type="qcurve"/>
      <point x="214" y="166" type="line"/>
      <point x="209" y="107"/>
      <point x="266" y="22"/>
      <point x="324" y="5" type="qcurve" smooth="yes"/>
      <point x="371" y="-8"/>
      <point x="468" y="32"/>
      <point x="490" y="74" type="qcurve" smooth="yes"/>
      <point x="497" y="87"/>
      <point x="629" y="429"/>
      <point x="716" y="658" type="qcurve" smooth="yes"/>
      <point x="862" y="1045"/>
      <point x="937" y="1224"/>
      <point x="957" y="1244" type="qcurve" smooth="yes"/>
      <point x="969" y="1259"/>
      <point x="986" y="1281"/>
      <point x="986" y="1284" type="qcurve" smooth="yes"/>
      <point x="986" y="1286"/>
      <point x="969" y="1308"/>
      <point x="957" y="1321" type="qcurve" smooth="yes"/>
      <point x="905" y="1368"/>
      <point x="706" y="1430"/>
      <point x="654" y="1415" type="qcurve"/>
      <point x="646" y="1415"/>
      <point x="641" y="1395"/>
      <point x="641" y="1370" type="qcurve" smooth="yes"/>
      <point x="641" y="1336"/>
      <point x="621" y="1271"/>
      <point x="589" y="1184" type="qcurve" smooth="yes"/>
      <point x="579" y="1159"/>
      <point x="552" y="1085"/>
      <point x="542" y="1058" type="qcurve" smooth="yes"/>
      <point x="532" y="1028"/>
      <point x="507" y="961"/>
      <point x="497" y="941" type="qcurve" smooth="yes"/>
      <point x="487" y="919"/>
      <point x="455" y="837"/>
      <point x="443" y="799" type="qcurve" smooth="yes"/>
      <point x="428" y="762"/>
      <point x="381" y="640"/>
      <point x="363" y="591" type="qcurve" smooth="yes"/>
      <point x="343" y="541"/>
      <point x="309" y="459"/>
    </contour>
    <contour>
      <point x="825" y="1370" type="qcurve"/>
      <point x="825" y="1370" type="line"/>
      <point x="882" y="1348"/>
      <point x="932" y="1298"/>
      <point x="910" y="1289" type="qcurve" smooth="yes"/>
      <point x="887" y="1281"/>
      <point x="736" y="1336"/>
      <point x="708" y="1361" type="qcurve" smooth="yes"/>
      <point x="698" y="1370"/>
      <point x="696" y="1383"/>
      <point x="701" y="1390" type="qcurve" smooth="yes"/>
      <point x="711" y="1400"/>
      <point x="780" y="1390"/>
    </contour>
    <contour>
      <point x="701" y="1276" type="qcurve"/>
      <point x="701" y="1276" type="line"/>
      <point x="721" y="1254"/>
      <point x="798" y="1226"/>
      <point x="842" y="1224" type="qcurve" smooth="yes"/>
      <point x="865" y="1224"/>
      <point x="897" y="1221"/>
      <point x="897" y="1219" type="qcurve"/>
      <point x="897" y="1219"/>
      <point x="890" y="1207"/>
      <point x="885" y="1202" type="qcurve"/>
      <point x="882" y="1194"/>
      <point x="847" y="1115"/>
      <point x="830" y="1065" type="qcurve" smooth="yes"/>
      <point x="800" y="991"/>
      <point x="773" y="938"/>
      <point x="753" y="919" type="qcurve" smooth="yes"/>
      <point x="723" y="891"/>
      <point x="634" y="842"/>
      <point x="599" y="834" type="qcurve" smooth="yes"/>
      <point x="584" y="829"/>
      <point x="542" y="817"/>
      <point x="530" y="809" type="qcurve"/>
      <point x="515" y="804"/>
      <point x="492" y="797"/>
      <point x="490" y="797" type="qcurve" smooth="yes"/>
      <point x="485" y="797"/>
      <point x="522" y="906"/>
      <point x="577" y="1045" type="qcurve" smooth="yes"/>
      <point x="594" y="1090"/>
      <point x="634" y="1197"/>
      <point x="646" y="1224" type="qcurve" smooth="yes"/>
      <point x="656" y="1254"/>
      <point x="676" y="1293"/>
      <point x="679" y="1293" type="qcurve" smooth="yes"/>
      <point x="681" y="1293"/>
      <point x="693" y="1284"/>
    </contour>
    <contour>
      <point x="765" y="896" type="qcurve"/>
      <point x="765" y="896" type="line"/>
      <point x="765" y="894"/>
      <point x="674" y="655"/>
      <point x="612" y="491" type="qcurve" smooth="yes"/>
      <point x="510" y="226"/>
      <point x="450" y="84"/>
      <point x="433" y="69" type="qcurve" smooth="yes"/>
      <point x="423" y="59"/>
      <point x="400" y="45"/>
      <point x="396" y="45" type="qcurve" smooth="yes"/>
      <point x="388" y="45"/>
      <point x="393" y="49"/>
      <point x="403" y="52" type="qcurve"/>
      <point x="410" y="57"/>
      <point x="423" y="67"/>
      <point x="423" y="74" type="qcurve" smooth="yes"/>
      <point x="423" y="79"/>
      <point x="425" y="89"/>
      <point x="430" y="92" type="qcurve" smooth="yes"/>
      <point x="433" y="94"/>
      <point x="440" y="112"/>
      <point x="443" y="121" type="qcurve" smooth="yes"/>
      <point x="443" y="131"/>
      <point x="450" y="151"/>
      <point x="453" y="156" type="qcurve" smooth="yes"/>
      <point x="460" y="171"/>
      <point x="497" y="268"/>
      <point x="497" y="273" type="qcurve" smooth="yes"/>
      <point x="497" y="275"/>
      <point x="505" y="293"/>
      <point x="507" y="303" type="qcurve" smooth="yes"/>
      <point x="512" y="313"/>
      <point x="537" y="375"/>
      <point x="549" y="410" type="qcurve" smooth="yes"/>
      <point x="564" y="444"/>
      <point x="592" y="516"/>
      <point x="597" y="534" type="qcurve" smooth="yes"/>
      <point x="604" y="551"/>
      <point x="617" y="578"/>
      <point x="619" y="581" type="qcurve" smooth="yes"/>
      <point x="621" y="586"/>
      <point x="626" y="598"/>
      <point x="626" y="603" type="qcurve" smooth="yes"/>
      <point x="626" y="608"/>
      <point x="631" y="633"/>
      <point x="636" y="643" type="qcurve" smooth="yes"/>
      <point x="654" y="680"/>
      <point x="674" y="727"/>
      <point x="681" y="755" type="qcurve" smooth="yes"/>
      <point x="689" y="772"/>
      <point x="698" y="799"/>
      <point x="701" y="807" type="qcurve"/>
      <point x="708" y="817"/>
      <point x="708" y="842"/>
      <point x="706" y="842" type="qcurve" smooth="yes"/>
      <point x="703" y="842"/>
      <point x="689" y="834"/>
      <point x="681" y="829" type="qcurve" smooth="yes"/>
      <point x="666" y="822"/>
      <point x="666" y="824"/>
      <point x="681" y="834" type="qcurve" smooth="yes"/>
      <point x="691" y="842"/>
      <point x="721" y="866"/>
      <point x="731" y="876" type="qcurve" smooth="yes"/>
      <point x="748" y="894"/>
      <point x="773" y="906"/>
    </contour>
    <contour>
      <point x="557" y="789" type="qcurve"/>
      <point x="557" y="789" type="line"/>
      <point x="557" y="787"/>
      <point x="552" y="782"/>
      <point x="547" y="782" type="qcurve" smooth="yes"/>
      <point x="535" y="782"/>
      <point x="510" y="725"/>
      <point x="510" y="700" type="qcurve"/>
      <point x="512" y="690"/>
      <point x="507" y="675"/>
      <point x="505" y="675" type="qcurve" smooth="yes"/>
      <point x="495" y="675"/>
      <point x="465" y="603"/>
      <point x="463" y="573" type="qcurve" smooth="yes"/>
      <point x="460" y="549"/>
      <point x="463" y="531"/>
      <point x="472" y="526" type="qcurve" smooth="yes"/>
      <point x="487" y="519"/>
      <point x="495" y="486"/>
      <point x="485" y="474" type="qcurve" smooth="yes"/>
      <point x="477" y="462"/>
      <point x="440" y="457"/>
      <point x="433" y="464" type="qcurve"/>
      <point x="425" y="479"/>
      <point x="415" y="464"/>
      <point x="418" y="444" type="qcurve" smooth="yes"/>
      <point x="420" y="424"/>
      <point x="418" y="412"/>
      <point x="405" y="407" type="qcurve" smooth="yes"/>
      <point x="396" y="402"/>
      <point x="381" y="380"/>
      <point x="373" y="362" type="qcurve" smooth="yes"/>
      <point x="353" y="308"/>
      <point x="319" y="218"/>
      <point x="309" y="191" type="qcurve" smooth="yes"/>
      <point x="304" y="176"/>
      <point x="291" y="131"/>
      <point x="289" y="117" type="qcurve" smooth="yes"/>
      <point x="286" y="94"/>
      <point x="291" y="74"/>
      <point x="304" y="62" type="qcurve" smooth="yes"/>
      <point x="321" y="40" type="line"/>
      <point x="296" y="57" type="line" smooth="yes"/>
      <point x="279" y="69"/>
      <point x="242" y="134"/>
      <point x="242" y="156" type="qcurve" smooth="yes"/>
      <point x="242" y="161"/>
      <point x="271" y="248"/>
      <point x="291" y="303" type="qcurve" smooth="yes"/>
      <point x="311" y="357"/>
      <point x="338" y="442"/>
      <point x="338" y="444" type="qcurve" smooth="yes"/>
      <point x="338" y="449"/>
      <point x="371" y="486"/>
      <point x="393" y="509" type="qcurve" smooth="yes"/>
      <point x="415" y="531"/>
      <point x="443" y="563"/>
      <point x="438" y="563" type="qcurve" smooth="yes"/>
      <point x="433" y="563"/>
      <point x="413" y="549"/>
      <point x="403" y="539" type="qcurve" smooth="yes"/>
      <point x="393" y="529"/>
      <point x="378" y="521"/>
      <point x="378" y="524" type="qcurve" smooth="yes"/>
      <point x="378" y="541"/>
      <point x="453" y="717"/>
      <point x="465" y="732" type="qcurve" smooth="yes"/>
      <point x="477" y="745"/>
      <point x="549" y="797"/>
      <point x="557" y="797" type="qcurve"/>
      <point x="557" y="797"/>
      <point x="557" y="792"/>
    </contour>
  </outline>
</glyph>
<glyph name="uniE60E" format="2">
  <advance width="1200"/>
  <unicode hex="E70E"/>
  <note>
uniE60E
</note>
  <outline>
    <contour>
      <point x="190" y="532" type="line"/>
      <point x="190" y="858" type="line" smooth="yes"/>
      <point x="190" y="900"/>
      <point x="140" y="958"/>
      <point x="105" y="958" type="qcurve" smooth="yes"/>
      <point x="70" y="958"/>
      <point x="20" y="900"/>
      <point x="20" y="858" type="qcurve" smooth="yes"/>
      <point x="20" y="532" type="line" smooth="yes"/>
      <point x="20" y="490"/>
      <point x="70" y="431"/>
      <point x="105" y="431" type="qcurve" smooth="yes"/>
      <point x="140" y="431"/>
      <point x="190" y="490"/>
      <point x="190" y="532" type="qcurve"/>
    </contour>
    <contour>
      <point x="1180" y="532" type="line"/>
      <point x="1180" y="858" type="line" smooth="yes"/>
      <point x="1180" y="900"/>
      <point x="1130" y="958"/>
      <point x="1095" y="958" type="qcurve" smooth="yes"/>
      <point x="1060" y="958"/>
      <point x="1010" y="900"/>
      <point x="1010" y="858" type="qcurve" smooth="yes"/>
      <point x="1010" y="532" type="line" smooth="yes"/>
      <point x="1010" y="490"/>
      <point x="1060" y="431"/>
      <point x="1095" y="431" type="qcurve" smooth="yes"/>
      <point x="1130" y="431"/>
      <point x="1180" y="490"/>
      <point x="1180" y="532" type="qcurve"/>
    </contour>
    <contour>
      <point x="785" y="1273" type="qcurve"/>
      <point x="785" y="1273" type="line"/>
      <point x="840" y="1371" type="line" smooth="yes"/>
      <point x="844" y="1378"/>
      <point x="843" y="1389"/>
      <point x="837" y="1392" type="qcurve" smooth="yes"/>
      <point x="833" y="1395"/>
      <point x="822" y="1389"/>
      <point x="819" y="1383" type="qcurve" smooth="yes"/>
      <point x="763" y="1283" type="line"/>
      <point x="725" y="1298"/>
      <point x="642" y="1314"/>
      <point x="599" y="1314" type="qcurve" smooth="yes"/>
      <point x="554" y="1314"/>
      <point x="470" y="1298"/>
      <point x="433" y="1283" type="qcurve"/>
      <point x="377" y="1383" type="line"/>
      <point x="373" y="1389"/>
      <point x="362" y="1395"/>
      <point x="357" y="1392" type="qcurve" smooth="yes"/>
      <point x="353" y="1389"/>
      <point x="352" y="1378"/>
      <point x="355" y="1371" type="qcurve"/>
      <point x="409" y="1273" type="line"/>
      <point x="324" y="1233"/>
      <point x="218" y="1091"/>
      <point x="218" y="1004" type="qcurve" smooth="yes"/>
      <point x="218" y="994"/>
      <point x="219" y="978"/>
      <point x="221" y="969" type="qcurve"/>
      <point x="975" y="969" type="line"/>
      <point x="976" y="978"/>
      <point x="978" y="994"/>
      <point x="978" y="1004" type="qcurve" smooth="yes"/>
      <point x="978" y="1091"/>
      <point x="872" y="1233"/>
    </contour>
    <contour>
      <point x="426" y="1103" type="qcurve"/>
      <point x="426" y="1103" type="line"/>
      <point x="412" y="1103"/>
      <point x="392" y="1123"/>
      <point x="392" y="1137" type="qcurve" smooth="yes"/>
      <point x="392" y="1149"/>
      <point x="412" y="1169"/>
      <point x="426" y="1169" type="qcurve" smooth="yes"/>
      <point x="440" y="1169"/>
      <point x="459" y="1149"/>
      <point x="459" y="1137" type="qcurve" smooth="yes"/>
      <point x="459" y="1123"/>
      <point x="440" y="1103"/>
    </contour>
    <contour>
      <point x="773" y="1103" type="qcurve"/>
      <point x="773" y="1103" type="line"/>
      <point x="759" y="1103"/>
      <point x="739" y="1123"/>
      <point x="739" y="1137" type="qcurve" smooth="yes"/>
      <point x="739" y="1149"/>
      <point x="759" y="1169"/>
      <point x="773" y="1169" type="qcurve" smooth="yes"/>
      <point x="785" y="1169"/>
      <point x="805" y="1149"/>
      <point x="805" y="1137" type="qcurve" smooth="yes"/>
      <point x="805" y="1123"/>
      <point x="785" y="1103"/>
    </contour>
    <contour>
      <point x="218" y="936" type="line"/>
      <point x="218" y="936" type="line"/>
      <point x="218" y="380" type="line"/>
      <point x="219" y="380" type="line"/>
      <point x="222" y="345"/>
      <point x="279" y="296"/>
      <point x="318" y="296" type="qcurve" smooth="yes"/>
      <point x="877" y="296" type="line" smooth="yes"/>
      <point x="916" y="296"/>
      <point x="975" y="345"/>
      <point x="978" y="380" type="qcurve"/>
      <point x="978" y="380" type="line"/>
      <point x="978" y="936" type="line"/>
    </contour>
    <contour>
      <point x="374" y="299" type="line"/>
      <point x="374" y="126" type="line" smooth="yes"/>
      <point x="374" y="85"/>
      <point x="424" y="27"/>
      <point x="459" y="27" type="qcurve" smooth="yes"/>
      <point x="494" y="27"/>
      <point x="544" y="85"/>
      <point x="544" y="126" type="qcurve" smooth="yes"/>
      <point x="544" y="299" type="line"/>
    </contour>
    <contour>
      <point x="657" y="299" type="line"/>
      <point x="657" y="126" type="line" smooth="yes"/>
      <point x="657" y="85"/>
      <point x="707" y="27"/>
      <point x="742" y="27" type="qcurve" smooth="yes"/>
      <point x="777" y="27"/>
      <point x="827" y="85"/>
      <point x="827" y="126" type="qcurve" smooth="yes"/>
      <point x="827" y="299" type="line"/>
    </contour>
  </outline>
</glyph>
<glyph name="uniE60F" format="2">
  <advance width="1200"/>
  <unicode hex="E70F"/>
  <note>
uniE60F
</note>
  <outline>
    <contour>
      <point x="487" y="1204" type="line"/>
      <point x="20" y="1138" type="line"/>
      <point x="20" y="737" type="line"/>
      <point x="487" y="737" type="line"/>
    </contour>
    <contour>
      <point x="1180" y="1305" type="line"/>
      <point x="550" y="1212" type="line"/>
      <point x="550" y="737" type="line"/>
      <point x="1180" y="737" type="line"/>
    </contour>
    <contour>
      <point x="487" y="216" type="line"/>
      <point x="487" y="683" type="line"/>
      <point x="20" y="683" type="line"/>
      <point x="20" y="282" type="line"/>
    </contour>
    <contour>
      <point x="1180" y="115" type="line"/>
      <point x="1180" y="683" type="line"/>
      <point x="550" y="683" type="line"/>
      <point x="550" y="208" type="line"/>
    </contour>
  </outline>
</glyph>
<glyph name="uniE610" format="2">
  <advance width="1200"/>
  <unicode hex="E710"/>
  <note>
uniE610
</note>
  <outline>
    <contour>
      <point x="45" y="293" type="line"/>
      <point x="45" y="293" type="line"/>
      <point x="45" y="0" type="line"/>
      <point x="967" y="0" type="line"/>
      <point x="967" y="589" type="line"/>
      <point x="919" y="582" type="line"/>
      <point x="869" y="577" type="line"/>
      <point x="864" y="334" type="line"/>
      <point x="859" y="90" type="line"/>
      <point x="133" y="90" type="line"/>
      <point x="133" y="587" type="line"/>
      <point x="45" y="587" type="line"/>
    </contour>
    <contour>
      <point x="203" y="248" type="line"/>
      <point x="203" y="248" type="line"/>
      <point x="203" y="196" type="line"/>
      <point x="773" y="196" type="line"/>
      <point x="773" y="301" type="line"/>
      <point x="203" y="301" type="line"/>
    </contour>
    <contour>
      <point x="212" y="458" type="line"/>
      <point x="212" y="458" type="line"/>
      <point x="207" y="406" type="line"/>
      <point x="771" y="344" type="line"/>
      <point x="783" y="449" type="line"/>
      <point x="219" y="511" type="line"/>
    </contour>
    <contour>
      <point x="255" y="709" type="line"/>
      <point x="255" y="709" type="line"/>
      <point x="241" y="658" type="line"/>
      <point x="790" y="509" type="line"/>
      <point x="818" y="613" type="line"/>
      <point x="269" y="761" type="line"/>
    </contour>
    <contour>
      <point x="372" y="1002" type="line"/>
      <point x="372" y="1002" type="line"/>
      <point x="343" y="957" type="line"/>
      <point x="825" y="654" type="line"/>
      <point x="881" y="744" type="line"/>
      <point x="399" y="1046" type="line"/>
    </contour>
    <contour>
      <point x="644" y="1274" type="line"/>
      <point x="644" y="1274" type="line"/>
      <point x="599" y="1243" type="line"/>
      <point x="923" y="775" type="line"/>
      <point x="1011" y="835" type="line"/>
      <point x="687" y="1303" type="line"/>
    </contour>
    <contour>
      <point x="998" y="1410" type="line"/>
      <point x="998" y="1410" type="line"/>
      <point x="947" y="1401" type="line"/>
      <point x="1050" y="842" type="line"/>
      <point x="1155" y="862" type="line"/>
      <point x="1052" y="1420" type="line"/>
    </contour>
  </outline>
</glyph>
<glyph name="uniE611" format="2">
  <advance width="1200"/>
  <unicode hex="E711"/>
  <note>
uniE611
</note>
  <outline>
    <contour>
      <point x="988" y="666" type="qcurve"/>
      <point x="988" y="666" type="line"/>
      <point x="986" y="801"/>
      <point x="1136" y="933"/>
      <point x="1141" y="937" type="qcurve"/>
      <point x="1078" y="1028"/>
      <point x="915" y="1077"/>
      <point x="881" y="1077" type="qcurve"/>
      <point x="798" y="1085"/>
      <point x="651" y="1013"/>
      <point x="608" y="1013" type="qcurve" smooth="yes"/>
      <point x="567" y="1013"/>
      <point x="443" y="1075"/>
      <point x="375" y="1075" type="qcurve" smooth="yes"/>
      <point x="284" y="1073"/>
      <point x="127" y="977"/>
      <point x="80" y="895" type="qcurve" smooth="yes"/>
      <point x="34" y="814"/>
      <point x="17" y="619"/>
      <point x="51" y="426"/>
      <point x="125" y="247"/>
      <point x="170" y="179" type="qcurve" smooth="yes"/>
      <point x="215" y="116"/>
      <point x="325" y="-2"/>
      <point x="394" y="0" type="qcurve" smooth="yes"/>
      <point x="463" y="3"/>
      <point x="546" y="59"/>
      <point x="627" y="59" type="qcurve" smooth="yes"/>
      <point x="710" y="59"/>
      <point x="791" y="2"/>
      <point x="862" y="2" type="qcurve" smooth="yes"/>
      <point x="934" y="3"/>
      <point x="1034" y="112"/>
      <point x="1079" y="176" type="qcurve" smooth="yes"/>
      <point x="1131" y="252"/>
      <point x="1176" y="374"/>
      <point x="1178" y="380" type="qcurve"/>
      <point x="1176" y="380"/>
      <point x="990" y="506"/>
    </contour>
    <contour>
      <point x="808" y="1194" type="qcurve"/>
      <point x="808" y="1194" type="line"/>
      <point x="846" y="1239"/>
      <point x="890" y="1358"/>
      <point x="883" y="1420" type="qcurve"/>
      <point x="829" y="1418"/>
      <point x="712" y="1358"/>
      <point x="674" y="1313" type="qcurve" smooth="yes"/>
      <point x="639" y="1273"/>
      <point x="589" y="1154"/>
      <point x="598" y="1094" type="qcurve"/>
      <point x="658" y="1089"/>
      <point x="771" y="1149"/>
    </contour>
  </outline>
</glyph>
<glyph name="uniE612" format="2">
  <advance width="1200"/>
  <unicode hex="E712"/>
  <note>
uniE612
</note>
  <outline>
    <contour>
      <point x="579" y="1059" type="qcurve"/>
      <point x="579" y="1059" type="line"/>
      <point x="579" y="1055"/>
      <point x="575" y="1055"/>
      <point x="575" y="1055" type="qcurve"/>
      <point x="571" y="1055" type="line" smooth="yes"/>
      <point x="567" y="1055"/>
      <point x="564" y="1060"/>
      <point x="561" y="1063" type="qcurve"/>
      <point x="561" y="1063"/>
      <point x="557" y="1069"/>
      <point x="557" y="1073" type="qcurve" smooth="yes"/>
      <point x="557" y="1075"/>
      <point x="558" y="1077"/>
      <point x="561" y="1077" type="qcurve"/>
      <point x="571" y="1073" type="line"/>
      <point x="574" y="1069"/>
      <point x="579" y="1062"/>
    </contour>
    <contour>
      <point x="498" y="1103" type="line"/>
      <point x="489" y="1103" type="line"/>
      <point x="489" y="1110"/>
      <point x="485" y="1120"/>
      <point x="485" y="1127" type="qcurve"/>
      <point x="471" y="1127" type="line"/>
      <point x="471" y="1135" type="line"/>
      <point x="474" y="1135"/>
      <point x="475" y="1141"/>
      <point x="475" y="1141" type="qcurve"/>
      <point x="485" y="1141"/>
      <point x="498" y="1121"/>
      <point x="498" y="1103" type="qcurve"/>
    </contour>
    <contour>
      <point x="657" y="1127" type="line"/>
      <point x="657" y="1129"/>
      <point x="651" y="1132"/>
      <point x="651" y="1135" type="qcurve"/>
      <point x="655" y="1135"/>
      <point x="661" y="1141"/>
      <point x="661" y="1141" type="qcurve"/>
      <point x="664" y="1141"/>
      <point x="671" y="1135"/>
      <point x="675" y="1131" type="qcurve" smooth="yes"/>
      <point x="678" y="1128"/>
      <point x="679" y="1121"/>
      <point x="679" y="1117" type="qcurve" smooth="yes"/>
      <point x="679" y="1114"/>
      <point x="680" y="1107"/>
      <point x="683" y="1103" type="qcurve"/>
      <point x="675" y="1103" type="line"/>
      <point x="671" y="1114"/>
      <point x="662" y="1127"/>
      <point x="657" y="1127" type="qcurve"/>
    </contour>
    <contour>
      <point x="521" y="1055" type="line"/>
      <point x="521" y="1055" type="line"/>
      <point x="517" y="1055"/>
      <point x="516" y="1055"/>
      <point x="516" y="1059" type="qcurve" smooth="yes"/>
      <point x="516" y="1062"/>
      <point x="517" y="1069"/>
      <point x="521" y="1073" type="qcurve"/>
      <point x="528" y="1073"/>
      <point x="534" y="1077"/>
      <point x="534" y="1077" type="qcurve"/>
      <point x="538" y="1077"/>
      <point x="539" y="1073"/>
      <point x="539" y="1073" type="qcurve"/>
      <point x="539" y="1069"/>
      <point x="532" y="1060"/>
      <point x="525" y="1055" type="qcurve"/>
    </contour>
    <contour>
      <point x="471" y="1059" type="line"/>
      <point x="467" y="1055"/>
      <point x="460" y="1053"/>
      <point x="457" y="1049" type="qcurve"/>
      <point x="444" y="1063"/>
      <point x="433" y="1091"/>
      <point x="433" y="1103" type="qcurve" smooth="yes"/>
      <point x="433" y="1121"/>
      <point x="437" y="1145"/>
      <point x="444" y="1158" type="qcurve" smooth="yes"/>
      <point x="448" y="1168"/>
      <point x="466" y="1181"/>
      <point x="475" y="1181" type="qcurve" smooth="yes"/>
      <point x="489" y="1181"/>
      <point x="504" y="1168"/>
      <point x="511" y="1158" type="qcurve" smooth="yes"/>
      <point x="518" y="1147"/>
      <point x="521" y="1128"/>
      <point x="521" y="1117" type="qcurve" smooth="yes"/>
      <point x="521" y="1103"/>
      <point x="520" y="1091"/>
      <point x="516" y="1091" type="qcurve"/>
      <point x="516" y="1085" type="line"/>
      <point x="511" y="1085" type="line"/>
      <point x="511" y="1095" type="line" smooth="yes"/>
      <point x="511" y="1105"/>
      <point x="506" y="1125"/>
      <point x="503" y="1135" type="qcurve"/>
      <point x="496" y="1142"/>
      <point x="486" y="1149"/>
      <point x="480" y="1149" type="qcurve" smooth="yes"/>
      <point x="473" y="1149"/>
      <point x="460" y="1142"/>
      <point x="457" y="1135" type="qcurve"/>
      <point x="451" y="1128"/>
      <point x="448" y="1114"/>
      <point x="448" y="1103" type="qcurve" smooth="yes"/>
      <point x="448" y="1087"/>
      <point x="457" y="1066"/>
      <point x="471" y="1059" type="qcurve"/>
    </contour>
    <contour>
      <point x="1036" y="422" type="line"/>
      <point x="1036" y="422"/>
      <point x="1031" y="426"/>
      <point x="1031" y="430" type="qcurve"/>
      <point x="1028" y="435"/>
      <point x="1021" y="444"/>
      <point x="1018" y="450" type="qcurve" smooth="yes"/>
      <point x="1014" y="455"/>
      <point x="1000" y="464"/>
      <point x="986" y="469" type="qcurve" smooth="yes"/>
      <point x="975" y="473"/>
      <point x="945" y="477"/>
      <point x="927" y="477" type="qcurve" smooth="yes"/>
      <point x="917" y="477"/>
      <point x="902" y="472"/>
      <point x="891" y="466" type="qcurve"/>
      <point x="884" y="461"/>
      <point x="875" y="450"/>
      <point x="869" y="443" type="qcurve"/>
      <point x="866" y="437"/>
      <point x="859" y="432"/>
      <point x="859" y="432" type="qcurve"/>
      <point x="856" y="432"/>
      <point x="855" y="435"/>
      <point x="855" y="437" type="qcurve"/>
      <point x="866" y="458"/>
      <point x="891" y="483"/>
      <point x="905" y="489" type="qcurve"/>
      <point x="918" y="525"/>
      <point x="927" y="580"/>
      <point x="927" y="599" type="qcurve" smooth="yes"/>
      <point x="927" y="623"/>
      <point x="920" y="666"/>
      <point x="909" y="689" type="qcurve" smooth="yes"/>
      <point x="899" y="710"/>
      <point x="867" y="736"/>
      <point x="851" y="743" type="qcurve"/>
      <point x="851" y="747"/>
      <point x="852" y="749"/>
      <point x="855" y="753" type="qcurve"/>
      <point x="871" y="749"/>
      <point x="900" y="728"/>
      <point x="914" y="707" type="qcurve" smooth="yes"/>
      <point x="927" y="686"/>
      <point x="941" y="637"/>
      <point x="941" y="603" type="qcurve" smooth="yes"/>
      <point x="941" y="578"/>
      <point x="932" y="523"/>
      <point x="923" y="491" type="qcurve"/>
      <point x="927" y="491"/>
      <point x="938" y="490"/>
      <point x="941" y="490" type="qcurve" smooth="yes"/>
      <point x="945" y="490"/>
      <point x="946" y="489"/>
      <point x="950" y="489" type="qcurve"/>
      <point x="950" y="489"/>
      <point x="956" y="489"/>
      <point x="959" y="489" type="qcurve" smooth="yes"/>
      <point x="979" y="486"/>
      <point x="1013" y="472"/>
      <point x="1022" y="462" type="qcurve" smooth="yes"/>
      <point x="1032" y="453"/>
      <point x="1040" y="435"/>
      <point x="1040" y="428" type="qcurve" smooth="yes"/>
      <point x="1040" y="425"/>
      <point x="1039" y="422"/>
      <point x="1036" y="422" type="qcurve"/>
    </contour>
    <contour>
      <point x="619" y="1077" type="line"/>
      <point x="617" y="1077"/>
      <point x="610" y="1081"/>
      <point x="607" y="1081" type="qcurve"/>
      <point x="600" y="1095"/>
      <point x="593" y="1123"/>
      <point x="593" y="1141" type="qcurve" smooth="yes"/>
      <point x="593" y="1150"/>
      <point x="600" y="1165"/>
      <point x="607" y="1176" type="qcurve"/>
      <point x="617" y="1183"/>
      <point x="637" y="1189"/>
      <point x="647" y="1189" type="qcurve" smooth="yes"/>
      <point x="661" y="1189"/>
      <point x="682" y="1182"/>
      <point x="693" y="1171" type="qcurve"/>
      <point x="700" y="1161"/>
      <point x="705" y="1134"/>
      <point x="705" y="1113" type="qcurve" smooth="yes"/>
      <point x="705" y="1096"/>
      <point x="700" y="1066"/>
      <point x="697" y="1045" type="qcurve"/>
      <point x="690" y="1049"/>
      <point x="682" y="1055"/>
      <point x="675" y="1055" type="qcurve" smooth="yes"/>
      <point x="671" y="1055"/>
      <point x="665" y="1059"/>
      <point x="665" y="1059" type="qcurve"/>
      <point x="679" y="1062"/>
      <point x="693" y="1082"/>
      <point x="693" y="1099" type="qcurve" smooth="yes"/>
      <point x="693" y="1110"/>
      <point x="687" y="1125"/>
      <point x="683" y="1135" type="qcurve"/>
      <point x="676" y="1142"/>
      <point x="662" y="1153"/>
      <point x="651" y="1153" type="qcurve" smooth="yes"/>
      <point x="644" y="1153"/>
      <point x="632" y="1146"/>
      <point x="625" y="1141" type="qcurve"/>
      <point x="618" y="1129"/>
      <point x="615" y="1113"/>
      <point x="615" y="1099" type="qcurve" smooth="yes"/>
      <point x="615" y="1092"/>
      <point x="617" y="1080"/>
      <point x="619" y="1077" type="qcurve"/>
    </contour>
    <contour>
      <point x="675" y="1005" type="line"/>
      <point x="675" y="1005"/>
      <point x="673" y="1009"/>
      <point x="669" y="1009" type="qcurve"/>
      <point x="669" y="1017" type="line"/>
      <point x="626" y="984"/>
      <point x="557" y="955"/>
      <point x="529" y="955" type="qcurve" smooth="yes"/>
      <point x="510" y="955"/>
      <point x="468" y="974"/>
      <point x="448" y="991" type="qcurve"/>
      <point x="445" y="998"/>
      <point x="439" y="1005"/>
      <point x="439" y="1005" type="qcurve"/>
      <point x="439" y="1017"/>
      <point x="464" y="1045"/>
      <point x="485" y="1059" type="qcurve" smooth="yes"/>
      <point x="509" y="1073"/>
      <point x="542" y="1085"/>
      <point x="553" y="1085" type="qcurve" smooth="yes"/>
      <point x="565" y="1085"/>
      <point x="612" y="1073"/>
      <point x="643" y="1059" type="qcurve"/>
      <point x="676" y="1049"/>
      <point x="712" y="1030"/>
      <point x="715" y="1023" type="qcurve"/>
      <point x="718" y="1023"/>
      <point x="719" y="1017"/>
      <point x="719" y="1013" type="qcurve" smooth="yes"/>
      <point x="719" y="1003"/>
      <point x="708" y="988"/>
      <point x="701" y="981" type="qcurve"/>
      <point x="661" y="955" type="line" smooth="yes"/>
      <point x="626" y="931"/>
      <point x="571" y="905"/>
      <point x="547" y="905" type="qcurve" smooth="yes"/>
      <point x="531" y="905"/>
      <point x="498" y="919"/>
      <point x="485" y="931" type="qcurve" smooth="yes"/>
      <point x="457" y="959" type="line"/>
      <point x="455" y="963"/>
      <point x="448" y="974"/>
      <point x="444" y="981" type="qcurve"/>
      <point x="464" y="965"/>
      <point x="510" y="945"/>
      <point x="534" y="945" type="qcurve" smooth="yes"/>
      <point x="561" y="945"/>
      <point x="630" y="974"/>
      <point x="675" y="1005" type="qcurve"/>
    </contour>
    <contour>
      <point x="779" y="93" type="line"/>
      <point x="779" y="91" type="line"/>
      <point x="791" y="66"/>
      <point x="837" y="41"/>
      <point x="864" y="41" type="qcurve" smooth="yes"/>
      <point x="871" y="41"/>
      <point x="884" y="43"/>
      <point x="891" y="46" type="qcurve"/>
      <point x="898" y="46"/>
      <point x="910" y="51"/>
      <point x="914" y="54" type="qcurve" smooth="yes"/>
      <point x="917" y="55"/>
      <point x="924" y="61"/>
      <point x="927" y="64" type="qcurve"/>
      <point x="934" y="66"/>
      <point x="938" y="69"/>
      <point x="941" y="70" type="qcurve"/>
      <point x="1018" y="137" type="line" smooth="yes"/>
      <point x="1031" y="148"/>
      <point x="1060" y="167"/>
      <point x="1076" y="176" type="qcurve" smooth="yes"/>
      <point x="1090" y="184"/>
      <point x="1115" y="195"/>
      <point x="1122" y="198" type="qcurve" smooth="yes"/>
      <point x="1132" y="201"/>
      <point x="1147" y="209"/>
      <point x="1154" y="214" type="qcurve"/>
      <point x="1156" y="219"/>
      <point x="1162" y="232"/>
      <point x="1162" y="239" type="qcurve" smooth="yes"/>
      <point x="1162" y="250"/>
      <point x="1151" y="264"/>
      <point x="1144" y="270" type="qcurve" smooth="yes"/>
      <point x="1137" y="275"/>
      <point x="1123" y="284"/>
      <point x="1116" y="285" type="qcurve"/>
      <point x="1111" y="288"/>
      <point x="1096" y="299"/>
      <point x="1086" y="309" type="qcurve" smooth="yes"/>
      <point x="1079" y="317"/>
      <point x="1066" y="342"/>
      <point x="1062" y="357" type="qcurve" smooth="yes"/>
      <point x="1058" y="383" type="line" smooth="yes"/>
      <point x="1055" y="393"/>
      <point x="1053" y="407"/>
      <point x="1048" y="410" type="qcurve"/>
      <point x="1048" y="411"/>
      <point x="1048" y="412"/>
      <point x="1044" y="412" type="qcurve" smooth="yes"/>
      <point x="1042" y="412"/>
      <point x="1031" y="405"/>
      <point x="1026" y="400" type="qcurve"/>
      <point x="1019" y="394"/>
      <point x="1006" y="382"/>
      <point x="1000" y="375" type="qcurve" smooth="yes"/>
      <point x="996" y="368"/>
      <point x="979" y="356"/>
      <point x="972" y="350" type="qcurve" smooth="yes"/>
      <point x="963" y="345"/>
      <point x="943" y="338"/>
      <point x="936" y="338" type="qcurve" smooth="yes"/>
      <point x="909" y="338"/>
      <point x="878" y="353"/>
      <point x="869" y="368" type="qcurve" smooth="yes"/>
      <point x="862" y="378"/>
      <point x="853" y="403"/>
      <point x="851" y="418" type="qcurve"/>
      <point x="844" y="423"/>
      <point x="834" y="429"/>
      <point x="828" y="429" type="qcurve" smooth="yes"/>
      <point x="810" y="429"/>
      <point x="797" y="394"/>
      <point x="797" y="358" type="qcurve" smooth="yes"/>
      <point x="797" y="219" type="line" smooth="yes"/>
      <point x="797" y="214"/>
      <point x="791" y="202"/>
      <point x="791" y="191" type="qcurve"/>
      <point x="788" y="180"/>
      <point x="787" y="156"/>
      <point x="787" y="142" type="qcurve"/>
      <point x="779" y="93" type="line"/>
    </contour>
    <contour>
      <point x="122" y="116" type="qcurve"/>
      <point x="122" y="116" type="line"/>
      <point x="154" y="111"/>
      <point x="228" y="91"/>
      <point x="268" y="76" type="qcurve" smooth="yes"/>
      <point x="309" y="62"/>
      <point x="359" y="47"/>
      <point x="369" y="47" type="qcurve" smooth="yes"/>
      <point x="392" y="47"/>
      <point x="431" y="68"/>
      <point x="448" y="87" type="qcurve"/>
      <point x="452" y="94"/>
      <point x="452" y="109"/>
      <point x="452" y="119" type="qcurve" smooth="yes"/>
      <point x="452" y="151"/>
      <point x="413" y="231"/>
      <point x="376" y="281" type="qcurve" smooth="yes"/>
      <point x="344" y="321" type="line"/>
      <point x="340" y="328"/>
      <point x="327" y="347"/>
      <point x="320" y="361" type="qcurve" smooth="yes"/>
      <point x="313" y="374"/>
      <point x="301" y="394"/>
      <point x="295" y="401" type="qcurve"/>
      <point x="291" y="410"/>
      <point x="277" y="425"/>
      <point x="268" y="433" type="qcurve" smooth="yes"/>
      <point x="259" y="440"/>
      <point x="239" y="451"/>
      <point x="228" y="454" type="qcurve"/>
      <point x="214" y="451"/>
      <point x="194" y="441"/>
      <point x="189" y="435" type="qcurve" smooth="yes"/>
      <point x="185" y="429"/>
      <point x="179" y="414"/>
      <point x="179" y="407" type="qcurve" smooth="yes"/>
      <point x="178" y="400"/>
      <point x="174" y="390"/>
      <point x="169" y="387" type="qcurve" smooth="yes"/>
      <point x="167" y="386"/>
      <point x="156" y="382"/>
      <point x="147" y="381" type="qcurve" smooth="yes"/>
      <point x="146" y="381"/>
      <point x="139" y="381"/>
      <point x="135" y="381" type="qcurve" smooth="yes"/>
      <point x="122" y="381" type="line" smooth="yes"/>
      <point x="104" y="381"/>
      <point x="81" y="376"/>
      <point x="74" y="374" type="qcurve"/>
      <point x="66" y="363"/>
      <point x="57" y="340"/>
      <point x="57" y="329" type="qcurve" smooth="yes"/>
      <point x="57" y="324"/>
      <point x="60" y="306"/>
      <point x="63" y="292" type="qcurve" smooth="yes"/>
      <point x="66" y="279"/>
      <point x="68" y="260"/>
      <point x="68" y="253" type="qcurve" smooth="yes"/>
      <point x="68" y="239"/>
      <point x="60" y="212"/>
      <point x="52" y="198" type="qcurve" smooth="yes"/>
      <point x="42" y="183"/>
      <point x="34" y="160"/>
      <point x="34" y="154" type="qcurve"/>
      <point x="38" y="140"/>
      <point x="82" y="122"/>
    </contour>
    <contour>
      <point x="273" y="527" type="qcurve"/>
      <point x="273" y="527" type="line"/>
      <point x="273" y="549"/>
      <point x="286" y="602"/>
      <point x="298" y="632" type="qcurve" smooth="yes"/>
      <point x="311" y="663"/>
      <point x="334" y="704"/>
      <point x="347" y="718" type="qcurve"/>
      <point x="347" y="722"/>
      <point x="343" y="724"/>
      <point x="340" y="724" type="qcurve"/>
      <point x="336" y="728" type="line"/>
      <point x="326" y="717"/>
      <point x="302" y="671"/>
      <point x="287" y="638" type="qcurve" smooth="yes"/>
      <point x="273" y="606"/>
      <point x="258" y="552"/>
      <point x="258" y="531" type="qcurve" smooth="yes"/>
      <point x="258" y="516"/>
      <point x="266" y="490"/>
      <point x="272" y="479" type="qcurve"/>
      <point x="280" y="468"/>
      <point x="316" y="435"/>
      <point x="344" y="414" type="qcurve"/>
      <point x="392" y="383" type="line"/>
      <point x="431" y="350"/>
      <point x="470" y="303"/>
      <point x="470" y="291" type="qcurve" smooth="yes"/>
      <point x="470" y="282"/>
      <point x="463" y="268"/>
      <point x="452" y="260" type="qcurve"/>
      <point x="445" y="252"/>
      <point x="428" y="245"/>
      <point x="421" y="245" type="qcurve" smooth="yes"/>
      <point x="420" y="245"/>
      <point x="420" y="244"/>
      <point x="420" y="241" type="qcurve"/>
      <point x="420" y="241"/>
      <point x="427" y="227"/>
      <point x="434" y="214" type="qcurve" smooth="yes"/>
      <point x="448" y="195"/>
      <point x="507" y="176"/>
      <point x="547" y="176" type="qcurve" smooth="yes"/>
      <point x="622" y="176"/>
      <point x="738" y="237"/>
      <point x="783" y="297" type="qcurve"/>
      <point x="783" y="314"/>
      <point x="781" y="336"/>
      <point x="777" y="340" type="qcurve"/>
      <point x="777" y="357" type="line" smooth="yes"/>
      <point x="777" y="379"/>
      <point x="784" y="412"/>
      <point x="791" y="423" type="qcurve" smooth="yes"/>
      <point x="798" y="433"/>
      <point x="813" y="444"/>
      <point x="823" y="444" type="qcurve" smooth="yes"/>
      <point x="830" y="444"/>
      <point x="844" y="439"/>
      <point x="851" y="435" type="qcurve"/>
      <point x="853" y="461"/>
      <point x="855" y="507"/>
      <point x="855" y="526" type="qcurve" smooth="yes"/>
      <point x="855" y="558"/>
      <point x="852" y="609"/>
      <point x="845" y="632" type="qcurve"/>
      <point x="842" y="653"/>
      <point x="830" y="686"/>
      <point x="823" y="700" type="qcurve" smooth="yes"/>
      <point x="816" y="711"/>
      <point x="802" y="731"/>
      <point x="795" y="742" type="qcurve" smooth="yes"/>
      <point x="790" y="752"/>
      <point x="780" y="772"/>
      <point x="773" y="782" type="qcurve"/>
      <point x="770" y="796"/>
      <point x="765" y="819"/>
      <point x="765" y="836" type="qcurve"/>
      <point x="754" y="853"/>
      <point x="738" y="887"/>
      <point x="727" y="904" type="qcurve"/>
      <point x="722" y="920"/>
      <point x="708" y="954"/>
      <point x="701" y="967" type="qcurve"/>
      <point x="661" y="936" type="line" smooth="yes"/>
      <point x="626" y="912"/>
      <point x="571" y="890"/>
      <point x="547" y="890" type="qcurve" smooth="yes"/>
      <point x="527" y="890"/>
      <point x="495" y="900"/>
      <point x="484" y="913" type="qcurve"/>
      <point x="457" y="936" type="line"/>
      <point x="457" y="926"/>
      <point x="451" y="900"/>
      <point x="444" y="886" type="qcurve" smooth="yes"/>
      <point x="415" y="832" type="line"/>
      <point x="405" y="808"/>
      <point x="395" y="779"/>
      <point x="394" y="768" type="qcurve" smooth="yes"/>
      <point x="392" y="761"/>
      <point x="391" y="750"/>
      <point x="390" y="750" type="qcurve"/>
      <point x="356" y="682" type="line" smooth="yes"/>
      <point x="329" y="631"/>
      <point x="301" y="538"/>
      <point x="301" y="500" type="qcurve" smooth="yes"/>
      <point x="301" y="493"/>
      <point x="302" y="476"/>
      <point x="304" y="468" type="qcurve"/>
      <point x="289" y="479"/>
      <point x="273" y="508"/>
    </contour>
    <contour>
      <point x="597" y="100" type="line"/>
      <point x="624" y="100"/>
      <point x="709" y="93"/>
      <point x="765" y="86" type="qcurve"/>
      <point x="774" y="66"/>
      <point x="809" y="39"/>
      <point x="837" y="32" type="qcurve"/>
      <point x="869" y="28" type="line"/>
      <point x="881" y="28"/>
      <point x="907" y="33"/>
      <point x="918" y="40" type="qcurve" smooth="yes"/>
      <point x="928" y="46"/>
      <point x="954" y="65"/>
      <point x="967" y="77" type="qcurve" smooth="yes"/>
      <point x="1013" y="116" type="line" smooth="yes"/>
      <point x="1029" y="130"/>
      <point x="1064" y="155"/>
      <point x="1080" y="165" type="qcurve" smooth="yes"/>
      <point x="1101" y="174"/>
      <point x="1127" y="188"/>
      <point x="1134" y="191" type="qcurve" smooth="yes"/>
      <point x="1145" y="194"/>
      <point x="1159" y="203"/>
      <point x="1166" y="210" type="qcurve" smooth="yes"/>
      <point x="1173" y="217"/>
      <point x="1180" y="234"/>
      <point x="1180" y="245" type="qcurve" smooth="yes"/>
      <point x="1180" y="253"/>
      <point x="1173" y="267"/>
      <point x="1166" y="274" type="qcurve" smooth="yes"/>
      <point x="1159" y="279"/>
      <point x="1141" y="289"/>
      <point x="1134" y="293" type="qcurve" smooth="yes"/>
      <point x="1125" y="297"/>
      <point x="1109" y="307"/>
      <point x="1102" y="313" type="qcurve" smooth="yes"/>
      <point x="1093" y="320"/>
      <point x="1083" y="333"/>
      <point x="1080" y="340" type="qcurve"/>
      <point x="1076" y="374" type="line"/>
      <point x="1072" y="390"/>
      <point x="1065" y="411"/>
      <point x="1062" y="415" type="qcurve" smooth="yes"/>
      <point x="1060" y="421"/>
      <point x="1051" y="425"/>
      <point x="1044" y="425" type="qcurve"/>
      <point x="1051" y="447"/>
      <point x="1058" y="493"/>
      <point x="1058" y="516" type="qcurve" smooth="yes"/>
      <point x="1058" y="563"/>
      <point x="1039" y="649"/>
      <point x="1022" y="682" type="qcurve"/>
      <point x="1008" y="720"/>
      <point x="961" y="793"/>
      <point x="931" y="828" type="qcurve"/>
      <point x="918" y="847"/>
      <point x="892" y="883"/>
      <point x="881" y="900" type="qcurve" smooth="yes"/>
      <point x="871" y="913"/>
      <point x="856" y="940"/>
      <point x="851" y="954" type="qcurve"/>
      <point x="844" y="963"/>
      <point x="835" y="990"/>
      <point x="833" y="1003" type="qcurve" smooth="yes"/>
      <point x="828" y="1020"/>
      <point x="826" y="1048"/>
      <point x="823" y="1057" type="qcurve"/>
      <point x="823" y="1069"/>
      <point x="819" y="1096"/>
      <point x="819" y="1117" type="qcurve"/>
      <point x="815" y="1141"/>
      <point x="813" y="1176"/>
      <point x="809" y="1193" type="qcurve"/>
      <point x="806" y="1221"/>
      <point x="794" y="1264"/>
      <point x="787" y="1283" type="qcurve"/>
      <point x="777" y="1301"/>
      <point x="755" y="1332"/>
      <point x="741" y="1343" type="qcurve" smooth="yes"/>
      <point x="732" y="1352"/>
      <point x="705" y="1368"/>
      <point x="691" y="1374" type="qcurve" smooth="yes"/>
      <point x="675" y="1381"/>
      <point x="648" y="1387"/>
      <point x="637" y="1387" type="qcurve"/>
      <point x="628" y="1391"/>
      <point x="607" y="1392"/>
      <point x="597" y="1392" type="qcurve" smooth="yes"/>
      <point x="570" y="1392"/>
      <point x="522" y="1386"/>
      <point x="502" y="1379" type="qcurve" smooth="yes"/>
      <point x="482" y="1372"/>
      <point x="453" y="1347"/>
      <point x="444" y="1333" type="qcurve" smooth="yes"/>
      <point x="433" y="1319"/>
      <point x="416" y="1287"/>
      <point x="412" y="1271" type="qcurve" smooth="yes"/>
      <point x="408" y="1253"/>
      <point x="403" y="1217"/>
      <point x="403" y="1193" type="qcurve" smooth="yes"/>
      <point x="403" y="1163"/>
      <point x="406" y="1096"/>
      <point x="410" y="1062" type="qcurve" smooth="yes"/>
      <point x="413" y="1028"/>
      <point x="417" y="988"/>
      <point x="417" y="981" type="qcurve" smooth="yes"/>
      <point x="417" y="967"/>
      <point x="410" y="936"/>
      <point x="403" y="922" type="qcurve" smooth="yes"/>
      <point x="398" y="909"/>
      <point x="374" y="875"/>
      <point x="356" y="854" type="qcurve" smooth="yes"/>
      <point x="323" y="814" type="line" smooth="yes"/>
      <point x="302" y="790"/>
      <point x="276" y="743"/>
      <point x="272" y="718" type="qcurve" smooth="yes"/>
      <point x="265" y="692"/>
      <point x="253" y="650"/>
      <point x="247" y="638" type="qcurve" smooth="yes"/>
      <point x="241" y="624"/>
      <point x="226" y="595"/>
      <point x="217" y="577" type="qcurve" smooth="yes"/>
      <point x="200" y="548" type="line" smooth="yes"/>
      <point x="187" y="526"/>
      <point x="176" y="491"/>
      <point x="176" y="479" type="qcurve"/>
      <point x="175" y="477"/>
      <point x="175" y="471"/>
      <point x="175" y="466" type="qcurve" smooth="yes"/>
      <point x="175" y="461"/>
      <point x="178" y="453"/>
      <point x="181" y="450" type="qcurve"/>
      <point x="179" y="447"/>
      <point x="175" y="441"/>
      <point x="174" y="439" type="qcurve"/>
      <point x="174" y="437"/>
      <point x="172" y="433"/>
      <point x="171" y="432" type="qcurve"/>
      <point x="171" y="430"/>
      <point x="168" y="423"/>
      <point x="167" y="419" type="qcurve" smooth="yes"/>
      <point x="165" y="415"/>
      <point x="161" y="407"/>
      <point x="160" y="401" type="qcurve"/>
      <point x="152" y="397"/>
      <point x="142" y="393"/>
      <point x="139" y="393" type="qcurve" smooth="yes"/>
      <point x="88" y="393" type="line" smooth="yes"/>
      <point x="80" y="393"/>
      <point x="66" y="385"/>
      <point x="57" y="376" type="qcurve" smooth="yes"/>
      <point x="50" y="368"/>
      <point x="44" y="345"/>
      <point x="44" y="329" type="qcurve" smooth="yes"/>
      <point x="44" y="325"/>
      <point x="46" y="303"/>
      <point x="49" y="285" type="qcurve" smooth="yes"/>
      <point x="52" y="267"/>
      <point x="55" y="246"/>
      <point x="55" y="242" type="qcurve" smooth="yes"/>
      <point x="55" y="239"/>
      <point x="53" y="232"/>
      <point x="53" y="230" type="qcurve"/>
      <point x="52" y="226"/>
      <point x="49" y="219"/>
      <point x="48" y="216" type="qcurve" smooth="yes"/>
      <point x="46" y="213"/>
      <point x="44" y="206"/>
      <point x="42" y="203" type="qcurve" smooth="yes"/>
      <point x="41" y="201"/>
      <point x="37" y="194"/>
      <point x="34" y="190" type="qcurve" smooth="yes"/>
      <point x="31" y="185"/>
      <point x="27" y="178"/>
      <point x="26" y="176" type="qcurve" smooth="yes"/>
      <point x="23" y="169"/>
      <point x="20" y="158"/>
      <point x="20" y="152" type="qcurve" smooth="yes"/>
      <point x="20" y="147"/>
      <point x="26" y="137"/>
      <point x="30" y="133" type="qcurve" smooth="yes"/>
      <point x="35" y="129"/>
      <point x="48" y="122"/>
      <point x="56" y="119" type="qcurve" smooth="yes"/>
      <point x="66" y="116"/>
      <point x="82" y="111"/>
      <point x="89" y="109" type="qcurve" smooth="yes"/>
      <point x="96" y="108"/>
      <point x="114" y="105"/>
      <point x="124" y="104" type="qcurve" smooth="yes"/>
      <point x="134" y="102"/>
      <point x="146" y="100"/>
      <point x="149" y="98" type="qcurve"/>
      <point x="176" y="93"/>
      <point x="239" y="73"/>
      <point x="275" y="62" type="qcurve" smooth="yes"/>
      <point x="309" y="48"/>
      <point x="362" y="36"/>
      <point x="379" y="36" type="qcurve" smooth="yes"/>
      <point x="405" y="36"/>
      <point x="445" y="57"/>
      <point x="462" y="77" type="qcurve"/>
      <point x="462" y="76" type="line"/>
      <point x="485" y="87"/>
      <point x="553" y="100"/>
      <point x="597" y="100" type="qcurve"/>
    </contour>
  </outline>
</glyph>
<glyph name="uniE613" format="2">
  <advance width="1200"/>
  <unicode hex="E713"/>
  <note>
uniE613
</note>
  <outline>
    <contour>
      <point x="496" y="729" type="line"/>
      <point x="496" y="729" type="line"/>
      <point x="595" y="900" type="line" smooth="yes"/>
      <point x="600" y="910"/>
      <point x="595" y="932"/>
      <point x="586" y="937" type="qcurve" smooth="yes"/>
      <point x="515" y="977" type="line" smooth="yes"/>
      <point x="505" y="984"/>
      <point x="485" y="977"/>
      <point x="478" y="968" type="qcurve" smooth="yes"/>
      <point x="155" y="404" type="line" smooth="yes"/>
      <point x="150" y="394"/>
      <point x="155" y="373"/>
      <point x="164" y="367" type="qcurve" smooth="yes"/>
      <point x="235" y="327" type="line" smooth="yes"/>
      <point x="244" y="322"/>
      <point x="265" y="327"/>
      <point x="272" y="336" type="qcurve" smooth="yes"/>
    </contour>
    <contour>
      <point x="1156" y="782" type="qcurve"/>
      <point x="1156" y="782" type="line"/>
      <point x="920" y="782" type="line"/>
      <point x="941" y="742"/>
      <point x="978" y="671"/>
      <point x="991" y="645" type="qcurve" smooth="yes"/>
      <point x="1001" y="628"/>
      <point x="1015" y="601"/>
      <point x="1017" y="596" type="qcurve"/>
      <point x="1020" y="591"/>
      <point x="1025" y="581"/>
      <point x="1025" y="575" type="qcurve"/>
      <point x="1156" y="575" type="line" smooth="yes"/>
      <point x="1166" y="575"/>
      <point x="1180" y="589"/>
      <point x="1180" y="599" type="qcurve" smooth="yes"/>
      <point x="1180" y="756" type="line" smooth="yes"/>
      <point x="1180" y="767"/>
      <point x="1166" y="782"/>
    </contour>
    <contour>
      <point x="582" y="782" type="line"/>
      <point x="582" y="782" type="line"/>
      <point x="464" y="575" type="line"/>
      <point x="784" y="575" type="line"/>
      <point x="767" y="610"/>
      <point x="720" y="710"/>
      <point x="688" y="782" type="qcurve"/>
    </contour>
    <contour>
      <point x="315" y="782" type="line"/>
      <point x="315" y="782" type="line"/>
      <point x="44" y="782" type="line" smooth="yes"/>
      <point x="33" y="782"/>
      <point x="20" y="767"/>
      <point x="20" y="756" type="qcurve" smooth="yes"/>
      <point x="20" y="599" type="line" smooth="yes"/>
      <point x="20" y="589"/>
      <point x="33" y="575"/>
      <point x="44" y="575" type="qcurve" smooth="yes"/>
      <point x="198" y="575" type="line"/>
    </contour>
    <contour>
      <point x="212" y="296" type="qcurve"/>
      <point x="212" y="296" type="line"/>
      <point x="142" y="336" type="line" smooth="yes"/>
      <point x="132" y="341"/>
      <point x="116" y="335"/>
      <point x="115" y="323" type="qcurve" smooth="yes"/>
      <point x="103" y="218" type="line" smooth="yes"/>
      <point x="102" y="206"/>
      <point x="113" y="200"/>
      <point x="123" y="206" type="qcurve" smooth="yes"/>
      <point x="212" y="267" type="line" smooth="yes"/>
      <point x="222" y="274"/>
      <point x="222" y="290"/>
    </contour>
    <contour>
      <point x="975" y="573" type="qcurve"/>
      <point x="975" y="573" type="line"/>
      <point x="975" y="573"/>
      <point x="973" y="575"/>
      <point x="973" y="575" type="qcurve"/>
      <point x="973" y="575" type="line"/>
      <point x="969" y="585"/>
      <point x="944" y="629"/>
      <point x="928" y="660" type="qcurve"/>
      <point x="928" y="660"/>
      <point x="928" y="660"/>
      <point x="928" y="660" type="qcurve"/>
      <point x="927" y="663"/>
      <point x="925" y="668"/>
      <point x="924" y="670" type="qcurve" smooth="yes"/>
      <point x="922" y="671"/>
      <point x="920" y="676"/>
      <point x="920" y="678" type="qcurve"/>
      <point x="919" y="679"/>
      <point x="917" y="682"/>
      <point x="917" y="684" type="qcurve"/>
      <point x="916" y="686"/>
      <point x="912" y="692"/>
      <point x="911" y="694" type="qcurve"/>
      <point x="911" y="695"/>
      <point x="909" y="697"/>
      <point x="909" y="698" type="qcurve"/>
      <point x="908" y="700"/>
      <point x="904" y="706"/>
      <point x="903" y="710" type="qcurve" smooth="yes"/>
      <point x="901" y="711"/>
      <point x="901" y="713"/>
      <point x="900" y="714" type="qcurve"/>
      <point x="863" y="783"/>
      <point x="779" y="937"/>
      <point x="751" y="982" type="qcurve" smooth="yes"/>
      <point x="701" y="1060"/>
      <point x="589" y="1261"/>
      <point x="570" y="1251" type="qcurve" smooth="yes"/>
      <point x="557" y="1245"/>
      <point x="578" y="1165"/>
      <point x="619" y="1062"/>
      <point x="666" y="958"/>
      <point x="679" y="926" type="qcurve" smooth="yes"/>
      <point x="693" y="894"/>
      <point x="752" y="759"/>
      <point x="816" y="620"/>
      <point x="872" y="511"/>
      <point x="882" y="506" type="qcurve" smooth="yes"/>
      <point x="903" y="496"/>
      <point x="925" y="501"/>
      <point x="940" y="508" type="qcurve" smooth="yes"/>
      <point x="954" y="514"/>
      <point x="988" y="549"/>
    </contour>
    <contour>
      <point x="1055" y="407" type="qcurve"/>
      <point x="1055" y="407" type="line"/>
      <point x="1021" y="471" type="line" smooth="yes"/>
      <point x="1015" y="482"/>
      <point x="993" y="490"/>
      <point x="981" y="484" type="qcurve" smooth="yes"/>
      <point x="941" y="463" type="line" smooth="yes"/>
      <point x="932" y="458"/>
      <point x="925" y="436"/>
      <point x="932" y="424" type="qcurve" smooth="yes"/>
      <point x="973" y="359" type="line" smooth="yes"/>
      <point x="980" y="347"/>
      <point x="1004" y="343"/>
      <point x="1015" y="349" type="qcurve" smooth="yes"/>
      <point x="1044" y="365" type="line" smooth="yes"/>
      <point x="1053" y="372"/>
      <point x="1060" y="396"/>
    </contour>
    <contour>
      <point x="1044" y="314" type="qcurve"/>
      <point x="1044" y="314" type="line"/>
      <point x="1036" y="307"/>
      <point x="1017" y="272"/>
      <point x="1039" y="240" type="qcurve" smooth="yes"/>
      <point x="1061" y="208"/>
      <point x="1138" y="189"/>
      <point x="1145" y="168" type="qcurve"/>
      <point x="1145" y="168"/>
      <point x="1135" y="367"/>
    </contour>
  </outline>
</glyph>
<glyph name="uniE614" format="2">
  <advance width="1200"/>
  <unicode hex="E714"/>
  <note>
uniE614
</note>
  <outline>
    <contour>
      <point x="20" y="1171" type="line"/>
      <point x="20" y="1171" type="line"/>
      <point x="20" y="1061" type="line"/>
      <point x="710" y="1061" type="line"/>
      <point x="710" y="1282" type="line"/>
      <point x="20" y="1282" type="line"/>
    </contour>
    <contour>
      <point x="959" y="1171" type="line"/>
      <point x="959" y="1171" type="line"/>
      <point x="959" y="1061" type="line"/>
      <point x="1180" y="1061" type="line"/>
      <point x="1180" y="1282" type="line"/>
      <point x="959" y="1282" type="line"/>
    </contour>
    <contour>
      <point x="20" y="702" type="line"/>
      <point x="20" y="702" type="line"/>
      <point x="20" y="593" type="line"/>
      <point x="1180" y="593" type="line"/>
      <point x="1180" y="812" type="line"/>
      <point x="20" y="812" type="line"/>
    </contour>
    <contour>
      <point x="20" y="240" type="line"/>
      <point x="20" y="240" type="line"/>
      <point x="20" y="138" type="line"/>
      <point x="475" y="138" type="line"/>
      <point x="475" y="343" type="line"/>
      <point x="20" y="343" type="line"/>
    </contour>
    <contour>
      <point x="725" y="240" type="line"/>
      <point x="725" y="240" type="line"/>
      <point x="725" y="138" type="line"/>
      <point x="1180" y="138" type="line"/>
      <point x="1180" y="343" type="line"/>
      <point x="725" y="343" type="line"/>
    </contour>
  </outline>
</glyph>
<glyph name="uniE615" format="2">
  <advance width="1200"/>
  <unicode hex="E715"/>
  <note>
uniE615
</note>
  <outline>
    <contour>
      <point x="297" y="816" type="qcurve"/>
      <point x="297" y="816" type="line"/>
      <point x="297" y="816" type="line"/>
      <point x="297" y="816" type="line"/>
      <point x="290" y="814"/>
      <point x="278" y="814"/>
      <point x="273" y="816" type="qcurve"/>
      <point x="273" y="816" type="line"/>
      <point x="251" y="763"/>
      <point x="203" y="649"/>
      <point x="181" y="604" type="qcurve"/>
      <point x="181" y="604" type="line"/>
      <point x="181" y="604" type="line"/>
      <point x="192" y="606"/>
      <point x="210" y="605"/>
      <point x="216" y="604" type="qcurve"/>
      <point x="216" y="604"/>
      <point x="216" y="604"/>
      <point x="216" y="604" type="qcurve"/>
      <point x="216" y="604" type="line"/>
      <point x="222" y="618"/>
      <point x="234" y="650"/>
      <point x="241" y="666" type="qcurve"/>
      <point x="241" y="666" type="line"/>
      <point x="263" y="666"/>
      <point x="306" y="666"/>
      <point x="328" y="666" type="qcurve"/>
      <point x="328" y="666" type="line"/>
      <point x="335" y="650"/>
      <point x="346" y="619"/>
      <point x="353" y="604" type="qcurve"/>
      <point x="353" y="604" type="line"/>
      <point x="353" y="604"/>
      <point x="353" y="604"/>
      <point x="353" y="604" type="qcurve"/>
      <point x="362" y="606"/>
      <point x="381" y="605"/>
      <point x="388" y="604" type="qcurve"/>
      <point x="388" y="604" type="line"/>
      <point x="388" y="604" type="line"/>
      <point x="388" y="604" type="line"/>
      <point x="372" y="634"/>
      <point x="317" y="764"/>
    </contour>
    <contour>
      <point x="322" y="681" type="line"/>
      <point x="322" y="681" type="line"/>
      <point x="304" y="680"/>
      <point x="266" y="680"/>
      <point x="247" y="681" type="qcurve"/>
      <point x="247" y="681" type="line"/>
      <point x="259" y="710"/>
      <point x="278" y="763"/>
      <point x="284" y="779" type="qcurve"/>
      <point x="293" y="755"/>
      <point x="313" y="705"/>
      <point x="322" y="681" type="qcurve"/>
    </contour>
    <contour>
      <point x="181" y="604" type="line"/>
      <point x="181" y="604" type="line"/>
      <point x="181" y="604"/>
      <point x="181" y="604"/>
      <point x="181" y="604" type="qcurve"/>
      <point x="181" y="604" type="line"/>
    </contour>
    <contour>
      <point x="232" y="845" type="qcurve"/>
      <point x="232" y="845" type="line"/>
      <point x="232" y="845"/>
      <point x="232" y="845"/>
      <point x="232" y="845" type="qcurve"/>
      <point x="232" y="845" type="line"/>
      <point x="223" y="843"/>
      <point x="206" y="843"/>
      <point x="196" y="845" type="qcurve"/>
      <point x="190" y="830"/>
      <point x="143" y="755"/>
      <point x="126" y="726" type="qcurve"/>
      <point x="108" y="756"/>
      <point x="70" y="820"/>
      <point x="56" y="845" type="qcurve"/>
      <point x="44" y="843"/>
      <point x="30" y="841"/>
      <point x="20" y="845" type="qcurve"/>
      <point x="42" y="811"/>
      <point x="100" y="711"/>
      <point x="111" y="690" type="qcurve"/>
      <point x="109" y="576" type="line"/>
      <point x="109" y="576"/>
      <point x="121" y="577"/>
      <point x="126" y="577" type="qcurve" smooth="yes"/>
      <point x="132" y="577"/>
      <point x="143" y="576"/>
      <point x="143" y="576" type="qcurve"/>
      <point x="141" y="690" type="line"/>
      <point x="163" y="728"/>
      <point x="223" y="831"/>
    </contour>
    <contour>
      <point x="710" y="820" type="qcurve"/>
      <point x="710" y="820" type="line"/>
      <point x="653" y="820"/>
      <point x="595" y="756"/>
      <point x="595" y="710" type="qcurve" smooth="yes"/>
      <point x="595" y="659"/>
      <point x="657" y="600"/>
      <point x="710" y="600" type="qcurve" smooth="yes"/>
      <point x="767" y="600"/>
      <point x="825" y="663"/>
      <point x="825" y="709" type="qcurve" smooth="yes"/>
      <point x="825" y="761"/>
      <point x="763" y="820"/>
    </contour>
    <contour>
      <point x="710" y="613" type="line"/>
      <point x="744" y="613"/>
      <point x="789" y="660"/>
      <point x="789" y="710" type="qcurve" smooth="yes"/>
      <point x="789" y="758"/>
      <point x="744" y="806"/>
      <point x="710" y="806" type="qcurve"/>
      <point x="710" y="806"/>
      <point x="708" y="806"/>
      <point x="708" y="806" type="qcurve"/>
      <point x="677" y="806"/>
      <point x="630" y="761"/>
      <point x="630" y="709" type="qcurve" smooth="yes"/>
      <point x="630" y="664"/>
      <point x="673" y="613"/>
      <point x="710" y="613" type="qcurve"/>
    </contour>
    <contour>
      <point x="1125" y="610" type="qcurve"/>
      <point x="1125" y="610" type="line"/>
      <point x="1117" y="610"/>
      <point x="1109" y="598"/>
      <point x="1109" y="591" type="qcurve" smooth="yes"/>
      <point x="1109" y="583"/>
      <point x="1119" y="575"/>
      <point x="1127" y="575" type="qcurve" smooth="yes"/>
      <point x="1133" y="575"/>
      <point x="1143" y="583"/>
      <point x="1143" y="592" type="qcurve" smooth="yes"/>
      <point x="1143" y="600"/>
      <point x="1133" y="610"/>
    </contour>
    <contour>
      <point x="1165" y="841" type="qcurve"/>
      <point x="1165" y="841" type="line"/>
      <point x="1165" y="841" type="line"/>
      <point x="1165" y="841" type="line"/>
      <point x="1165" y="841"/>
      <point x="1163" y="841"/>
      <point x="1162" y="841" type="qcurve" smooth="yes"/>
      <point x="1156" y="841"/>
      <point x="1144" y="833"/>
      <point x="1144" y="824" type="qcurve" smooth="yes"/>
      <point x="1141" y="776"/>
      <point x="1133" y="681"/>
      <point x="1126" y="635" type="qcurve"/>
      <point x="1126" y="635" type="line"/>
      <point x="1126" y="635"/>
      <point x="1126" y="635"/>
      <point x="1126" y="635" type="qcurve"/>
      <point x="1126" y="635" type="line"/>
      <point x="1126" y="635" type="line"/>
      <point x="1129" y="635"/>
      <point x="1136" y="634"/>
      <point x="1138" y="633" type="qcurve"/>
      <point x="1138" y="633" type="line"/>
      <point x="1147" y="679"/>
      <point x="1173" y="794"/>
      <point x="1178" y="814" type="qcurve" smooth="yes"/>
      <point x="1179" y="817"/>
      <point x="1180" y="823"/>
      <point x="1180" y="825" type="qcurve" smooth="yes"/>
      <point x="1180" y="832"/>
      <point x="1172" y="840"/>
    </contour>
    <contour>
      <point x="969" y="832" type="qcurve"/>
      <point x="969" y="832" type="line"/>
      <point x="914" y="832"/>
      <point x="838" y="770"/>
      <point x="838" y="710" type="qcurve" smooth="yes"/>
      <point x="838" y="662"/>
      <point x="899" y="588"/>
      <point x="970" y="588" type="qcurve" smooth="yes"/>
      <point x="1030" y="588"/>
      <point x="1103" y="651"/>
      <point x="1103" y="709" type="qcurve" smooth="yes"/>
      <point x="1103" y="764"/>
      <point x="1032" y="832"/>
    </contour>
    <contour>
      <point x="969" y="600" type="qcurve"/>
      <point x="969" y="600" type="line"/>
      <point x="931" y="600"/>
      <point x="872" y="650"/>
      <point x="872" y="711" type="qcurve" smooth="yes"/>
      <point x="872" y="773"/>
      <point x="936" y="818"/>
      <point x="969" y="818" type="qcurve" smooth="yes"/>
      <point x="1012" y="818"/>
      <point x="1067" y="765"/>
      <point x="1067" y="709" type="qcurve" smooth="yes"/>
      <point x="1067" y="648"/>
      <point x="1005" y="600"/>
    </contour>
    <contour>
      <point x="549" y="816" type="qcurve"/>
      <point x="549" y="816" type="line"/>
      <point x="550" y="792"/>
      <point x="553" y="742"/>
      <point x="553" y="717" type="qcurve"/>
      <point x="523" y="716"/>
      <point x="463" y="716"/>
      <point x="434" y="717" type="qcurve"/>
      <point x="434" y="742"/>
      <point x="435" y="792"/>
      <point x="436" y="816" type="qcurve"/>
      <point x="428" y="814"/>
      <point x="410" y="814"/>
      <point x="401" y="816" type="qcurve"/>
      <point x="403" y="763"/>
      <point x="403" y="657"/>
      <point x="401" y="604" type="qcurve"/>
      <point x="410" y="606"/>
      <point x="427" y="606"/>
      <point x="436" y="604" type="qcurve"/>
      <point x="436" y="604" type="line"/>
      <point x="436" y="604" type="line"/>
      <point x="435" y="628"/>
      <point x="434" y="678"/>
      <point x="434" y="702" type="qcurve"/>
      <point x="463" y="703"/>
      <point x="523" y="703"/>
      <point x="553" y="703" type="qcurve"/>
      <point x="553" y="678"/>
      <point x="550" y="628"/>
      <point x="549" y="604" type="qcurve"/>
      <point x="549" y="604" type="line"/>
      <point x="549" y="604" type="line"/>
      <point x="558" y="606"/>
      <point x="577" y="606"/>
      <point x="585" y="604" type="qcurve"/>
      <point x="583" y="657"/>
      <point x="583" y="763"/>
      <point x="585" y="816" type="qcurve"/>
      <point x="576" y="814"/>
      <point x="558" y="814"/>
    </contour>
  </outline>
</glyph>
<glyph name="uniE616" format="2">
  <advance width="1200"/>
  <unicode hex="E716"/>
  <note>
uniE616
</note>
  <outline>
    <contour>
      <point x="1180" y="895" type="qcurve"/>
      <point x="1180" y="895" type="line"/>
      <point x="1180" y="897"/>
      <point x="1178" y="899"/>
      <point x="1178" y="900" type="qcurve"/>
      <point x="1178" y="900"/>
      <point x="1178" y="902"/>
      <point x="1178" y="902" type="qcurve"/>
      <point x="1178" y="903"/>
      <point x="1177" y="905"/>
      <point x="1177" y="905" type="qcurve"/>
      <point x="1177" y="907"/>
      <point x="1175" y="907"/>
      <point x="1175" y="908" type="qcurve"/>
      <point x="1175" y="908"/>
      <point x="1174" y="910"/>
      <point x="1174" y="911" type="qcurve"/>
      <point x="1174" y="911"/>
      <point x="1174" y="913"/>
      <point x="1172" y="913" type="qcurve"/>
      <point x="1172" y="915"/>
      <point x="1170" y="916"/>
      <point x="1170" y="916" type="qcurve"/>
      <point x="1170" y="918"/>
      <point x="1169" y="918"/>
      <point x="1169" y="919" type="qcurve"/>
      <point x="1169" y="919"/>
      <point x="1167" y="921"/>
      <point x="1166" y="921" type="qcurve"/>
      <point x="1166" y="923"/>
      <point x="1164" y="923"/>
      <point x="1164" y="923" type="qcurve"/>
      <point x="1164" y="924"/>
      <point x="1162" y="926"/>
      <point x="1161" y="926" type="qcurve"/>
      <point x="1161" y="926"/>
      <point x="1159" y="928"/>
      <point x="1159" y="928" type="qcurve"/>
      <point x="1159" y="928"/>
      <point x="1159" y="928"/>
      <point x="1157" y="928" type="qcurve"/>
      <point x="627" y="1282" type="line" smooth="yes"/>
      <point x="615" y="1290"/>
      <point x="586" y="1290"/>
      <point x="573" y="1282" type="qcurve" smooth="yes"/>
      <point x="43" y="928" type="line"/>
      <point x="41" y="928"/>
      <point x="41" y="928"/>
      <point x="41" y="928" type="qcurve"/>
      <point x="41" y="928"/>
      <point x="39" y="926"/>
      <point x="39" y="926" type="qcurve"/>
      <point x="38" y="926"/>
      <point x="36" y="924"/>
      <point x="36" y="923" type="qcurve"/>
      <point x="36" y="923"/>
      <point x="35" y="923"/>
      <point x="35" y="921" type="qcurve"/>
      <point x="33" y="921"/>
      <point x="31" y="919"/>
      <point x="31" y="919" type="qcurve"/>
      <point x="31" y="918"/>
      <point x="30" y="918"/>
      <point x="30" y="916" type="qcurve"/>
      <point x="30" y="916"/>
      <point x="28" y="915"/>
      <point x="28" y="913" type="qcurve"/>
      <point x="26" y="913"/>
      <point x="26" y="911"/>
      <point x="26" y="911" type="qcurve"/>
      <point x="26" y="910"/>
      <point x="25" y="908"/>
      <point x="25" y="908" type="qcurve"/>
      <point x="25" y="907"/>
      <point x="23" y="907"/>
      <point x="23" y="905" type="qcurve"/>
      <point x="23" y="905"/>
      <point x="22" y="903"/>
      <point x="22" y="902" type="qcurve"/>
      <point x="22" y="902"/>
      <point x="22" y="900"/>
      <point x="22" y="900" type="qcurve"/>
      <point x="22" y="899"/>
      <point x="20" y="897"/>
      <point x="20" y="895" type="qcurve"/>
      <point x="20" y="895"/>
      <point x="20" y="894"/>
      <point x="20" y="894" type="qcurve"/>
      <point x="20" y="892"/>
      <point x="20" y="889"/>
      <point x="20" y="887" type="qcurve" smooth="yes"/>
      <point x="20" y="533" type="line" smooth="yes"/>
      <point x="20" y="531"/>
      <point x="20" y="528"/>
      <point x="20" y="526" type="qcurve"/>
      <point x="20" y="526"/>
      <point x="20" y="525"/>
      <point x="20" y="525" type="qcurve"/>
      <point x="20" y="523"/>
      <point x="22" y="522"/>
      <point x="22" y="520" type="qcurve"/>
      <point x="22" y="520"/>
      <point x="22" y="518"/>
      <point x="22" y="518" type="qcurve"/>
      <point x="22" y="517"/>
      <point x="23" y="515"/>
      <point x="23" y="513" type="qcurve"/>
      <point x="23" y="513"/>
      <point x="25" y="512"/>
      <point x="25" y="512" type="qcurve"/>
      <point x="25" y="510"/>
      <point x="26" y="509"/>
      <point x="26" y="509" type="qcurve"/>
      <point x="26" y="507"/>
      <point x="26" y="507"/>
      <point x="28" y="505" type="qcurve"/>
      <point x="28" y="505"/>
      <point x="30" y="504"/>
      <point x="30" y="502" type="qcurve"/>
      <point x="30" y="502"/>
      <point x="31" y="501"/>
      <point x="31" y="501" type="qcurve"/>
      <point x="31" y="501"/>
      <point x="33" y="499"/>
      <point x="35" y="497" type="qcurve"/>
      <point x="35" y="497"/>
      <point x="36" y="497"/>
      <point x="36" y="496" type="qcurve"/>
      <point x="36" y="496"/>
      <point x="38" y="494"/>
      <point x="39" y="494" type="qcurve"/>
      <point x="39" y="494"/>
      <point x="41" y="493"/>
      <point x="41" y="493" type="qcurve"/>
      <point x="41" y="493"/>
      <point x="41" y="491"/>
      <point x="43" y="491" type="qcurve"/>
      <point x="573" y="138" type="line" smooth="yes"/>
      <point x="579" y="133"/>
      <point x="594" y="130"/>
      <point x="600" y="130" type="qcurve" smooth="yes"/>
      <point x="606" y="130"/>
      <point x="621" y="133"/>
      <point x="627" y="138" type="qcurve" smooth="yes"/>
      <point x="1157" y="491" type="line"/>
      <point x="1159" y="491"/>
      <point x="1159" y="493"/>
      <point x="1159" y="493" type="qcurve"/>
      <point x="1159" y="493"/>
      <point x="1161" y="494"/>
      <point x="1161" y="494" type="qcurve"/>
      <point x="1162" y="494"/>
      <point x="1164" y="496"/>
      <point x="1164" y="496" type="qcurve"/>
      <point x="1164" y="497"/>
      <point x="1166" y="497"/>
      <point x="1166" y="497" type="qcurve"/>
      <point x="1167" y="499"/>
      <point x="1169" y="501"/>
      <point x="1169" y="501" type="qcurve"/>
      <point x="1169" y="501"/>
      <point x="1170" y="502"/>
      <point x="1170" y="502" type="qcurve"/>
      <point x="1170" y="504"/>
      <point x="1172" y="505"/>
      <point x="1172" y="505" type="qcurve"/>
      <point x="1174" y="507"/>
      <point x="1174" y="507"/>
      <point x="1174" y="509" type="qcurve"/>
      <point x="1174" y="509"/>
      <point x="1175" y="510"/>
      <point x="1175" y="512" type="qcurve"/>
      <point x="1175" y="512"/>
      <point x="1177" y="513"/>
      <point x="1177" y="513" type="qcurve"/>
      <point x="1177" y="515"/>
      <point x="1178" y="517"/>
      <point x="1178" y="518" type="qcurve"/>
      <point x="1178" y="518"/>
      <point x="1178" y="520"/>
      <point x="1178" y="520" type="qcurve"/>
      <point x="1178" y="522"/>
      <point x="1180" y="523"/>
      <point x="1180" y="525" type="qcurve"/>
      <point x="1180" y="525"/>
      <point x="1180" y="526"/>
      <point x="1180" y="526" type="qcurve"/>
      <point x="1180" y="528"/>
      <point x="1180" y="531"/>
      <point x="1180" y="533" type="qcurve" smooth="yes"/>
      <point x="1180" y="887" type="line" smooth="yes"/>
      <point x="1180" y="889"/>
      <point x="1180" y="892"/>
      <point x="1180" y="894" type="qcurve"/>
      <point x="1180" y="894"/>
      <point x="1180" y="895"/>
    </contour>
    <contour>
      <point x="600" y="592" type="line"/>
      <point x="600" y="592" type="line"/>
      <point x="424" y="710" type="line"/>
      <point x="600" y="828" type="line"/>
      <point x="777" y="710" type="line"/>
    </contour>
    <contour>
      <point x="550" y="915" type="line"/>
      <point x="550" y="915" type="line"/>
      <point x="334" y="770" type="line"/>
      <point x="159" y="887" type="line"/>
      <point x="550" y="1147" type="line"/>
    </contour>
    <contour>
      <point x="244" y="710" type="line"/>
      <point x="244" y="710" type="line"/>
      <point x="120" y="626" type="line"/>
      <point x="120" y="794" type="line"/>
    </contour>
    <contour>
      <point x="334" y="650" type="line"/>
      <point x="159" y="533" type="line"/>
      <point x="550" y="272" type="line"/>
      <point x="550" y="505" type="line"/>
      <point x="334" y="650" type="line"/>
    </contour>
    <contour>
      <point x="650" y="505" type="line"/>
      <point x="650" y="272" type="line"/>
      <point x="1041" y="533" type="line"/>
      <point x="866" y="650" type="line"/>
      <point x="650" y="505" type="line"/>
    </contour>
    <contour>
      <point x="956" y="710" type="line"/>
      <point x="956" y="710" type="line"/>
      <point x="1080" y="794" type="line"/>
      <point x="1080" y="626" type="line"/>
    </contour>
    <contour>
      <point x="866" y="770" type="line"/>
      <point x="866" y="770" type="line"/>
      <point x="650" y="915" type="line"/>
      <point x="650" y="1147" type="line"/>
      <point x="1041" y="887" type="line"/>
    </contour>
  </outline>
</glyph>
<glyph name="uniE617" format="2">
  <advance width="1200"/>
  <unicode hex="E717"/>
  <note>
uniE617
</note>
  <outline>
    <contour>
      <point x="245" y="734" type="qcurve"/>
      <point x="245" y="734" type="line"/>
      <point x="147" y="734" type="line" smooth="yes"/>
      <point x="145" y="734"/>
      <point x="142" y="730"/>
      <point x="142" y="729" type="qcurve" smooth="yes"/>
      <point x="142" y="681" type="line" smooth="yes"/>
      <point x="142" y="678"/>
      <point x="145" y="676"/>
      <point x="147" y="676" type="qcurve" smooth="yes"/>
      <point x="185" y="676" type="line"/>
      <point x="185" y="617" type="line"/>
      <point x="185" y="617"/>
      <point x="170" y="614"/>
      <point x="153" y="614" type="qcurve" smooth="yes"/>
      <point x="132" y="614"/>
      <point x="86" y="646"/>
      <point x="86" y="709" type="qcurve" smooth="yes"/>
      <point x="86" y="774"/>
      <point x="135" y="807"/>
      <point x="164" y="807" type="qcurve" smooth="yes"/>
      <point x="190" y="807"/>
      <point x="214" y="801"/>
      <point x="221" y="798" type="qcurve"/>
      <point x="223" y="798"/>
      <point x="226" y="801"/>
      <point x="226" y="803" type="qcurve"/>
      <point x="237" y="849" type="line" smooth="yes"/>
      <point x="237" y="850"/>
      <point x="237" y="852"/>
      <point x="236" y="852" type="qcurve"/>
      <point x="232" y="855"/>
      <point x="195" y="867"/>
      <point x="153" y="867" type="qcurve" smooth="yes"/>
      <point x="104" y="867"/>
      <point x="20" y="806"/>
      <point x="20" y="706" type="qcurve" smooth="yes"/>
      <point x="20" y="607"/>
      <point x="113" y="553"/>
      <point x="162" y="553" type="qcurve" smooth="yes"/>
      <point x="202" y="553"/>
      <point x="247" y="576"/>
      <point x="247" y="576" type="qcurve"/>
      <point x="248" y="577"/>
      <point x="249" y="579"/>
      <point x="249" y="579" type="qcurve"/>
      <point x="249" y="729" type="line" smooth="yes"/>
      <point x="249" y="730"/>
      <point x="246" y="734"/>
    </contour>
    <contour>
      <point x="740" y="857" type="qcurve"/>
      <point x="740" y="857" type="line"/>
      <point x="684" y="857" type="line" smooth="yes"/>
      <point x="683" y="857"/>
      <point x="680" y="854"/>
      <point x="680" y="852" type="qcurve" smooth="yes"/>
      <point x="680" y="745" type="line"/>
      <point x="594" y="745" type="line"/>
      <point x="594" y="852" type="line" smooth="yes"/>
      <point x="594" y="854"/>
      <point x="592" y="857"/>
      <point x="590" y="857" type="qcurve" smooth="yes"/>
      <point x="534" y="857" type="line" smooth="yes"/>
      <point x="532" y="857"/>
      <point x="530" y="854"/>
      <point x="530" y="852" type="qcurve" smooth="yes"/>
      <point x="530" y="563" type="line" smooth="yes"/>
      <point x="530" y="562"/>
      <point x="532" y="560"/>
      <point x="534" y="560" type="qcurve" smooth="yes"/>
      <point x="590" y="560" type="line" smooth="yes"/>
      <point x="592" y="560"/>
      <point x="594" y="562"/>
      <point x="594" y="563" type="qcurve" smooth="yes"/>
      <point x="594" y="686" type="line"/>
      <point x="680" y="686" type="line"/>
      <point x="680" y="563" type="line" smooth="yes"/>
      <point x="680" y="562"/>
      <point x="682" y="560"/>
      <point x="684" y="560" type="qcurve" smooth="yes"/>
      <point x="740" y="560" type="line" smooth="yes"/>
      <point x="742" y="560"/>
      <point x="744" y="562"/>
      <point x="744" y="563" type="qcurve" smooth="yes"/>
      <point x="744" y="852" type="line" smooth="yes"/>
      <point x="744" y="854"/>
      <point x="742" y="857"/>
    </contour>
    <contour>
      <point x="311" y="850" type="qcurve"/>
      <point x="311" y="850" type="line"/>
      <point x="296" y="850"/>
      <point x="275" y="829"/>
      <point x="275" y="814" type="qcurve" smooth="yes"/>
      <point x="275" y="799"/>
      <point x="296" y="779"/>
      <point x="311" y="779" type="qcurve" smooth="yes"/>
      <point x="326" y="779"/>
      <point x="346" y="799"/>
      <point x="346" y="814" type="qcurve" smooth="yes"/>
      <point x="346" y="829"/>
      <point x="326" y="850"/>
    </contour>
    <contour>
      <point x="342" y="758" type="qcurve"/>
      <point x="342" y="758" type="line"/>
      <point x="342" y="759"/>
      <point x="339" y="762"/>
      <point x="337" y="762" type="qcurve" smooth="yes"/>
      <point x="283" y="762" type="line" smooth="yes"/>
      <point x="281" y="762"/>
      <point x="278" y="759"/>
      <point x="278" y="757" type="qcurve"/>
      <point x="278" y="757"/>
      <point x="278" y="590"/>
      <point x="278" y="566" type="qcurve" smooth="yes"/>
      <point x="278" y="562"/>
      <point x="283" y="560"/>
      <point x="286" y="560" type="qcurve"/>
      <point x="286" y="560"/>
      <point x="315" y="560"/>
      <point x="335" y="560" type="qcurve" smooth="yes"/>
      <point x="339" y="560"/>
      <point x="342" y="563"/>
      <point x="342" y="566" type="qcurve" smooth="yes"/>
      <point x="342" y="575"/>
      <point x="342" y="618"/>
      <point x="342" y="624" type="qcurve" smooth="yes"/>
      <point x="342" y="630"/>
      <point x="342" y="758"/>
    </contour>
    <contour>
      <point x="953" y="761" type="qcurve"/>
      <point x="953" y="761" type="line"/>
      <point x="899" y="761" type="line" smooth="yes"/>
      <point x="896" y="761"/>
      <point x="894" y="759"/>
      <point x="894" y="757" type="qcurve" smooth="yes"/>
      <point x="894" y="616" type="line"/>
      <point x="894" y="616"/>
      <point x="874" y="606"/>
      <point x="861" y="606" type="qcurve" smooth="yes"/>
      <point x="846" y="606"/>
      <point x="835" y="619"/>
      <point x="835" y="633" type="qcurve" smooth="yes"/>
      <point x="835" y="648"/>
      <point x="835" y="757"/>
      <point x="835" y="757" type="qcurve"/>
      <point x="835" y="759"/>
      <point x="833" y="761"/>
      <point x="831" y="761" type="qcurve" smooth="yes"/>
      <point x="775" y="761" type="line" smooth="yes"/>
      <point x="773" y="761"/>
      <point x="771" y="759"/>
      <point x="771" y="757" type="qcurve"/>
      <point x="771" y="757"/>
      <point x="771" y="668"/>
      <point x="771" y="624" type="qcurve" smooth="yes"/>
      <point x="771" y="581"/>
      <point x="813" y="553"/>
      <point x="847" y="553" type="qcurve" smooth="yes"/>
      <point x="873" y="553"/>
      <point x="911" y="573"/>
      <point x="911" y="573" type="qcurve"/>
      <point x="911" y="573"/>
      <point x="914" y="562"/>
      <point x="914" y="561" type="qcurve"/>
      <point x="914" y="561"/>
      <point x="916" y="558"/>
      <point x="918" y="558" type="qcurve" smooth="yes"/>
      <point x="953" y="558" type="line" smooth="yes"/>
      <point x="955" y="558"/>
      <point x="957" y="562"/>
      <point x="957" y="563" type="qcurve" smooth="yes"/>
      <point x="957" y="757" type="line" smooth="yes"/>
      <point x="957" y="759"/>
      <point x="955" y="761"/>
    </contour>
    <contour>
      <point x="1103" y="768" type="qcurve"/>
      <point x="1103" y="768" type="line"/>
      <point x="1080" y="768"/>
      <point x="1051" y="754"/>
      <point x="1051" y="754" type="qcurve"/>
      <point x="1051" y="852" type="line" smooth="yes"/>
      <point x="1051" y="854"/>
      <point x="1047" y="857"/>
      <point x="1046" y="857" type="qcurve" smooth="yes"/>
      <point x="991" y="857" type="line" smooth="yes"/>
      <point x="989" y="857"/>
      <point x="986" y="854"/>
      <point x="986" y="852" type="qcurve" smooth="yes"/>
      <point x="986" y="563" type="line" smooth="yes"/>
      <point x="986" y="562"/>
      <point x="989" y="558"/>
      <point x="991" y="558" type="qcurve"/>
      <point x="991" y="558"/>
      <point x="1029" y="558"/>
      <point x="1029" y="558" type="qcurve"/>
      <point x="1030" y="558"/>
      <point x="1032" y="561"/>
      <point x="1034" y="562" type="qcurve"/>
      <point x="1034" y="563"/>
      <point x="1036" y="575"/>
      <point x="1036" y="575" type="qcurve"/>
      <point x="1036" y="575"/>
      <point x="1068" y="554"/>
      <point x="1100" y="554" type="qcurve" smooth="yes"/>
      <point x="1138" y="554"/>
      <point x="1180" y="601"/>
      <point x="1180" y="668" type="qcurve" smooth="yes"/>
      <point x="1180" y="735"/>
      <point x="1126" y="768"/>
    </contour>
    <contour>
      <point x="1081" y="606" type="qcurve"/>
      <point x="1081" y="606" type="line"/>
      <point x="1067" y="606"/>
      <point x="1050" y="615"/>
      <point x="1050" y="615" type="qcurve"/>
      <point x="1050" y="706" type="line"/>
      <point x="1050" y="706"/>
      <point x="1066" y="714"/>
      <point x="1077" y="715" type="qcurve" smooth="yes"/>
      <point x="1092" y="716"/>
      <point x="1117" y="699"/>
      <point x="1117" y="664" type="qcurve" smooth="yes"/>
      <point x="1117" y="628"/>
      <point x="1100" y="604"/>
    </contour>
    <contour>
      <point x="501" y="607" type="qcurve"/>
      <point x="501" y="607" type="line"/>
      <point x="500" y="607"/>
      <point x="492" y="606"/>
      <point x="486" y="606" type="qcurve" smooth="yes"/>
      <point x="471" y="606"/>
      <point x="459" y="618"/>
      <point x="459" y="628" type="qcurve" smooth="yes"/>
      <point x="459" y="637"/>
      <point x="459" y="708"/>
      <point x="459" y="708" type="qcurve"/>
      <point x="501" y="708" type="line" smooth="yes"/>
      <point x="502" y="708"/>
      <point x="505" y="711"/>
      <point x="505" y="713" type="qcurve" smooth="yes"/>
      <point x="505" y="758" type="line" smooth="yes"/>
      <point x="505" y="759"/>
      <point x="502" y="762"/>
      <point x="501" y="762" type="qcurve" smooth="yes"/>
      <point x="459" y="762" type="line"/>
      <point x="459" y="817" type="line" smooth="yes"/>
      <point x="459" y="818"/>
      <point x="457" y="820"/>
      <point x="456" y="820" type="qcurve" smooth="yes"/>
      <point x="399" y="820" type="line" smooth="yes"/>
      <point x="398" y="820"/>
      <point x="396" y="818"/>
      <point x="396" y="817" type="qcurve" smooth="yes"/>
      <point x="396" y="760" type="line"/>
      <point x="396" y="760"/>
      <point x="367" y="753"/>
      <point x="366" y="753" type="qcurve"/>
      <point x="365" y="752"/>
      <point x="362" y="750"/>
      <point x="362" y="749" type="qcurve" smooth="yes"/>
      <point x="362" y="713" type="line" smooth="yes"/>
      <point x="362" y="711"/>
      <point x="365" y="708"/>
      <point x="367" y="708" type="qcurve" smooth="yes"/>
      <point x="396" y="708" type="line"/>
      <point x="396" y="708"/>
      <point x="396" y="660"/>
      <point x="396" y="623" type="qcurve" smooth="yes"/>
      <point x="396" y="576"/>
      <point x="448" y="554"/>
      <point x="471" y="554" type="qcurve" smooth="yes"/>
      <point x="480" y="554"/>
      <point x="501" y="558"/>
      <point x="503" y="560" type="qcurve"/>
      <point x="504" y="560"/>
      <point x="505" y="562"/>
      <point x="505" y="563" type="qcurve" smooth="yes"/>
      <point x="505" y="602" type="line" smooth="yes"/>
      <point x="505" y="604"/>
      <point x="503" y="607"/>
    </contour>
  </outline>
</glyph>
<glyph name="uniE618" format="2">
  <advance width="1200"/>
  <unicode hex="E718"/>
  <note>
uniE618
</note>
  <outline>
    <contour>
      <point x="600" y="56" type="line"/>
      <point x="613" y="56"/>
      <point x="639" y="64"/>
      <point x="650" y="71" type="qcurve" smooth="yes"/>
      <point x="1130" y="346" type="line" smooth="yes"/>
      <point x="1152" y="361"/>
      <point x="1180" y="408"/>
      <point x="1180" y="434" type="qcurve" smooth="yes"/>
      <point x="1180" y="988" type="line" smooth="yes"/>
      <point x="1180" y="1014"/>
      <point x="1152" y="1061"/>
      <point x="1130" y="1075" type="qcurve" smooth="yes"/>
      <point x="650" y="1351" type="line" smooth="yes"/>
      <point x="628" y="1364"/>
      <point x="572" y="1364"/>
      <point x="550" y="1351" type="qcurve" smooth="yes"/>
      <point x="70" y="1075" type="line" smooth="yes"/>
      <point x="48" y="1061"/>
      <point x="20" y="1014"/>
      <point x="20" y="988" type="qcurve" smooth="yes"/>
      <point x="20" y="434" type="line" smooth="yes"/>
      <point x="20" y="408"/>
      <point x="48" y="361"/>
      <point x="70" y="346" type="qcurve" smooth="yes"/>
      <point x="197" y="275" type="line" smooth="yes"/>
      <point x="242" y="252"/>
      <point x="286" y="244"/>
      <point x="307" y="244" type="qcurve" smooth="yes"/>
      <point x="375" y="244"/>
      <point x="448" y="324"/>
      <point x="448" y="395" type="qcurve" smooth="yes"/>
      <point x="448" y="941" type="line" smooth="yes"/>
      <point x="448" y="946"/>
      <point x="440" y="954"/>
      <point x="435" y="954" type="qcurve" smooth="yes"/>
      <point x="373" y="954" type="line" smooth="yes"/>
      <point x="368" y="954"/>
      <point x="360" y="946"/>
      <point x="360" y="941" type="qcurve" smooth="yes"/>
      <point x="360" y="395" type="line" smooth="yes"/>
      <point x="360" y="362"/>
      <point x="299" y="319"/>
      <point x="245" y="346" type="qcurve" smooth="yes"/>
      <point x="114" y="421" type="line"/>
      <point x="111" y="424"/>
      <point x="106" y="431"/>
      <point x="106" y="434" type="qcurve" smooth="yes"/>
      <point x="106" y="988" type="line" smooth="yes"/>
      <point x="106" y="991"/>
      <point x="111" y="999"/>
      <point x="114" y="1001" type="qcurve" smooth="yes"/>
      <point x="592" y="1276" type="line"/>
      <point x="595" y="1279"/>
      <point x="603" y="1279"/>
      <point x="608" y="1276" type="qcurve" smooth="yes"/>
      <point x="1086" y="1001" type="line" smooth="yes"/>
      <point x="1089" y="999"/>
      <point x="1094" y="991"/>
      <point x="1094" y="988" type="qcurve" smooth="yes"/>
      <point x="1094" y="434" type="line" smooth="yes"/>
      <point x="1094" y="431"/>
      <point x="1089" y="424"/>
      <point x="1086" y="421" type="qcurve"/>
      <point x="606" y="145" type="line"/>
      <point x="605" y="144"/>
      <point x="595" y="144"/>
      <point x="592" y="145" type="qcurve" smooth="yes"/>
      <point x="469" y="218" type="line"/>
      <point x="467" y="220"/>
      <point x="461" y="220"/>
      <point x="457" y="218" type="qcurve" smooth="yes"/>
      <point x="432" y="204"/>
      <point x="409" y="194"/>
      <point x="385" y="186" type="qcurve" smooth="yes"/>
      <point x="380" y="184"/>
      <point x="372" y="175"/>
      <point x="389" y="165" type="qcurve" smooth="yes"/>
      <point x="550" y="71" type="line" smooth="yes"/>
      <point x="561" y="64"/>
      <point x="587" y="56"/>
      <point x="600" y="56" type="qcurve"/>
    </contour>
    <contour>
      <point x="747" y="437" type="line"/>
      <point x="862" y="437"/>
      <point x="987" y="524"/>
      <point x="987" y="602" type="qcurve" smooth="yes"/>
      <point x="987" y="680"/>
      <point x="880" y="738"/>
      <point x="770" y="753" type="qcurve" smooth="yes"/>
      <point x="658" y="768"/>
      <point x="605" y="792"/>
      <point x="605" y="818" type="qcurve" smooth="yes"/>
      <point x="605" y="839"/>
      <point x="645" y="884"/>
      <point x="728" y="884" type="qcurve" smooth="yes"/>
      <point x="803" y="884"/>
      <point x="867" y="847"/>
      <point x="879" y="797" type="qcurve"/>
      <point x="879" y="792"/>
      <point x="887" y="785"/>
      <point x="892" y="785" type="qcurve" smooth="yes"/>
      <point x="953" y="785" type="line" smooth="yes"/>
      <point x="956" y="785"/>
      <point x="961" y="789"/>
      <point x="965" y="790" type="qcurve" smooth="yes"/>
      <point x="966" y="792"/>
      <point x="968" y="798"/>
      <point x="968" y="802" type="qcurve" smooth="yes"/>
      <point x="960" y="887"/>
      <point x="843" y="968"/>
      <point x="728" y="968" type="qcurve" smooth="yes"/>
      <point x="626" y="968"/>
      <point x="511" y="887"/>
      <point x="511" y="814" type="qcurve" smooth="yes"/>
      <point x="511" y="735"/>
      <point x="624" y="677"/>
      <point x="723" y="667" type="qcurve" smooth="yes"/>
      <point x="840" y="656"/>
      <point x="892" y="622"/>
      <point x="892" y="599" type="qcurve" smooth="yes"/>
      <point x="892" y="559"/>
      <point x="824" y="521"/>
      <point x="747" y="521" type="qcurve" smooth="yes"/>
      <point x="653" y="521"/>
      <point x="590" y="570"/>
      <point x="584" y="617" type="qcurve" smooth="yes"/>
      <point x="584" y="622"/>
      <point x="576" y="628"/>
      <point x="571" y="628" type="qcurve" smooth="yes"/>
      <point x="508" y="628" type="line" smooth="yes"/>
      <point x="503" y="628"/>
      <point x="495" y="620"/>
      <point x="495" y="615" type="qcurve" smooth="yes"/>
      <point x="495" y="554"/>
      <point x="590" y="437"/>
      <point x="747" y="437" type="qcurve"/>
    </contour>
  </outline>
</glyph>
<glyph name="uniE619" format="2">
  <advance width="1200"/>
  <unicode hex="E719"/>
  <note>
uniE619
</note>
  <outline>
    <contour>
      <point x="202" y="700" type="line"/>
      <point x="202" y="700" type="line"/>
      <point x="202" y="702"/>
      <point x="199" y="707"/>
      <point x="198" y="708" type="qcurve"/>
      <point x="115" y="755" type="line"/>
      <point x="114" y="755"/>
      <point x="113" y="756"/>
      <point x="112" y="756" type="qcurve" smooth="yes"/>
      <point x="111" y="756"/>
      <point x="111" y="756"/>
      <point x="111" y="756" type="qcurve"/>
      <point x="109" y="756"/>
      <point x="107" y="755"/>
      <point x="106" y="755" type="qcurve"/>
      <point x="25" y="708" type="line" smooth="yes"/>
      <point x="22" y="707"/>
      <point x="20" y="702"/>
      <point x="20" y="700" type="qcurve" smooth="yes"/>
      <point x="20" y="573" type="line" smooth="yes"/>
      <point x="20" y="572"/>
      <point x="21" y="569"/>
      <point x="22" y="569" type="qcurve"/>
      <point x="23" y="568"/>
      <point x="26" y="568"/>
      <point x="27" y="569" type="qcurve"/>
      <point x="76" y="597" type="line" smooth="yes"/>
      <point x="78" y="598"/>
      <point x="80" y="603"/>
      <point x="80" y="605" type="qcurve" smooth="yes"/>
      <point x="80" y="665" type="line" smooth="yes"/>
      <point x="80" y="667"/>
      <point x="83" y="672"/>
      <point x="85" y="673" type="qcurve" smooth="yes"/>
      <point x="106" y="684" type="line"/>
      <point x="107" y="686"/>
      <point x="109" y="686"/>
      <point x="111" y="686" type="qcurve" smooth="yes"/>
      <point x="112" y="686"/>
      <point x="114" y="686"/>
      <point x="115" y="684" type="qcurve"/>
      <point x="136" y="673" type="line" smooth="yes"/>
      <point x="139" y="672"/>
      <point x="141" y="667"/>
      <point x="141" y="665" type="qcurve" smooth="yes"/>
      <point x="141" y="605" type="line" smooth="yes"/>
      <point x="141" y="603"/>
      <point x="144" y="598"/>
      <point x="147" y="597" type="qcurve" smooth="yes"/>
      <point x="194" y="569" type="line"/>
      <point x="196" y="568"/>
      <point x="199" y="568"/>
      <point x="200" y="569" type="qcurve"/>
      <point x="200" y="569"/>
      <point x="202" y="572"/>
      <point x="202" y="573" type="qcurve" smooth="yes"/>
    </contour>
    <contour>
      <point x="637" y="873" type="line"/>
      <point x="637" y="873" type="line"/>
      <point x="636" y="874"/>
      <point x="634" y="874"/>
      <point x="633" y="873" type="qcurve"/>
      <point x="631" y="873"/>
      <point x="630" y="870"/>
      <point x="630" y="869" type="qcurve" smooth="yes"/>
      <point x="630" y="744" type="line" smooth="yes"/>
      <point x="630" y="743"/>
      <point x="629" y="741"/>
      <point x="628" y="740" type="qcurve"/>
      <point x="628" y="740"/>
      <point x="626" y="740"/>
      <point x="624" y="740" type="qcurve"/>
      <point x="605" y="753" type="line" smooth="yes"/>
      <point x="602" y="754"/>
      <point x="597" y="754"/>
      <point x="594" y="753" type="qcurve" smooth="yes"/>
      <point x="513" y="705" type="line" smooth="yes"/>
      <point x="511" y="704"/>
      <point x="508" y="700"/>
      <point x="508" y="697" type="qcurve" smooth="yes"/>
      <point x="508" y="603" type="line" smooth="yes"/>
      <point x="508" y="601"/>
      <point x="511" y="596"/>
      <point x="513" y="594" type="qcurve"/>
      <point x="594" y="547" type="line" smooth="yes"/>
      <point x="597" y="546"/>
      <point x="602" y="546"/>
      <point x="605" y="547" type="qcurve" smooth="yes"/>
      <point x="686" y="594" type="line"/>
      <point x="688" y="596"/>
      <point x="691" y="601"/>
      <point x="691" y="603" type="qcurve" smooth="yes"/>
      <point x="691" y="838" type="line" smooth="yes"/>
      <point x="691" y="840"/>
      <point x="688" y="845"/>
      <point x="686" y="846" type="qcurve" smooth="yes"/>
    </contour>
    <contour>
      <point x="630" y="633" type="line"/>
      <point x="630" y="633" type="line"/>
      <point x="630" y="633"/>
      <point x="629" y="632"/>
      <point x="629" y="632" type="qcurve"/>
      <point x="601" y="616" type="line"/>
      <point x="600" y="615"/>
      <point x="599" y="615"/>
      <point x="598" y="616" type="qcurve"/>
      <point x="570" y="632" type="line"/>
      <point x="570" y="632"/>
      <point x="569" y="633"/>
      <point x="569" y="633" type="qcurve"/>
      <point x="569" y="666" type="line" smooth="yes"/>
      <point x="569" y="667"/>
      <point x="570" y="668"/>
      <point x="570" y="668" type="qcurve"/>
      <point x="598" y="684" type="line"/>
      <point x="599" y="684"/>
      <point x="600" y="684"/>
      <point x="601" y="684" type="qcurve"/>
      <point x="629" y="668" type="line"/>
      <point x="629" y="668"/>
      <point x="630" y="667"/>
      <point x="630" y="666" type="qcurve" smooth="yes"/>
    </contour>
    <contour>
      <point x="929" y="667" type="line"/>
      <point x="929" y="667" type="line"/>
      <point x="931" y="668"/>
      <point x="934" y="673"/>
      <point x="934" y="675" type="qcurve" smooth="yes"/>
      <point x="934" y="698" type="line" smooth="yes"/>
      <point x="934" y="701"/>
      <point x="931" y="705"/>
      <point x="929" y="707" type="qcurve" smooth="yes"/>
      <point x="848" y="754" type="line"/>
      <point x="846" y="755"/>
      <point x="841" y="755"/>
      <point x="838" y="754" type="qcurve" smooth="yes"/>
      <point x="757" y="707" type="line" smooth="yes"/>
      <point x="755" y="705"/>
      <point x="752" y="701"/>
      <point x="752" y="698" type="qcurve" smooth="yes"/>
      <point x="752" y="604" type="line" smooth="yes"/>
      <point x="752" y="602"/>
      <point x="755" y="597"/>
      <point x="757" y="596" type="qcurve" smooth="yes"/>
      <point x="838" y="550" type="line" smooth="yes"/>
      <point x="841" y="548"/>
      <point x="845" y="548"/>
      <point x="848" y="550" type="qcurve" smooth="yes"/>
      <point x="896" y="576" type="line"/>
      <point x="898" y="577"/>
      <point x="899" y="580"/>
      <point x="899" y="581" type="qcurve" smooth="yes"/>
      <point x="899" y="582"/>
      <point x="898" y="584"/>
      <point x="896" y="586" type="qcurve"/>
      <point x="815" y="632" type="line"/>
      <point x="814" y="633"/>
      <point x="812" y="636"/>
      <point x="812" y="637" type="qcurve" smooth="yes"/>
      <point x="812" y="666" type="line" smooth="yes"/>
      <point x="812" y="667"/>
      <point x="814" y="669"/>
      <point x="815" y="670" type="qcurve"/>
      <point x="841" y="684" type="line"/>
      <point x="841" y="686"/>
      <point x="844" y="686"/>
      <point x="845" y="684" type="qcurve"/>
      <point x="871" y="670" type="line"/>
      <point x="872" y="669"/>
      <point x="873" y="667"/>
      <point x="873" y="666" type="qcurve" smooth="yes"/>
      <point x="873" y="643" type="line" smooth="yes"/>
      <point x="873" y="641"/>
      <point x="874" y="639"/>
      <point x="875" y="639" type="qcurve"/>
      <point x="877" y="638"/>
      <point x="879" y="638"/>
      <point x="880" y="639" type="qcurve"/>
    </contour>
    <contour>
      <point x="350" y="754" type="line"/>
      <point x="269" y="708" type="line" smooth="yes"/>
      <point x="266" y="707"/>
      <point x="264" y="702"/>
      <point x="264" y="698" type="qcurve" smooth="yes"/>
      <point x="264" y="604" type="line" smooth="yes"/>
      <point x="264" y="602"/>
      <point x="266" y="597"/>
      <point x="269" y="596" type="qcurve" smooth="yes"/>
      <point x="350" y="548" type="line" smooth="yes"/>
      <point x="352" y="547"/>
      <point x="358" y="547"/>
      <point x="361" y="548" type="qcurve" smooth="yes"/>
      <point x="442" y="596" type="line" smooth="yes"/>
      <point x="444" y="597"/>
      <point x="447" y="602"/>
      <point x="447" y="604" type="qcurve" smooth="yes"/>
      <point x="447" y="698" type="line" smooth="yes"/>
      <point x="447" y="702"/>
      <point x="444" y="707"/>
      <point x="442" y="708" type="qcurve" smooth="yes"/>
      <point x="361" y="754" type="line" smooth="yes"/>
      <point x="358" y="755"/>
      <point x="352" y="755"/>
      <point x="350" y="754" type="qcurve"/>
    </contour>
    <contour>
      <point x="1087" y="547" type="line"/>
      <point x="1089" y="547"/>
      <point x="1094" y="548"/>
      <point x="1095" y="550" type="qcurve"/>
      <point x="1172" y="594" type="line" smooth="yes"/>
      <point x="1177" y="596"/>
      <point x="1180" y="604"/>
      <point x="1180" y="608" type="qcurve" smooth="yes"/>
      <point x="1180" y="697" type="line" smooth="yes"/>
      <point x="1180" y="701"/>
      <point x="1177" y="709"/>
      <point x="1172" y="711" type="qcurve" smooth="yes"/>
      <point x="1095" y="755" type="line" smooth="yes"/>
      <point x="1092" y="758"/>
      <point x="1084" y="758"/>
      <point x="1079" y="755" type="qcurve" smooth="yes"/>
      <point x="1002" y="711" type="line" smooth="yes"/>
      <point x="999" y="709"/>
      <point x="994" y="701"/>
      <point x="994" y="697" type="qcurve" smooth="yes"/>
      <point x="994" y="608" type="line" smooth="yes"/>
      <point x="994" y="604"/>
      <point x="999" y="596"/>
      <point x="1002" y="594" type="qcurve" smooth="yes"/>
      <point x="1023" y="582" type="line" smooth="yes"/>
      <point x="1030" y="579"/>
      <point x="1037" y="577"/>
      <point x="1041" y="577" type="qcurve" smooth="yes"/>
      <point x="1051" y="577"/>
      <point x="1063" y="590"/>
      <point x="1063" y="602" type="qcurve" smooth="yes"/>
      <point x="1063" y="689" type="line" smooth="yes"/>
      <point x="1063" y="690"/>
      <point x="1061" y="691"/>
      <point x="1061" y="691" type="qcurve"/>
      <point x="1051" y="691" type="line" smooth="yes"/>
      <point x="1050" y="691"/>
      <point x="1049" y="690"/>
      <point x="1049" y="689" type="qcurve" smooth="yes"/>
      <point x="1049" y="602" type="line" smooth="yes"/>
      <point x="1049" y="596"/>
      <point x="1039" y="589"/>
      <point x="1030" y="594" type="qcurve" smooth="yes"/>
      <point x="1009" y="607" type="line"/>
      <point x="1009" y="607"/>
      <point x="1008" y="608"/>
      <point x="1008" y="608" type="qcurve"/>
      <point x="1008" y="697" type="line"/>
      <point x="1008" y="697"/>
      <point x="1009" y="698"/>
      <point x="1009" y="700" type="qcurve"/>
      <point x="1086" y="744" type="line"/>
      <point x="1087" y="744"/>
      <point x="1088" y="744"/>
      <point x="1088" y="744" type="qcurve"/>
      <point x="1166" y="700" type="line"/>
      <point x="1166" y="698"/>
      <point x="1167" y="697"/>
      <point x="1167" y="697" type="qcurve"/>
      <point x="1167" y="608" type="line"/>
      <point x="1167" y="608"/>
      <point x="1166" y="607"/>
      <point x="1166" y="607" type="qcurve"/>
      <point x="1088" y="561" type="line"/>
      <point x="1088" y="561"/>
      <point x="1087" y="561"/>
      <point x="1086" y="561" type="qcurve"/>
      <point x="1066" y="574" type="line"/>
      <point x="1066" y="574"/>
      <point x="1065" y="574"/>
      <point x="1065" y="574" type="qcurve"/>
      <point x="1060" y="572"/>
      <point x="1057" y="569"/>
      <point x="1053" y="568" type="qcurve" smooth="yes"/>
      <point x="1052" y="568"/>
      <point x="1051" y="567"/>
      <point x="1053" y="565" type="qcurve"/>
      <point x="1079" y="550" type="line" smooth="yes"/>
      <point x="1081" y="548"/>
      <point x="1086" y="547"/>
      <point x="1087" y="547" type="qcurve"/>
    </contour>
    <contour>
      <point x="1111" y="609" type="line"/>
      <point x="1130" y="609"/>
      <point x="1150" y="623"/>
      <point x="1150" y="636" type="qcurve" smooth="yes"/>
      <point x="1150" y="647"/>
      <point x="1132" y="657"/>
      <point x="1115" y="659" type="qcurve" smooth="yes"/>
      <point x="1096" y="661"/>
      <point x="1088" y="666"/>
      <point x="1088" y="669" type="qcurve" smooth="yes"/>
      <point x="1088" y="673"/>
      <point x="1095" y="681"/>
      <point x="1108" y="681" type="qcurve" smooth="yes"/>
      <point x="1120" y="681"/>
      <point x="1130" y="674"/>
      <point x="1132" y="666" type="qcurve"/>
      <point x="1132" y="666"/>
      <point x="1134" y="665"/>
      <point x="1135" y="665" type="qcurve" smooth="yes"/>
      <point x="1144" y="665" type="line" smooth="yes"/>
      <point x="1145" y="665"/>
      <point x="1145" y="665"/>
      <point x="1146" y="666" type="qcurve"/>
      <point x="1146" y="666"/>
      <point x="1146" y="667"/>
      <point x="1146" y="667" type="qcurve"/>
      <point x="1145" y="681"/>
      <point x="1127" y="694"/>
      <point x="1108" y="694" type="qcurve" smooth="yes"/>
      <point x="1092" y="694"/>
      <point x="1073" y="681"/>
      <point x="1073" y="669" type="qcurve" smooth="yes"/>
      <point x="1073" y="657"/>
      <point x="1092" y="647"/>
      <point x="1107" y="646" type="qcurve" smooth="yes"/>
      <point x="1127" y="644"/>
      <point x="1135" y="638"/>
      <point x="1135" y="634" type="qcurve" smooth="yes"/>
      <point x="1135" y="627"/>
      <point x="1123" y="622"/>
      <point x="1111" y="622" type="qcurve" smooth="yes"/>
      <point x="1096" y="622"/>
      <point x="1086" y="630"/>
      <point x="1085" y="638" type="qcurve"/>
      <point x="1085" y="638"/>
      <point x="1084" y="639"/>
      <point x="1082" y="639" type="qcurve" smooth="yes"/>
      <point x="1073" y="639" type="line" smooth="yes"/>
      <point x="1072" y="639"/>
      <point x="1071" y="638"/>
      <point x="1071" y="637" type="qcurve" smooth="yes"/>
      <point x="1071" y="627"/>
      <point x="1086" y="609"/>
      <point x="1111" y="609" type="qcurve"/>
    </contour>
    <contour>
      <point x="842" y="672" type="line"/>
      <point x="827" y="662" type="line"/>
      <point x="825" y="662"/>
      <point x="825" y="661"/>
      <point x="825" y="661" type="qcurve"/>
      <point x="825" y="643" type="line"/>
      <point x="825" y="643"/>
      <point x="825" y="641"/>
      <point x="827" y="641" type="qcurve"/>
      <point x="842" y="632" type="line"/>
      <point x="843" y="632"/>
      <point x="843" y="632"/>
      <point x="844" y="632" type="qcurve"/>
      <point x="859" y="641" type="line"/>
      <point x="860" y="641"/>
      <point x="860" y="643"/>
      <point x="860" y="643" type="qcurve"/>
      <point x="860" y="661" type="line"/>
      <point x="860" y="661"/>
      <point x="860" y="662"/>
      <point x="859" y="662" type="qcurve"/>
      <point x="844" y="672" type="line"/>
      <point x="843" y="672"/>
      <point x="843" y="672"/>
      <point x="842" y="672" type="qcurve"/>
    </contour>
  </outline>
</glyph>
<glyph name="uniE61A" format="2">
  <advance width="1200"/>
  <unicode hex="E71A"/>
  <note>
uniE61A
</note>
  <outline>
    <contour>
      <point x="1084" y="1194" type="line"/>
      <point x="1084" y="1194" type="line"/>
      <point x="1084" y="226" type="line"/>
      <point x="116" y="226" type="line"/>
      <point x="116" y="1194" type="line"/>
    </contour>
    <contour>
      <point x="1180" y="1290" type="line"/>
      <point x="1180" y="1290" type="line"/>
      <point x="20" y="1290" type="line"/>
      <point x="20" y="130" type="line"/>
      <point x="1180" y="130" type="line"/>
    </contour>
    <contour>
      <point x="724" y="1002" type="line"/>
      <point x="608" y="750" type="line"/>
      <point x="489" y="1002" type="line"/>
      <point x="346" y="1002" type="line"/>
      <point x="547" y="641" type="line"/>
      <point x="547" y="422" type="line"/>
      <point x="667" y="422" type="line"/>
      <point x="667" y="641" type="line"/>
      <point x="860" y="1002" type="line"/>
      <point x="724" y="1002" type="line"/>
    </contour>
  </outline>
</glyph>
<glyph name="uniE61B" format="2">
  <advance width="1200"/>
  <unicode hex="E71B"/>
  <note>
uniE61B
</note>
  <outline>
    <contour>
      <point x="822" y="602" type="qcurve"/>
      <point x="822" y="600" type="line"/>
      <point x="822" y="600"/>
      <point x="821" y="629"/>
      <point x="836" y="657" type="qcurve" smooth="yes"/>
      <point x="851" y="684"/>
      <point x="872" y="673"/>
      <point x="872" y="673" type="qcurve"/>
      <point x="872" y="673"/>
      <point x="884" y="647"/>
      <point x="869" y="627" type="qcurve" smooth="yes"/>
      <point x="854" y="606"/>
      <point x="822" y="602"/>
    </contour>
    <contour>
      <point x="668" y="575" type="qcurve"/>
      <point x="668" y="575" type="line"/>
      <point x="651" y="530"/>
      <point x="590" y="540"/>
      <point x="590" y="540" type="qcurve"/>
      <point x="590" y="540"/>
      <point x="588" y="575"/>
      <point x="602" y="620" type="qcurve" smooth="yes"/>
      <point x="616" y="666"/>
      <point x="663" y="657"/>
      <point x="663" y="657" type="qcurve"/>
      <point x="663" y="657"/>
      <point x="686" y="620"/>
    </contour>
    <contour>
      <point x="627" y="825" type="qcurve"/>
      <point x="627" y="825" type="line"/>
      <point x="627" y="825"/>
      <point x="664" y="905"/>
      <point x="670" y="871" type="qcurve" smooth="yes"/>
      <point x="676" y="838"/>
      <point x="597" y="697"/>
      <point x="597" y="697" type="qcurve"/>
      <point x="598" y="719"/>
      <point x="627" y="825"/>
    </contour>
    <contour>
      <point x="133" y="600" type="qcurve"/>
      <point x="133" y="602" type="line" smooth="yes"/>
      <point x="134" y="644"/>
      <point x="176" y="681"/>
      <point x="186" y="672" type="qcurve" smooth="yes"/>
      <point x="196" y="662"/>
      <point x="188" y="627"/>
      <point x="170" y="614" type="qcurve" smooth="yes"/>
      <point x="151" y="602"/>
      <point x="133" y="600"/>
    </contour>
    <contour>
      <point x="1179" y="611" type="qcurve"/>
      <point x="1179" y="611" type="line"/>
      <point x="1178" y="626"/>
      <point x="1160" y="623"/>
      <point x="1160" y="623" type="qcurve"/>
      <point x="1160" y="623"/>
      <point x="1125" y="602"/>
      <point x="1107" y="604" type="qcurve" smooth="yes"/>
      <point x="1089" y="605"/>
      <point x="1090" y="661"/>
      <point x="1090" y="661" type="qcurve"/>
      <point x="1090" y="661"/>
      <point x="1092" y="713"/>
      <point x="1081" y="716" type="qcurve" smooth="yes"/>
      <point x="1070" y="720"/>
      <point x="1048" y="703"/>
      <point x="1048" y="703" type="qcurve"/>
      <point x="1048" y="703"/>
      <point x="1023" y="670"/>
      <point x="1015" y="646" type="qcurve"/>
      <point x="1013" y="645" type="line"/>
      <point x="1013" y="645"/>
      <point x="1015" y="704"/>
      <point x="1012" y="714" type="qcurve" smooth="yes"/>
      <point x="1009" y="719"/>
      <point x="981" y="716"/>
      <point x="978" y="708" type="qcurve" smooth="yes"/>
      <point x="975" y="700"/>
      <point x="952" y="611"/>
      <point x="951" y="587" type="qcurve"/>
      <point x="951" y="587"/>
      <point x="899" y="550"/>
      <point x="873" y="545" type="qcurve" smooth="yes"/>
      <point x="845" y="541"/>
      <point x="827" y="562"/>
      <point x="827" y="562" type="qcurve"/>
      <point x="827" y="562"/>
      <point x="926" y="610"/>
      <point x="923" y="669" type="qcurve" smooth="yes"/>
      <point x="920" y="729"/>
      <point x="841" y="717"/>
      <point x="835" y="713" type="qcurve" smooth="yes"/>
      <point x="828" y="708"/>
      <point x="777" y="661"/>
      <point x="768" y="605" type="qcurve" smooth="yes"/>
      <point x="768" y="603"/>
      <point x="767" y="591"/>
      <point x="767" y="591" type="qcurve"/>
      <point x="767" y="591"/>
      <point x="723" y="564"/>
      <point x="707" y="559" type="qcurve"/>
      <point x="707" y="559"/>
      <point x="749" y="670"/>
      <point x="694" y="705" type="qcurve" smooth="yes"/>
      <point x="670" y="720"/>
      <point x="635" y="683"/>
      <point x="635" y="683" type="qcurve"/>
      <point x="635" y="683"/>
      <point x="728" y="816"/>
      <point x="711" y="886" type="qcurve" smooth="yes"/>
      <point x="704" y="920"/>
      <point x="674" y="933"/>
      <point x="658" y="928" type="qcurve" smooth="yes"/>
      <point x="635" y="918"/>
      <point x="616" y="898"/>
      <point x="616" y="898" type="qcurve"/>
      <point x="616" y="898"/>
      <point x="574" y="819"/>
      <point x="567" y="753" type="qcurve" smooth="yes"/>
      <point x="560" y="689"/>
      <point x="544" y="564"/>
      <point x="544" y="564" type="qcurve"/>
      <point x="544" y="564"/>
      <point x="520" y="545"/>
      <point x="508" y="544" type="qcurve" smooth="yes"/>
      <point x="495" y="543"/>
      <point x="498" y="596"/>
      <point x="498" y="596" type="qcurve"/>
      <point x="498" y="596"/>
      <point x="511" y="681"/>
      <point x="511" y="690" type="qcurve" smooth="yes"/>
      <point x="510" y="700"/>
      <point x="504" y="713"/>
      <point x="493" y="716" type="qcurve" smooth="yes"/>
      <point x="480" y="720"/>
      <point x="459" y="700"/>
      <point x="459" y="700" type="qcurve"/>
      <point x="459" y="700"/>
      <point x="412" y="628"/>
      <point x="409" y="620" type="qcurve" smooth="yes"/>
      <point x="407" y="615" type="line"/>
      <point x="404" y="619" type="line"/>
      <point x="404" y="619"/>
      <point x="428" y="714"/>
      <point x="405" y="715" type="qcurve" smooth="yes"/>
      <point x="382" y="716"/>
      <point x="354" y="681"/>
      <point x="354" y="681" type="qcurve"/>
      <point x="354" y="681"/>
      <point x="318" y="620"/>
      <point x="317" y="615" type="qcurve"/>
      <point x="315" y="618" type="line"/>
      <point x="315" y="618"/>
      <point x="328" y="691"/>
      <point x="326" y="704" type="qcurve" smooth="yes"/>
      <point x="324" y="716"/>
      <point x="308" y="717"/>
      <point x="308" y="717" type="qcurve"/>
      <point x="308" y="717"/>
      <point x="286" y="716"/>
      <point x="281" y="707" type="qcurve" smooth="yes"/>
      <point x="278" y="697"/>
      <point x="256" y="600"/>
      <point x="254" y="579" type="qcurve"/>
      <point x="254" y="579"/>
      <point x="195" y="543"/>
      <point x="170" y="542" type="qcurve" smooth="yes"/>
      <point x="145" y="542"/>
      <point x="139" y="564"/>
      <point x="139" y="564" type="qcurve"/>
      <point x="139" y="564"/>
      <point x="254" y="627"/>
      <point x="229" y="689" type="qcurve"/>
      <point x="217" y="705"/>
      <point x="191" y="716"/>
      <point x="171" y="716" type="qcurve" smooth="yes"/>
      <point x="153" y="716"/>
      <point x="111" y="690"/>
      <point x="97" y="655" type="qcurve" smooth="yes"/>
      <point x="89" y="639"/>
      <point x="83" y="611"/>
      <point x="82" y="599" type="qcurve"/>
      <point x="82" y="599"/>
      <point x="56" y="597"/>
      <point x="48" y="604" type="qcurve" smooth="yes"/>
      <point x="39" y="612"/>
      <point x="30" y="604"/>
      <point x="30" y="604" type="qcurve"/>
      <point x="30" y="604"/>
      <point x="15" y="577"/>
      <point x="30" y="571" type="qcurve" smooth="yes"/>
      <point x="45" y="565"/>
      <point x="82" y="560"/>
      <point x="82" y="560" type="qcurve"/>
      <point x="82" y="560" type="line"/>
      <point x="83" y="550"/>
      <point x="99" y="518"/>
      <point x="117" y="504" type="qcurve" smooth="yes"/>
      <point x="144" y="483"/>
      <point x="223" y="507"/>
      <point x="223" y="507" type="qcurve"/>
      <point x="252" y="523" type="line"/>
      <point x="252" y="523"/>
      <point x="258" y="496"/>
      <point x="273" y="492" type="qcurve" smooth="yes"/>
      <point x="289" y="490"/>
      <point x="312" y="515"/>
      <point x="340" y="582" type="qcurve" smooth="yes"/>
      <point x="356" y="615"/>
      <point x="363" y="624"/>
      <point x="363" y="624" type="qcurve"/>
      <point x="365" y="624" type="line"/>
      <point x="365" y="624"/>
      <point x="350" y="533"/>
      <point x="355" y="515" type="qcurve" smooth="yes"/>
      <point x="359" y="497"/>
      <point x="389" y="494"/>
      <point x="389" y="494" type="qcurve"/>
      <point x="389" y="494"/>
      <point x="407" y="502"/>
      <point x="416" y="534" type="qcurve" smooth="yes"/>
      <point x="425" y="566"/>
      <point x="451" y="623"/>
      <point x="451" y="623" type="qcurve"/>
      <point x="455" y="623" type="line"/>
      <point x="455" y="623"/>
      <point x="448" y="528"/>
      <point x="461" y="507" type="qcurve" smooth="yes"/>
      <point x="472" y="486"/>
      <point x="516" y="497"/>
      <point x="516" y="497" type="qcurve"/>
      <point x="516" y="497"/>
      <point x="546" y="513"/>
      <point x="549" y="517" type="qcurve"/>
      <point x="549" y="517"/>
      <point x="594" y="489"/>
      <point x="629" y="492" type="qcurve"/>
      <point x="709" y="509"/>
      <point x="773" y="542"/>
      <point x="773" y="542" type="qcurve"/>
      <point x="773" y="542"/>
      <point x="805" y="495"/>
      <point x="846" y="491" type="qcurve" smooth="yes"/>
      <point x="895" y="488"/>
      <point x="946" y="527"/>
      <point x="946" y="527" type="qcurve"/>
      <point x="946" y="527"/>
      <point x="951" y="498"/>
      <point x="968" y="491" type="qcurve" smooth="yes"/>
      <point x="984" y="484"/>
      <point x="1005" y="534"/>
      <point x="1005" y="534" type="qcurve"/>
      <point x="1043" y="637" type="line"/>
      <point x="1046" y="637" type="line"/>
      <point x="1046" y="637"/>
      <point x="1058" y="567"/>
      <point x="1085" y="560" type="qcurve" smooth="yes"/>
      <point x="1113" y="552"/>
      <point x="1170" y="584"/>
      <point x="1170" y="584" type="qcurve"/>
      <point x="1170" y="584"/>
      <point x="1182" y="596"/>
    </contour>
  </outline>
</glyph>
<glyph name="uniE61C" format="2">
  <advance width="1200"/>
  <unicode hex="E71C"/>
  <note>
uniE61C
</note>
  <outline>
    <contour>
      <point x="314" y="974" type="qcurve"/>
      <point x="314" y="974" type="line"/>
      <point x="314" y="974"/>
      <point x="314" y="884"/>
      <point x="314" y="821" type="qcurve" smooth="yes"/>
      <point x="314" y="669" type="line"/>
      <point x="306" y="655" type="line" smooth="yes"/>
      <point x="299" y="640"/>
      <point x="269" y="610"/>
      <point x="254" y="602" type="qcurve" smooth="yes"/>
      <point x="237" y="593"/>
      <point x="211" y="588"/>
      <point x="193" y="588" type="qcurve" smooth="yes"/>
      <point x="165" y="588"/>
      <point x="124" y="605"/>
      <point x="105" y="624" type="qcurve" smooth="yes"/>
      <point x="79" y="649"/>
      <point x="61" y="712"/>
      <point x="69" y="745" type="qcurve" smooth="yes"/>
      <point x="73" y="763"/>
      <point x="89" y="790"/>
      <point x="103" y="805" type="qcurve" smooth="yes"/>
      <point x="124" y="827"/>
      <point x="169" y="843"/>
      <point x="200" y="842" type="qcurve" smooth="yes"/>
      <point x="219" y="840"/>
      <point x="246" y="832"/>
      <point x="261" y="823" type="qcurve" smooth="yes"/>
      <point x="267" y="819"/>
      <point x="275" y="814"/>
      <point x="276" y="815" type="qcurve"/>
      <point x="276" y="815"/>
      <point x="277" y="827"/>
      <point x="278" y="835" type="qcurve" smooth="yes"/>
      <point x="280" y="843"/>
      <point x="282" y="856"/>
      <point x="283" y="859" type="qcurve"/>
      <point x="283" y="861"/>
      <point x="277" y="866"/>
      <point x="267" y="871" type="qcurve" smooth="yes"/>
      <point x="248" y="879"/>
      <point x="217" y="886"/>
      <point x="193" y="886" type="qcurve" smooth="yes"/>
      <point x="168" y="886"/>
      <point x="136" y="879"/>
      <point x="114" y="868" type="qcurve" smooth="yes"/>
      <point x="81" y="852"/>
      <point x="34" y="792"/>
      <point x="23" y="753" type="qcurve" smooth="yes"/>
      <point x="20" y="739"/>
      <point x="20" y="685"/>
      <point x="25" y="670" type="qcurve" smooth="yes"/>
      <point x="36" y="628"/>
      <point x="95" y="566"/>
      <point x="139" y="551" type="qcurve" smooth="yes"/>
      <point x="154" y="545"/>
      <point x="169" y="544"/>
      <point x="192" y="544" type="qcurve" smooth="yes"/>
      <point x="212" y="544"/>
      <point x="229" y="545"/>
      <point x="240" y="549" type="qcurve" smooth="yes"/>
      <point x="256" y="553"/>
      <point x="283" y="567"/>
      <point x="297" y="577" type="qcurve" smooth="yes"/>
      <point x="302" y="582"/>
      <point x="312" y="588"/>
      <point x="312" y="588" type="qcurve"/>
      <point x="312" y="588"/>
      <point x="313" y="577"/>
      <point x="313" y="570" type="qcurve" smooth="yes"/>
      <point x="313" y="552" type="line"/>
      <point x="368" y="551" type="line"/>
      <point x="368" y="976" type="line"/>
      <point x="340" y="976" type="line" smooth="yes"/>
      <point x="329" y="976"/>
      <point x="314" y="975"/>
    </contour>
    <contour>
      <point x="758" y="932" type="line"/>
      <point x="758" y="932" type="line"/>
      <point x="758" y="899" type="line"/>
      <point x="800" y="899" type="line"/>
      <point x="800" y="965" type="line"/>
      <point x="758" y="965" type="line"/>
    </contour>
    <contour>
      <point x="490" y="950" type="qcurve"/>
      <point x="490" y="950" type="line"/>
      <point x="489" y="949"/>
      <point x="488" y="944"/>
      <point x="489" y="941" type="qcurve"/>
      <point x="489" y="934" type="line"/>
      <point x="562" y="933" type="line"/>
      <point x="634" y="933" type="line"/>
      <point x="635" y="938" type="line" smooth="yes"/>
      <point x="636" y="940"/>
      <point x="636" y="946"/>
      <point x="636" y="947" type="qcurve" smooth="yes"/>
      <point x="635" y="950"/>
      <point x="615" y="951"/>
      <point x="564" y="951" type="qcurve" smooth="yes"/>
      <point x="535" y="952"/>
      <point x="491" y="951"/>
    </contour>
    <contour>
      <point x="935" y="950" type="qcurve"/>
      <point x="935" y="950" type="line"/>
      <point x="933" y="948"/>
      <point x="932" y="940"/>
      <point x="934" y="936" type="qcurve"/>
      <point x="934" y="934"/>
      <point x="959" y="933"/>
      <point x="1007" y="933" type="qcurve" smooth="yes"/>
      <point x="1079" y="933" type="line"/>
      <point x="1081" y="938" type="line" smooth="yes"/>
      <point x="1083" y="941"/>
      <point x="1083" y="946"/>
      <point x="1081" y="948" type="qcurve" smooth="yes"/>
      <point x="1079" y="951"/>
      <point x="1061" y="952"/>
      <point x="1008" y="952" type="qcurve" smooth="yes"/>
      <point x="969" y="952"/>
      <point x="936" y="951"/>
    </contour>
    <contour>
      <point x="530" y="885" type="qcurve"/>
      <point x="530" y="885" type="line"/>
      <point x="505" y="879"/>
      <point x="461" y="859"/>
      <point x="445" y="843" type="qcurve" smooth="yes"/>
      <point x="426" y="826"/>
      <point x="402" y="785"/>
      <point x="394" y="759" type="qcurve" smooth="yes"/>
      <point x="391" y="748"/>
      <point x="388" y="731"/>
      <point x="388" y="715" type="qcurve" smooth="yes"/>
      <point x="388" y="689"/>
      <point x="396" y="660"/>
      <point x="407" y="638" type="qcurve" smooth="yes"/>
      <point x="413" y="623"/>
      <point x="424" y="608"/>
      <point x="437" y="596" type="qcurve" smooth="yes"/>
      <point x="455" y="578"/>
      <point x="485" y="559"/>
      <point x="507" y="551" type="qcurve" smooth="yes"/>
      <point x="522" y="545"/>
      <point x="537" y="544"/>
      <point x="561" y="544" type="qcurve" smooth="yes"/>
      <point x="585" y="544"/>
      <point x="600" y="545"/>
      <point x="615" y="551" type="qcurve" smooth="yes"/>
      <point x="670" y="570"/>
      <point x="734" y="657"/>
      <point x="734" y="715" type="qcurve" smooth="yes"/>
      <point x="735" y="737"/>
      <point x="727" y="771"/>
      <point x="717" y="792" type="qcurve" smooth="yes"/>
      <point x="709" y="807"/>
      <point x="698" y="822"/>
      <point x="684" y="836" type="qcurve" smooth="yes"/>
      <point x="672" y="848"/>
      <point x="656" y="861"/>
      <point x="643" y="867" type="qcurve" smooth="yes"/>
      <point x="635" y="871"/>
      <point x="614" y="879"/>
      <point x="607" y="882" type="qcurve" smooth="yes"/>
      <point x="591" y="885"/>
      <point x="545" y="887"/>
    </contour>
    <contour>
      <point x="604" y="836" type="line"/>
      <point x="591" y="840"/>
      <point x="542" y="843"/>
      <point x="529" y="839" type="qcurve" smooth="yes"/>
      <point x="480" y="826"/>
      <point x="426" y="736"/>
      <point x="437" y="687" type="qcurve" smooth="yes"/>
      <point x="445" y="653"/>
      <point x="495" y="601"/>
      <point x="528" y="591" type="qcurve" smooth="yes"/>
      <point x="540" y="588"/>
      <point x="582" y="588"/>
      <point x="594" y="591" type="qcurve" smooth="yes"/>
      <point x="654" y="608"/>
      <point x="704" y="716"/>
      <point x="678" y="769" type="qcurve" smooth="yes"/>
      <point x="666" y="792"/>
      <point x="627" y="828"/>
      <point x="604" y="836" type="qcurve"/>
    </contour>
    <contour>
      <point x="974" y="885" type="qcurve"/>
      <point x="974" y="885" type="line"/>
      <point x="925" y="875"/>
      <point x="856" y="813"/>
      <point x="841" y="765" type="qcurve" smooth="yes"/>
      <point x="837" y="753"/>
      <point x="835" y="736"/>
      <point x="835" y="713" type="qcurve" smooth="yes"/>
      <point x="835" y="687"/>
      <point x="840" y="662"/>
      <point x="848" y="644" type="qcurve" smooth="yes"/>
      <point x="862" y="610"/>
      <point x="920" y="561"/>
      <point x="957" y="549" type="qcurve" smooth="yes"/>
      <point x="974" y="544"/>
      <point x="1026" y="542"/>
      <point x="1045" y="546" type="qcurve" smooth="yes"/>
      <point x="1120" y="565"/>
      <point x="1195" y="699"/>
      <point x="1171" y="772" type="qcurve" smooth="yes"/>
      <point x="1157" y="812"/>
      <point x="1095" y="869"/>
      <point x="1053" y="882" type="qcurve" smooth="yes"/>
      <point x="1037" y="885"/>
      <point x="990" y="887"/>
    </contour>
    <contour>
      <point x="1038" y="839" type="qcurve"/>
      <point x="1038" y="839" type="line"/>
      <point x="1063" y="834"/>
      <point x="1109" y="797"/>
      <point x="1120" y="773" type="qcurve" smooth="yes"/>
      <point x="1128" y="757"/>
      <point x="1135" y="732"/>
      <point x="1135" y="715" type="qcurve" smooth="yes"/>
      <point x="1135" y="691"/>
      <point x="1118" y="648"/>
      <point x="1102" y="630" type="qcurve" smooth="yes"/>
      <point x="1089" y="617"/>
      <point x="1063" y="600"/>
      <point x="1046" y="593" type="qcurve" smooth="yes"/>
      <point x="1034" y="590"/>
      <point x="1020" y="588"/>
      <point x="1006" y="588" type="qcurve" smooth="yes"/>
      <point x="980" y="588"/>
      <point x="937" y="605"/>
      <point x="918" y="623" type="qcurve" smooth="yes"/>
      <point x="905" y="636"/>
      <point x="888" y="665"/>
      <point x="884" y="681" type="qcurve" smooth="yes"/>
      <point x="879" y="696"/>
      <point x="880" y="740"/>
      <point x="885" y="753" type="qcurve" smooth="yes"/>
      <point x="895" y="785"/>
      <point x="941" y="829"/>
      <point x="972" y="838" type="qcurve" smooth="yes"/>
      <point x="984" y="842"/>
      <point x="1024" y="843"/>
    </contour>
    <contour>
      <point x="778" y="877" type="line"/>
      <point x="778" y="877" type="line"/>
      <point x="758" y="877" type="line"/>
      <point x="758" y="720" type="line" smooth="yes"/>
      <point x="758" y="591"/>
      <point x="754" y="545"/>
      <point x="744" y="525" type="qcurve" smooth="yes"/>
      <point x="742" y="519"/>
      <point x="729" y="503"/>
      <point x="723" y="497" type="qcurve" smooth="yes"/>
      <point x="718" y="492"/>
      <point x="710" y="482"/>
      <point x="710" y="481" type="qcurve" smooth="yes"/>
      <point x="710" y="479"/>
      <point x="736" y="444"/>
      <point x="737" y="444" type="qcurve" smooth="yes"/>
      <point x="742" y="444"/>
      <point x="778" y="496"/>
      <point x="786" y="512" type="qcurve" smooth="yes"/>
      <point x="798" y="535"/>
      <point x="800" y="576"/>
      <point x="800" y="713" type="qcurve" smooth="yes"/>
      <point x="800" y="878" type="line"/>
    </contour>
  </outline>
</glyph>
<glyph name="uniE61D" format="2">
  <advance width="1200"/>
  <unicode hex="E71D"/>
  <note>
uniE61D
</note>
  <outline>
    <contour>
      <point x="156" y="864" type="line"/>
      <point x="156" y="864" type="line"/>
      <point x="156" y="817" type="line"/>
      <point x="153" y="817" type="line"/>
      <point x="137" y="820"/>
      <point x="102" y="818"/>
      <point x="88" y="812" type="qcurve" smooth="yes"/>
      <point x="54" y="802"/>
      <point x="19" y="746"/>
      <point x="20" y="707" type="qcurve" smooth="yes"/>
      <point x="21" y="690"/>
      <point x="29" y="664"/>
      <point x="36" y="653" type="qcurve" smooth="yes"/>
      <point x="48" y="636"/>
      <point x="82" y="617"/>
      <point x="108" y="613" type="qcurve" smooth="yes"/>
      <point x="126" y="610"/>
      <point x="192" y="613"/>
      <point x="218" y="619" type="qcurve"/>
      <point x="220" y="620" type="line"/>
      <point x="220" y="912" type="line"/>
      <point x="156" y="912" type="line"/>
    </contour>
    <contour>
      <point x="152" y="767" type="qcurve"/>
      <point x="152" y="767" type="line"/>
      <point x="156" y="765" type="line"/>
      <point x="156" y="664" type="line"/>
      <point x="151" y="663" type="line" smooth="yes"/>
      <point x="131" y="661"/>
      <point x="106" y="667"/>
      <point x="98" y="676" type="qcurve" smooth="yes"/>
      <point x="91" y="683"/>
      <point x="85" y="703"/>
      <point x="85" y="714" type="qcurve" smooth="yes"/>
      <point x="85" y="736"/>
      <point x="105" y="763"/>
      <point x="122" y="767" type="qcurve" smooth="yes"/>
      <point x="128" y="768"/>
      <point x="147" y="768"/>
    </contour>
    <contour>
      <point x="258" y="880" type="line"/>
      <point x="258" y="880" type="line"/>
      <point x="258" y="848" type="line"/>
      <point x="322" y="848" type="line"/>
      <point x="322" y="880" type="line"/>
      <point x="321" y="912" type="line"/>
      <point x="290" y="912" type="line"/>
      <point x="258" y="912" type="line"/>
    </contour>
    <contour>
      <point x="431" y="819" type="qcurve"/>
      <point x="431" y="819" type="line"/>
      <point x="414" y="818"/>
      <point x="380" y="809"/>
      <point x="366" y="803" type="qcurve"/>
      <point x="360" y="800" type="line"/>
      <point x="360" y="776" type="line" smooth="yes"/>
      <point x="360" y="762"/>
      <point x="360" y="752"/>
      <point x="361" y="752" type="qcurve"/>
      <point x="386" y="763"/>
      <point x="418" y="771"/>
      <point x="435" y="770" type="qcurve" smooth="yes"/>
      <point x="443" y="770"/>
      <point x="448" y="769"/>
      <point x="450" y="768" type="qcurve" smooth="yes"/>
      <point x="454" y="765"/>
      <point x="456" y="757"/>
      <point x="456" y="751" type="qcurve" smooth="yes"/>
      <point x="456" y="747"/>
      <point x="456" y="741"/>
      <point x="456" y="741" type="qcurve"/>
      <point x="454" y="741"/>
      <point x="432" y="738"/>
      <point x="425" y="737" type="qcurve" smooth="yes"/>
      <point x="391" y="731"/>
      <point x="353" y="707"/>
      <point x="348" y="687" type="qcurve" smooth="yes"/>
      <point x="347" y="681"/>
      <point x="347" y="658"/>
      <point x="348" y="652" type="qcurve" smooth="yes"/>
      <point x="351" y="642"/>
      <point x="361" y="627"/>
      <point x="368" y="622" type="qcurve" smooth="yes"/>
      <point x="385" y="612"/>
      <point x="445" y="609"/>
      <point x="509" y="617" type="qcurve"/>
      <point x="514" y="617" type="line"/>
      <point x="514" y="690" type="line" smooth="yes"/>
      <point x="514" y="720"/>
      <point x="513" y="768"/>
      <point x="513" y="771" type="qcurve" smooth="yes"/>
      <point x="511" y="792"/>
      <point x="490" y="814"/>
      <point x="469" y="817" type="qcurve" smooth="yes"/>
      <point x="463" y="818"/>
      <point x="438" y="819"/>
    </contour>
    <contour>
      <point x="459" y="679" type="line"/>
      <point x="459" y="679" type="line"/>
      <point x="459" y="658" type="line"/>
      <point x="450" y="656" type="line" smooth="yes"/>
      <point x="441" y="655"/>
      <point x="418" y="655"/>
      <point x="415" y="657" type="qcurve"/>
      <point x="407" y="659"/>
      <point x="401" y="674"/>
      <point x="406" y="682" type="qcurve" smooth="yes"/>
      <point x="408" y="685"/>
      <point x="418" y="692"/>
      <point x="425" y="695" type="qcurve" smooth="yes"/>
      <point x="430" y="696"/>
      <point x="454" y="699"/>
      <point x="457" y="699" type="qcurve"/>
      <point x="459" y="700" type="line"/>
    </contour>
    <contour>
      <point x="630" y="819" type="qcurve"/>
      <point x="630" y="819" type="line"/>
      <point x="613" y="818"/>
      <point x="567" y="811"/>
      <point x="549" y="806" type="qcurve"/>
      <point x="545" y="806" type="line"/>
      <point x="545" y="613" type="line"/>
      <point x="609" y="613" type="line"/>
      <point x="609" y="689" type="line"/>
      <point x="609" y="764" type="line"/>
      <point x="616" y="765" type="line" smooth="yes"/>
      <point x="620" y="767"/>
      <point x="629" y="768"/>
      <point x="636" y="768" type="qcurve" smooth="yes"/>
      <point x="645" y="768"/>
      <point x="651" y="767"/>
      <point x="654" y="765" type="qcurve" smooth="yes"/>
      <point x="659" y="763"/>
      <point x="664" y="756"/>
      <point x="667" y="752" type="qcurve" smooth="yes"/>
      <point x="668" y="748"/>
      <point x="669" y="725"/>
      <point x="669" y="681" type="qcurve" smooth="yes"/>
      <point x="669" y="613" type="line"/>
      <point x="732" y="613" type="line"/>
      <point x="732" y="689" type="line" smooth="yes"/>
      <point x="731" y="740"/>
      <point x="731" y="767"/>
      <point x="729" y="771" type="qcurve" smooth="yes"/>
      <point x="727" y="779"/>
      <point x="720" y="792"/>
      <point x="715" y="798" type="qcurve" smooth="yes"/>
      <point x="704" y="807"/>
      <point x="679" y="817"/>
      <point x="660" y="818" type="qcurve" smooth="yes"/>
      <point x="651" y="819"/>
      <point x="641" y="819"/>
    </contour>
    <contour>
      <point x="1054" y="818" type="qcurve"/>
      <point x="1054" y="818" type="line"/>
      <point x="1027" y="814"/>
      <point x="988" y="780"/>
      <point x="980" y="755" type="qcurve" smooth="yes"/>
      <point x="975" y="743"/>
      <point x="973" y="723"/>
      <point x="973" y="707" type="qcurve" smooth="yes"/>
      <point x="973" y="698"/>
      <point x="974" y="687"/>
      <point x="975" y="682" type="qcurve" smooth="yes"/>
      <point x="981" y="657"/>
      <point x="1012" y="622"/>
      <point x="1036" y="614" type="qcurve" smooth="yes"/>
      <point x="1056" y="608"/>
      <point x="1106" y="610"/>
      <point x="1124" y="618" type="qcurve" smooth="yes"/>
      <point x="1147" y="628"/>
      <point x="1176" y="669"/>
      <point x="1179" y="698" type="qcurve" smooth="yes"/>
      <point x="1183" y="731"/>
      <point x="1162" y="787"/>
      <point x="1141" y="802" type="qcurve" smooth="yes"/>
      <point x="1132" y="808"/>
      <point x="1115" y="816"/>
      <point x="1102" y="818" type="qcurve" smooth="yes"/>
      <point x="1093" y="819"/>
      <point x="1062" y="819"/>
    </contour>
    <contour>
      <point x="1090" y="767" type="qcurve"/>
      <point x="1090" y="767" type="line"/>
      <point x="1098" y="763"/>
      <point x="1109" y="749"/>
      <point x="1113" y="738" type="qcurve" smooth="yes"/>
      <point x="1114" y="733"/>
      <point x="1115" y="724"/>
      <point x="1115" y="714" type="qcurve" smooth="yes"/>
      <point x="1115" y="704"/>
      <point x="1114" y="696"/>
      <point x="1113" y="691" type="qcurve" smooth="yes"/>
      <point x="1109" y="680"/>
      <point x="1099" y="666"/>
      <point x="1091" y="663" type="qcurve" smooth="yes"/>
      <point x="1088" y="660"/>
      <point x="1082" y="660"/>
      <point x="1076" y="660" type="qcurve" smooth="yes"/>
      <point x="1070" y="660"/>
      <point x="1066" y="660"/>
      <point x="1062" y="663" type="qcurve" smooth="yes"/>
      <point x="1054" y="666"/>
      <point x="1044" y="679"/>
      <point x="1041" y="688" type="qcurve" smooth="yes"/>
      <point x="1038" y="696"/>
      <point x="1037" y="724"/>
      <point x="1040" y="733" type="qcurve" smooth="yes"/>
      <point x="1042" y="744"/>
      <point x="1050" y="759"/>
      <point x="1057" y="763" type="qcurve" smooth="yes"/>
      <point x="1064" y="768"/>
      <point x="1082" y="770"/>
    </contour>
    <contour>
      <point x="872" y="818" type="qcurve"/>
      <point x="872" y="818" type="line"/>
      <point x="854" y="816"/>
      <point x="824" y="809"/>
      <point x="812" y="803" type="qcurve" smooth="yes"/>
      <point x="782" y="790"/>
      <point x="752" y="740"/>
      <point x="752" y="706" type="qcurve" smooth="yes"/>
      <point x="752" y="673"/>
      <point x="781" y="627"/>
      <point x="807" y="618" type="qcurve" smooth="yes"/>
      <point x="823" y="612"/>
      <point x="860" y="612"/>
      <point x="875" y="617" type="qcurve" smooth="yes"/>
      <point x="878" y="618"/>
      <point x="884" y="619"/>
      <point x="884" y="619" type="qcurve"/>
      <point x="884" y="619"/>
      <point x="882" y="600"/>
      <point x="881" y="595" type="qcurve" smooth="yes"/>
      <point x="877" y="584"/>
      <point x="861" y="569"/>
      <point x="848" y="565" type="qcurve" smooth="yes"/>
      <point x="842" y="563"/>
      <point x="806" y="563"/>
      <point x="797" y="565" type="qcurve" smooth="yes"/>
      <point x="789" y="566"/>
      <point x="771" y="572"/>
      <point x="764" y="576" type="qcurve" smooth="yes"/>
      <point x="757" y="579" type="line"/>
      <point x="757" y="521" type="line"/>
      <point x="768" y="517" type="line" smooth="yes"/>
      <point x="782" y="513"/>
      <point x="808" y="508"/>
      <point x="824" y="508" type="qcurve" smooth="yes"/>
      <point x="860" y="508"/>
      <point x="911" y="531"/>
      <point x="926" y="553" type="qcurve" smooth="yes"/>
      <point x="933" y="562"/>
      <point x="941" y="587"/>
      <point x="943" y="603" type="qcurve" smooth="yes"/>
      <point x="945" y="611"/>
      <point x="945" y="732"/>
      <point x="943" y="752" type="qcurve" smooth="yes"/>
      <point x="943" y="765" type="line"/>
      <point x="950" y="765" type="line"/>
      <point x="958" y="765" type="line"/>
      <point x="969" y="787" type="line" smooth="yes"/>
      <point x="973" y="796"/>
      <point x="979" y="809"/>
      <point x="979" y="810" type="qcurve"/>
      <point x="978" y="810"/>
      <point x="955" y="815"/>
      <point x="943" y="816" type="qcurve" smooth="yes"/>
      <point x="935" y="817"/>
      <point x="917" y="818"/>
      <point x="903" y="818" type="qcurve" smooth="yes"/>
      <point x="892" y="818"/>
      <point x="875" y="818"/>
    </contour>
    <contour>
      <point x="883" y="753" type="line"/>
      <point x="883" y="753" type="line"/>
      <point x="883" y="746"/>
      <point x="884" y="716"/>
      <point x="884" y="703" type="qcurve" smooth="yes"/>
      <point x="884" y="667" type="line"/>
      <point x="881" y="666" type="line" smooth="yes"/>
      <point x="870" y="664"/>
      <point x="850" y="664"/>
      <point x="843" y="666" type="qcurve" smooth="yes"/>
      <point x="830" y="671"/>
      <point x="818" y="692"/>
      <point x="816" y="709" type="qcurve" smooth="yes"/>
      <point x="816" y="723"/>
      <point x="822" y="743"/>
      <point x="829" y="751" type="qcurve" smooth="yes"/>
      <point x="837" y="759"/>
      <point x="861" y="768"/>
      <point x="877" y="768" type="qcurve"/>
      <point x="882" y="769" type="line"/>
    </contour>
    <contour>
      <point x="258" y="741" type="line"/>
      <point x="258" y="741" type="line"/>
      <point x="258" y="659"/>
      <point x="253" y="611"/>
      <point x="244" y="594" type="qcurve" smooth="yes"/>
      <point x="240" y="584"/>
      <point x="218" y="565"/>
      <point x="203" y="557" type="qcurve" smooth="yes"/>
      <point x="199" y="555"/>
      <point x="196" y="554"/>
      <point x="197" y="553" type="qcurve"/>
      <point x="197" y="553"/>
      <point x="215" y="545"/>
      <point x="227" y="539" type="qcurve" smooth="yes"/>
      <point x="255" y="525" type="line"/>
      <point x="260" y="529" type="line" smooth="yes"/>
      <point x="289" y="544"/>
      <point x="316" y="587"/>
      <point x="320" y="624" type="qcurve" smooth="yes"/>
      <point x="320" y="628"/>
      <point x="321" y="684"/>
      <point x="321" y="724" type="qcurve" smooth="yes"/>
      <point x="322" y="815" type="line"/>
      <point x="258" y="815" type="line"/>
    </contour>
  </outline>
</glyph>
